<svg width="85" height="15" viewBox="0 0 85 15" fill="none" xmlns="http://www.w3.org/2000/svg">
<path d="M8.80795 4.18402L7.59053 2.0648C7.36449 1.67132 6.79748 1.66943 6.56883 2.06141L5.28418 4.26366C5.11403 4.55535 4.82711 4.76021 4.49597 4.82644L2.74065 5.17751C2.28603 5.26843 2.10888 5.82393 2.42694 6.16126L3.69652 7.50779C3.968 7.79573 4.07716 8.20053 3.98724 8.58592L3.41258 11.0487C3.29445 11.555 3.84111 11.9557 4.28834 11.6907L6.48076 10.3915C6.85186 10.1715 7.31336 10.1715 7.68446 10.3915L9.87688 11.6907C10.3241 11.9557 10.8708 11.555 10.7526 11.0487L10.173 8.56436C10.0858 8.19091 10.1855 7.7984 10.4403 7.51178L11.7114 6.08174C12.0143 5.74101 11.833 5.20017 11.386 5.11076L9.60009 4.75358C9.26628 4.68682 8.97753 4.4792 8.80795 4.18402Z" fill="#908C8D"/>
<path d="M26.5169 4.18402L25.2995 2.0648C25.0735 1.67132 24.5065 1.66943 24.2778 2.06141L22.9932 4.26366C22.823 4.55535 22.5361 4.76021 22.205 4.82644L20.4496 5.17751C19.995 5.26843 19.8179 5.82393 20.1359 6.16126L21.4055 7.50779C21.677 7.79573 21.7861 8.20053 21.6962 8.58592L21.1216 11.0487C21.0034 11.555 21.5501 11.9557 21.9973 11.6907L24.1897 10.3915C24.5608 10.1715 25.0223 10.1715 25.3934 10.3915L27.5859 11.6907C28.0331 11.9557 28.5798 11.555 28.4616 11.0487L27.8819 8.56436C27.7948 8.19091 27.8945 7.7984 28.1493 7.51178L29.4204 6.08174C29.7233 5.74101 29.542 5.20017 29.095 5.11076L27.3091 4.75358C26.9753 4.68682 26.6865 4.4792 26.5169 4.18402Z" fill="#908C8D"/>
<path d="M44.224 4.18402L43.0065 2.0648C42.7805 1.67132 42.2135 1.66943 41.9848 2.06141L40.7002 4.26366C40.53 4.55535 40.2431 4.76021 39.912 4.82644L38.1567 5.17751C37.702 5.26843 37.5249 5.82393 37.843 6.16126L39.1125 7.50779C39.384 7.79573 39.4932 8.20053 39.4033 8.58592L38.8286 11.0487C38.7105 11.555 39.2571 11.9557 39.7044 11.6907L41.8968 10.3915C42.2679 10.1715 42.7294 10.1715 43.1005 10.3915L45.2929 11.6907C45.7401 11.9557 46.2868 11.555 46.1687 11.0487L45.589 8.56436C45.5018 8.19091 45.6015 7.7984 45.8563 7.51178L47.1274 6.08174C47.4303 5.74101 47.249 5.20017 46.802 5.11076L45.0161 4.75358C44.6823 4.68682 44.3935 4.4792 44.224 4.18402Z" fill="#908C8D"/>
<path d="M61.933 4.18402L60.7155 2.0648C60.4895 1.67132 59.9225 1.66943 59.6938 2.06141L58.4092 4.26366C58.239 4.55535 57.9521 4.76021 57.621 4.82644L55.8657 5.17751C55.411 5.26843 55.2339 5.82393 55.5519 6.16126L56.8215 7.50779C57.093 7.79573 57.2022 8.20053 57.1122 8.58592L56.5376 11.0487C56.4195 11.555 56.9661 11.9557 57.4133 11.6907L59.6058 10.3915C59.9769 10.1715 60.4384 10.1715 60.8095 10.3915L63.0019 11.6907C63.4491 11.9557 63.9958 11.555 63.8776 11.0487L63.298 8.56436C63.2108 8.19091 63.3105 7.7984 63.5653 7.51178L64.8364 6.08174C65.1393 5.74101 64.958 5.20017 64.511 5.11076L62.7251 4.75358C62.3913 4.68682 62.1025 4.4792 61.933 4.18402Z" fill="#908C8D"/>
<path d="M79.6419 4.18402L78.4245 2.0648C78.1985 1.67132 77.6315 1.66943 77.4028 2.06141L76.1182 4.26366C75.948 4.55535 75.6611 4.76021 75.33 4.82644L73.5746 5.17751C73.12 5.26843 72.9429 5.82393 73.2609 6.16126L74.5305 7.50779C74.802 7.79573 74.9111 8.20053 74.8212 8.58592L74.2466 11.0487C74.1284 11.555 74.6751 11.9557 75.1223 11.6907L77.3147 10.3915C77.6858 10.1715 78.1473 10.1715 78.5184 10.3915L80.7109 11.6907C81.1581 11.9557 81.7048 11.555 81.5866 11.0487L81.0069 8.56436C80.9198 8.19091 81.0195 7.7984 81.2743 7.51178L82.5454 6.08174C82.8483 5.74101 82.667 5.20017 82.22 5.11076L80.4341 4.75358C80.1003 4.68682 79.8115 4.4792 79.6419 4.18402Z" fill="#908C8D"/>
</svg>
