<svg width="144" height="24" viewBox="0 0 144 24" fill="none" xmlns="http://www.w3.org/2000/svg">
<path d="M14.9233 7.08817L12.8609 3.49797C12.4779 2.83136 11.5173 2.82817 11.13 3.49222L8.95364 7.22309C8.66538 7.71726 8.1793 8.06432 7.61831 8.17651L4.6446 8.77126C3.87441 8.92529 3.5743 9.86638 4.11312 10.4379L6.26395 12.719C6.72388 13.2068 6.9088 13.8926 6.75645 14.5455L5.78292 18.7178C5.5828 19.5755 6.5089 20.2543 7.26657 19.8053L10.9808 17.6043C11.6095 17.2318 12.3913 17.2318 13.02 17.6043L16.7342 19.8053C17.4919 20.2543 18.418 19.5755 18.2179 18.7178L17.2358 14.509C17.0882 13.8763 17.257 13.2114 17.6887 12.7258L19.8421 10.3031C20.3552 9.7259 20.0482 8.80965 19.2908 8.65819L16.2653 8.05308C15.6998 7.93998 15.2106 7.58825 14.9233 7.08817Z" fill="#908C8D"/>
<path d="M44.9233 7.08817L42.8609 3.49797C42.4779 2.83136 41.5173 2.82817 41.13 3.49222L38.9536 7.22309C38.6654 7.71726 38.1793 8.06432 37.6183 8.17651L34.6446 8.77126C33.8744 8.92529 33.5743 9.86638 34.1131 10.4379L36.264 12.719C36.7239 13.2068 36.9088 13.8926 36.7565 14.5455L35.7829 18.7178C35.5828 19.5755 36.5089 20.2543 37.2666 19.8053L40.9808 17.6043C41.6095 17.2318 42.3913 17.2318 43.02 17.6043L46.7342 19.8053C47.4919 20.2543 48.418 19.5755 48.2179 18.7178L47.2358 14.509C47.0882 13.8763 47.257 13.2114 47.6887 12.7258L49.8421 10.3031C50.3552 9.7259 50.0482 8.80965 49.2908 8.65819L46.2653 8.05308C45.6998 7.93998 45.2106 7.58825 44.9233 7.08817Z" fill="#908C8D"/>
<path d="M74.9233 7.08817L72.8609 3.49797C72.4779 2.83136 71.5173 2.82817 71.13 3.49222L68.9536 7.22309C68.6654 7.71726 68.1793 8.06432 67.6183 8.17651L64.6446 8.77126C63.8744 8.92529 63.5743 9.86638 64.1131 10.4379L66.264 12.719C66.7239 13.2068 66.9088 13.8926 66.7565 14.5455L65.7829 18.7178C65.5828 19.5755 66.5089 20.2543 67.2666 19.8053L70.9808 17.6043C71.6095 17.2318 72.3913 17.2318 73.02 17.6043L76.7342 19.8053C77.4919 20.2543 78.418 19.5755 78.2179 18.7178L77.2358 14.509C77.0882 13.8763 77.257 13.2114 77.6887 12.7258L79.8421 10.3031C80.3552 9.7259 80.0482 8.80965 79.2908 8.65819L76.2653 8.05308C75.6998 7.93998 75.2106 7.58825 74.9233 7.08817Z" fill="#908C8D"/>
<path d="M104.923 7.08817L102.861 3.49797C102.478 2.83136 101.517 2.82817 101.13 3.49222L98.9536 7.22309C98.6654 7.71726 98.1793 8.06432 97.6183 8.17651L94.6446 8.77126C93.8744 8.92529 93.5743 9.86638 94.1131 10.4379L96.264 12.719C96.7239 13.2068 96.9088 13.8926 96.7565 14.5455L95.7829 18.7178C95.5828 19.5755 96.5089 20.2543 97.2666 19.8053L100.981 17.6043C101.609 17.2318 102.391 17.2318 103.02 17.6043L106.734 19.8053C107.492 20.2543 108.418 19.5755 108.218 18.7178L107.236 14.509C107.088 13.8763 107.257 13.2114 107.689 12.7258L109.842 10.3031C110.355 9.7259 110.048 8.80965 109.291 8.65819L106.265 8.05308C105.7 7.93998 105.211 7.58825 104.923 7.08817Z" fill="#908C8D"/>
<path d="M134.923 7.08817L132.861 3.49797C132.478 2.83136 131.517 2.82817 131.13 3.49222L128.954 7.22309C128.665 7.71726 128.179 8.06432 127.618 8.17651L124.645 8.77126C123.874 8.92529 123.574 9.86638 124.113 10.4379L126.264 12.719C126.724 13.2068 126.909 13.8926 126.756 14.5455L125.783 18.7178C125.583 19.5755 126.509 20.2543 127.267 19.8053L130.981 17.6043C131.609 17.2318 132.391 17.2318 133.02 17.6043L136.734 19.8053C137.492 20.2543 138.418 19.5755 138.218 18.7178L137.236 14.509C137.088 13.8763 137.257 13.2114 137.689 12.7258L139.842 10.3031C140.355 9.7259 140.048 8.80965 139.291 8.65819L136.265 8.05308C135.7 7.93998 135.211 7.58825 134.923 7.08817Z" fill="#908C8D"/>
</svg>
