<svg width="21" height="24" viewBox="0 0 21 24" fill="none" xmlns="http://www.w3.org/2000/svg">
<path fill-rule="evenodd" clip-rule="evenodd" d="M7.0125 22.7251L2.5125 19.6573C1.281 18.8188 0.6645 18.3981 0.333 17.7829C1.78814e-07 17.1676 0 16.4436 0 15.0013V9.44518C0 8.98444 -4.65661e-08 8.5981 0.0105 8.26471L9 14.3888V24C8.4645 23.7138 7.8405 23.2889 7.0125 22.7251ZM12 23.9986C12.5355 23.7124 13.1595 23.286 13.9875 22.7222L18.4875 19.6559C19.719 18.8174 20.3355 18.3967 20.667 17.7814C21 17.1662 21 16.4436 21 14.9998V9.44375C21 8.98301 21 8.59667 20.9895 8.26328L12 14.3888V23.9986ZM19.692 5.63048L10.5 11.8948L1.308 5.63191C1.626 5.39152 2.0205 5.12252 2.5125 4.78769L7.0125 1.72134C8.697 0.573779 9.54 0 10.5 0C11.46 0 12.303 0.572348 13.9875 1.72134L18.4875 4.78769C18.981 5.12252 19.374 5.39009 19.692 5.63048Z" fill="#9C163A"/>
</svg>
