<svg width="319" height="90" viewBox="0 0 319 90" fill="none" xmlns="http://www.w3.org/2000/svg">
<path d="M80.2197 0.00145657C80.5898 1.04728 80.9454 2.09892 81.3336 3.13819C82.1555 5.3347 82.9969 7.52393 83.826 9.71752C85.0997 13.0873 86.372 16.4571 87.6413 19.8291C88.6374 22.4764 89.6263 25.1259 90.6217 27.7732C92.1194 31.7569 93.6216 35.7392 95.1193 39.7229C96.3785 43.0723 97.6298 46.4239 98.8912 49.7725C99.956 52.6005 101.029 55.4255 102.098 58.252C103.602 62.2321 105.106 66.2129 106.606 70.1944C106.714 70.4821 106.795 70.7807 106.907 71.1317H92.1043C90.0672 65.1561 88.0317 59.1856 85.9737 53.1474H85.1648C76.9502 53.1474 68.7356 53.1474 60.521 53.1474C59.9759 53.1474 59.6181 53.3989 59.4475 53.9019C57.9765 58.2542 56.5076 62.6071 55.0344 66.9594C54.6007 68.2419 54.1576 69.5215 53.7159 70.8011C53.6776 70.9132 53.6154 71.0167 53.5554 71.1434H39.5999C39.8883 70.3648 40.1594 69.6234 40.4369 68.885C41.3738 66.3964 42.3142 63.9086 43.2503 61.4193C44.8074 57.2775 46.3593 53.1336 47.9193 48.9925C50.0582 43.3134 52.2044 37.6371 54.3441 31.9587C55.8274 28.0223 57.3028 24.0822 58.7875 20.1466C60.9373 14.4456 63.0922 8.74672 65.2441 3.04642C65.5434 2.25477 65.8441 1.46313 66.1217 0.663469C66.1925 0.458092 66.1759 0.222127 66.199 0C70.8723 0 75.5456 0 80.2197 0V0.00145657ZM63.4955 41.958C64.4707 42.1248 81.5671 42.0695 82.1078 41.8867C79.0544 32.8319 76.0011 23.7771 72.9311 14.6721C72.5125 15.2452 64.2365 39.243 63.4955 41.958Z" fill="white"/>
<path d="M0.279025 16.9443C0.979479 13.6823 2.55893 10.9534 5.17064 8.87344C6.93659 7.46712 8.93241 6.52108 11.1675 6.20063C14.7811 5.68282 18.2248 6.13872 21.31 8.2726C22.5056 9.09994 23.5039 10.1341 24.354 11.3933C23.1779 12.445 22.0365 13.4653 20.8503 14.5257C20.5257 14.1411 20.2474 13.8185 19.977 13.4893C18.0173 11.1078 15.4881 10.1487 12.473 10.539C10.1837 10.8347 8.38376 12.0211 7.03634 13.8921C4.83523 16.9494 4.72102 21.92 6.34312 24.8287C7.40934 26.7412 8.88398 28.1475 10.9543 28.8853C13.3498 29.7388 15.7215 29.6179 18.0752 28.7112C18.12 28.6938 18.1677 28.6828 18.2111 28.6632C19.1978 28.2298 19.925 27.6661 19.7117 26.3836C19.5983 25.6998 19.6951 24.9809 19.6893 24.2774C19.6879 24.0655 19.6626 23.8536 19.6423 23.544C18.0998 23.5113 16.5926 23.547 15.0355 23.5222V19.2595H24.4393C24.4617 19.4088 24.5058 19.5676 24.5058 19.7256C24.5101 23.0714 24.5043 26.4171 24.5159 29.7629C24.5173 30.135 24.4205 30.4132 24.1292 30.6441C22.2736 32.1182 20.2459 33.2055 17.8945 33.6614C15.6717 34.0925 13.4474 34.204 11.2181 33.8347C7.09923 33.153 3.86948 31.108 1.7515 27.4192C1.15875 26.3873 0.733706 25.2861 0.453235 24.1281C0.422152 24.0451 0.391069 23.9613 0.359986 23.8783C0.335408 23.713 0.311554 23.547 0.286976 23.3824C0.190113 22.8675 0.0954179 22.3496 0 21.8326C0 20.5712 0 19.3098 0 18.0484C0.0932493 17.6806 0.185776 17.3121 0.279025 16.9443Z" fill="white"/>
<path d="M318.999 70.4428C318.135 70.461 317.271 70.4857 316.406 70.4959C315.66 70.5047 314.914 70.4981 314.071 70.4981C314.009 69.7167 314.047 68.9498 314.04 68.1873C314.034 67.4116 314.039 66.6353 314.039 65.8589V61.1302C314.039 60.356 314.039 59.5826 314.039 58.7239C312.525 58.5935 311.042 58.6795 309.564 58.6642C308.046 58.6482 306.529 58.6605 305.012 58.6605H300.469V70.4501H295.323V43.0446C295.842 42.9055 299.46 42.8691 300.44 43.0017V53.966H314.024V42.9361H319V70.4428H318.999Z" fill="white"/>
<path d="M0 21.8326C0.0954179 22.3504 0.190113 22.8675 0.285531 23.3845C0.190113 23.4006 0.0954179 23.4166 0 23.4333C0 22.8995 0 22.3664 0 21.8326Z" fill="white"/>
<path d="M0.279025 16.9443C0.185776 17.3121 0.0932493 17.6806 0 18.0484C0 17.6602 0 17.272 0 16.8839C0.0932493 16.9043 0.185776 16.9239 0.279025 16.9443Z" fill="white"/>
<path d="M173.768 71.249C166.873 71.2978 161.447 67.0125 159.694 61.16C158.221 56.2426 158.972 51.618 162.157 47.5789C165.335 43.5486 169.596 41.8502 174.695 42.2748C177.495 42.5079 179.96 43.5879 182.132 45.3213C184.149 46.9293 185.607 48.9838 186.53 51.4148C187.694 54.4853 187.84 57.6249 186.941 60.7587C185.886 64.4344 183.731 67.3221 180.427 69.295C178.199 70.6248 175.799 71.2854 173.769 71.249H173.768ZM173.234 46.9359C171.56 46.9279 170.001 47.3153 168.583 48.2453C166.772 49.4339 165.588 51.0966 164.958 53.1511C164.133 55.8428 164.229 58.52 165.38 61.0981C166.661 63.9683 168.833 65.7577 171.967 66.2398C175.656 66.8072 179.146 65.009 180.852 61.664C182.176 59.0684 182.413 56.3329 181.661 53.5407C180.588 49.5533 177.375 46.8805 173.234 46.9366V46.9359Z" fill="white"/>
<path d="M121.114 33.3388C120.949 33.3643 120.81 33.4036 120.67 33.4043C119.321 33.4094 117.973 33.3978 116.624 33.4138C116.27 33.4181 116.053 33.2871 115.856 32.9936C114.23 30.5647 112.589 28.1446 110.953 25.7231C109.452 23.5025 107.947 21.2849 106.449 19.0622C105.45 17.5794 104.462 16.0893 103.467 14.6043C103.337 14.4099 103.192 14.2249 102.984 14.0501C102.862 15.109 102.902 16.1592 102.895 17.2065C102.887 18.2734 102.894 19.3404 102.894 20.408V33.2586C102.34 33.4385 98.7893 33.4735 97.9797 33.3249C97.8358 32.7998 97.8004 6.99738 97.9501 6.1278C98.1257 6.11396 98.3115 6.08629 98.498 6.08556C99.823 6.08192 101.148 6.10377 102.472 6.07245C102.946 6.06153 103.191 6.24141 103.45 6.63032C105.16 9.20627 106.905 11.7596 108.638 14.3203C110.573 17.1817 112.509 20.0439 114.445 22.9053C114.958 23.6628 115.475 24.4173 115.978 25.1557C116.043 25.1477 116.066 25.1492 116.085 25.1412C116.106 25.1317 116.129 25.1179 116.142 25.0989C116.155 25.0814 116.16 25.0545 116.16 25.0319C116.161 18.7526 116.16 12.4734 116.16 6.20573C116.71 6.05716 120.16 6.02366 121.113 6.15256V33.338L121.114 33.3388Z" fill="white"/>
<path d="M126.88 33.4072V6.14965C127.034 6.12634 127.171 6.08702 127.308 6.08702C130.992 6.09139 134.677 6.07172 138.36 6.11979C140.598 6.14892 142.755 6.66892 144.768 7.64846C147.507 8.98268 149.433 11.1166 150.445 14.0166C151.602 17.3281 151.734 20.7278 150.857 24.1063C149.835 28.0441 147.355 30.7504 143.571 32.231C141.409 33.0766 139.157 33.3905 136.857 33.4029C133.823 33.4196 130.789 33.4072 127.754 33.4072H126.879H126.88ZM132.027 10.7502V28.7586C132.304 28.7717 132.538 28.7913 132.773 28.7913C134.049 28.7943 135.325 28.8015 136.6 28.7906C138.05 28.7775 139.474 28.6085 140.856 28.1177C143.214 27.2787 144.831 25.7092 145.54 23.2804C146.229 20.9171 146.171 18.5291 145.459 16.1862C144.908 14.3749 143.869 12.8797 142.196 11.914C140.943 11.1901 139.571 10.8172 138.14 10.7597C136.265 10.6847 134.387 10.6927 132.51 10.6723C132.35 10.6709 132.188 10.7233 132.027 10.7502H132.027Z" fill="white"/>
<path d="M211.4 60.3036H206.605V56.0547C207.134 55.8945 215.261 55.845 216.323 55.9936C216.34 56.1392 216.374 56.2987 216.374 56.4582C216.377 59.9008 216.37 63.3442 216.385 66.7868C216.387 67.2223 216.233 67.4961 215.904 67.7634C213.329 69.8572 210.382 70.9649 207.091 71.1346C205.311 71.2264 203.532 71.2206 201.776 70.8084C198.833 70.1172 196.319 68.7145 194.342 66.3833C193.054 64.8655 192.171 63.1308 191.666 61.2125C190.675 57.4501 190.898 53.7665 192.547 50.2204C193.898 47.3124 196.03 45.1552 198.884 43.7096C201.656 42.3062 204.583 42.0454 207.599 42.4722C211.105 42.9682 213.913 44.6796 216.048 47.5178C216.106 47.5942 216.15 47.6809 216.243 47.8331C215.052 48.8993 213.86 49.967 212.618 51.0805C212.4 50.8082 212.223 50.5875 212.047 50.3654C211.258 49.3742 210.349 48.5184 209.259 47.8703C207.837 47.0254 206.27 46.7917 204.666 46.9082C201.022 47.1733 198.627 49.1783 197.298 52.5247C196.367 54.8698 196.27 57.3023 196.916 59.7297C197.574 62.2007 199.011 64.1161 201.269 65.3491C202.334 65.931 203.465 66.3207 204.691 66.3899C206.338 66.4823 207.963 66.4285 209.52 65.7912C209.697 65.7184 209.882 65.6601 210.054 65.5749C211.4 64.9041 211.445 64.8299 211.445 63.3136C211.445 62.562 211.447 61.8104 211.443 61.0588C211.442 60.8454 211.421 60.6327 211.402 60.3043L211.4 60.3036Z" fill="white"/>
<path d="M221.874 42.9288C222.181 42.9288 222.394 42.9288 222.608 42.9288C225.258 42.9288 227.907 42.9004 230.556 42.9427C231.633 42.9601 232.734 43.014 233.78 43.2515C238.014 44.2128 240.582 47.67 240.301 51.9188C240.17 53.891 239.556 55.6571 238.218 57.1377C237.629 57.7895 236.925 58.2898 236.19 58.7545C236.072 58.8288 235.958 58.9082 235.778 59.0276C237.853 62.8176 239.913 66.5807 242.018 70.426C241.761 70.4595 241.584 70.5025 241.406 70.5032C239.865 70.5083 238.323 70.4937 236.782 70.5149C236.366 70.5207 236.149 70.3881 235.954 69.9992C234.361 66.8246 232.739 63.6646 231.124 60.5016C230.983 60.2234 230.821 59.9562 230.662 59.6714H226.81C226.805 60.5847 226.797 61.4725 226.795 62.3602C226.792 63.2575 226.795 64.1547 226.795 65.052V70.4624H221.875V42.9296L221.874 42.9288ZM226.845 55.2675C228.576 55.2675 230.254 55.3177 231.928 55.2427C232.613 55.2121 233.268 54.8618 233.787 54.3615C235.017 53.1736 235.349 51.7273 234.886 50.1083C234.45 48.584 233.364 47.7151 231.851 47.4682C230.958 47.3226 230.033 47.3648 229.122 47.3437C228.383 47.3262 227.643 47.3401 226.845 47.3401V55.2675Z" fill="white"/>
<path d="M126.033 42.9623H131.158C131.18 43.1524 131.216 43.3141 131.216 43.4758C131.219 49.2227 131.259 54.9703 131.2 60.7165C131.171 63.5444 130.28 66.1036 128.235 68.1399C126.385 69.9825 124.123 70.9518 121.541 71.1754C120.097 71.3007 118.651 71.3014 117.227 70.9963C112.684 70.0225 109.489 66.7256 108.978 61.9218C108.893 61.1287 108.865 60.3261 108.863 59.5279C108.853 54.2901 108.858 49.0523 108.858 43.8152C108.858 43.5537 108.858 43.293 108.858 42.9813H114.013C114.026 43.2915 114.047 43.5734 114.048 43.8552C114.05 48.8017 114.034 53.749 114.062 58.6955C114.068 59.8054 114.16 60.9255 114.337 62.0209C114.565 63.433 115.25 64.607 116.488 65.3987C118.299 66.5566 122.336 66.6528 124.204 64.942C125.019 64.1955 125.521 63.2517 125.708 62.1891C125.897 61.1214 126.01 60.0261 126.017 58.9424C126.048 53.899 126.031 48.8549 126.031 43.8115C126.031 43.5501 126.031 43.2886 126.031 42.9631L126.033 42.9623Z" fill="white"/>
<path d="M29.8802 33.3876C29.7342 32.8268 29.6872 7.80286 29.8268 6.71844C29.9974 6.69951 30.181 6.66163 30.3646 6.66163C33.2538 6.66091 36.1439 6.65508 39.0331 6.6711C40.4644 6.67911 41.8509 6.91508 43.1607 7.55014C45.9415 8.8982 47.4646 11.1246 47.6966 14.2023C47.8643 16.4338 47.2911 18.4766 45.8468 20.2252C45.3032 20.8836 44.6397 21.3992 43.9175 21.8435C43.7361 21.9549 43.5554 22.0663 43.3002 22.2229C45.3242 25.9263 47.3316 29.5997 49.3845 33.3562C49.1243 33.3912 48.9725 33.4283 48.8207 33.4291C47.328 33.4334 45.8345 33.4196 44.3418 33.4393C43.9341 33.4444 43.6934 33.3358 43.4975 32.9426C42.4197 30.7803 41.3073 28.6355 40.2107 26.4827C39.6953 25.4711 39.1784 24.4595 38.6862 23.437C38.4707 22.9898 38.1794 22.8092 37.6698 22.8318C36.6911 22.8747 35.7087 22.8442 34.6251 22.8442V33.3868H29.8802V33.3876ZM34.6634 18.6186C36.2357 18.6186 37.7688 18.6449 39.3006 18.6019C39.7415 18.5895 40.2128 18.4489 40.6097 18.2465C42.7703 17.1424 43.3103 14.0202 41.6759 12.2119C40.8837 11.335 39.8717 10.9556 38.7194 10.9367C37.6142 10.9185 36.5082 10.9323 35.4022 10.9323C35.168 10.9323 34.9345 10.9323 34.6634 10.9323V18.6186Z" fill="white"/>
<path d="M269.282 70.5068H266.934C266.019 70.5068 265.104 70.509 264.189 70.5061C263.538 70.5039 263.542 70.4996 263.335 69.8914C262.667 67.9229 261.996 65.9558 261.322 63.9887C261.277 63.8554 261.203 63.7316 261.138 63.5954H250.989C250.211 65.8764 249.439 68.1363 248.633 70.4967C246.884 70.5185 245.118 70.5025 243.233 70.5068C243.444 69.8958 243.609 69.378 243.799 68.8697C245.123 65.3382 246.449 61.8082 247.78 58.2797C249.085 54.8196 250.397 51.3624 251.704 47.9038C252.26 46.4341 252.826 44.968 253.356 43.4896C253.514 43.0497 253.756 42.9114 254.208 42.9201C255.58 42.947 256.953 42.9266 258.326 42.931C258.934 42.9332 258.932 42.9398 259.148 43.5158C261.388 49.4652 263.627 55.4146 265.867 61.3639C266.941 64.2137 268.016 67.0635 269.088 69.914C269.146 70.0677 269.19 70.2257 269.281 70.5083L269.282 70.5068ZM259.665 59.1827C258.486 55.6331 257.335 52.2057 256.157 48.7872C256.103 48.7915 256.048 48.7959 255.994 48.801C254.824 52.2371 253.652 55.6731 252.457 59.1835H259.665V59.1827Z" fill="white"/>
<path d="M272.443 42.9616C272.598 42.9485 272.717 42.9303 272.834 42.9303C275.724 42.9325 278.613 42.9106 281.501 42.9507C282.945 42.9711 284.37 43.1422 285.718 43.7693C288.008 44.8355 289.606 46.4945 290.266 48.9772C290.816 51.0434 290.818 53.1081 289.988 55.1058C289.042 57.3802 287.348 58.8674 285.041 59.6627C283.8 60.0909 282.527 60.2912 281.212 60.2613C280.177 60.238 279.141 60.2569 278.106 60.2569C277.872 60.2569 277.639 60.2569 277.349 60.2569V70.4588H272.484C272.33 69.965 272.282 43.9666 272.444 42.9609L272.443 42.9616ZM277.384 55.7867C277.484 55.8202 277.55 55.8617 277.616 55.8617C278.94 55.8617 280.268 55.9222 281.585 55.8246C282.256 55.7751 282.984 55.5639 283.554 55.2092C285.787 53.8204 285.737 50.8176 284.681 49.23C283.843 47.9693 282.64 47.359 281.147 47.3211C280.425 47.3029 279.702 47.3153 278.98 47.3146C278.457 47.3146 277.933 47.3146 277.384 47.3146V55.7867Z" fill="white"/>
<path d="M158.498 42.9813V47.5149H149.249V70.4501H144.089V47.52H134.854V42.9813H158.498Z" fill="white"/>
<path d="M0.35854 23.8805C0.389623 23.9643 0.420706 24.0473 0.451789 24.1303C0.420706 24.0466 0.389623 23.9635 0.35854 23.8805Z" fill="white"/>
<path d="M39.8681 89.872V82.3649H40.8542V85.4476H44.7271V82.3649H45.7132V89.872H44.7271V86.3335H40.8542V89.872H39.8681Z" fill="white"/>
<path d="M57.6775 86.2158C57.6775 84.9697 58.0095 83.9951 58.6737 83.2918C59.3378 82.5851 60.1951 82.2318 61.2455 82.2318C61.9333 82.2318 62.5534 82.3974 63.1057 82.7285C63.658 83.0597 64.0782 83.5222 64.3662 84.1162C64.6576 84.7068 64.8033 85.3777 64.8033 86.1287C64.8033 86.89 64.6508 87.5711 64.3459 88.1719C64.0409 88.7727 63.6089 89.2285 63.0498 89.5391C62.4907 89.8464 61.8876 90 61.2404 90C60.539 90 59.9121 89.8293 59.3598 89.4879C58.8075 89.1465 58.389 88.6806 58.1044 88.09C57.8198 87.4994 57.6775 86.8746 57.6775 86.2158ZM58.694 86.2311C58.694 87.1358 58.9346 87.8493 59.4157 88.3716C59.9003 88.8905 60.5068 89.15 61.2353 89.15C61.9774 89.15 62.5873 88.8871 63.065 88.3614C63.5462 87.8356 63.7868 87.0897 63.7868 86.1236C63.7868 85.5125 63.6834 84.9799 63.4767 84.5259C63.2734 84.0685 62.9736 83.7151 62.5771 83.4659C62.1841 83.2133 61.7419 83.087 61.2505 83.087C60.5525 83.087 59.9511 83.3294 59.4462 83.8141C58.9447 84.2955 58.694 85.1011 58.694 86.2311Z" fill="white"/>
<path d="M78.5923 89.872V83.2508H76.1374V82.3649H82.0434V83.2508H79.5783V89.872H78.5923Z" fill="white"/>
<path d="M93.6976 89.872V82.3649H99.0852V83.2508H94.6837V85.5501H98.8057V86.4308H94.6837V88.9861H99.258V89.872H93.6976Z" fill="white"/>
<path d="M111.197 89.872V82.3649H112.183V88.9861H115.853V89.872H111.197Z" fill="white"/>
<path d="M141.808 89.872V82.3649H142.82L146.733 88.2589V82.3649H147.679V89.872H146.667L142.754 83.9729V89.872H141.808Z" fill="white"/>
<path d="M159.658 86.2158C159.658 84.9697 159.99 83.9951 160.654 83.2918C161.318 82.5851 162.176 82.2318 163.226 82.2318C163.914 82.2318 164.534 82.3974 165.086 82.7285C165.639 83.0597 166.059 83.5222 166.347 84.1162C166.638 84.7068 166.784 85.3777 166.784 86.1287C166.784 86.89 166.632 87.5711 166.327 88.1719C166.022 88.7727 165.59 89.2285 165.03 89.5391C164.471 89.8464 163.868 90 163.221 90C162.52 90 161.893 89.8293 161.34 89.4879C160.788 89.1465 160.37 88.6806 160.085 88.09C159.8 87.4994 159.658 86.8746 159.658 86.2158ZM160.675 86.2311C160.675 87.1358 160.915 87.8493 161.396 88.3716C161.881 88.8905 162.487 89.15 163.216 89.15C163.958 89.15 164.568 88.8871 165.046 88.3614C165.527 87.8356 165.767 87.0897 165.767 86.1236C165.767 85.5125 165.664 84.9799 165.457 84.5259C165.254 84.0685 164.954 83.7151 164.558 83.4659C164.165 83.2133 163.723 83.087 163.231 83.087C162.533 83.087 161.932 83.3294 161.427 83.8141C160.925 84.2955 160.675 85.1011 160.675 86.2311Z" fill="white"/>
<path d="M180.807 89.872L177.92 82.3649H178.987L180.924 87.8186C181.08 88.2555 181.21 88.6652 181.315 89.0475C181.43 88.6379 181.564 88.2282 181.717 87.8186L183.729 82.3649H184.736L181.818 89.872H180.807Z" fill="white"/>
<path d="M195.938 86.2158C195.938 84.9697 196.27 83.9951 196.934 83.2918C197.598 82.5851 198.455 82.2318 199.506 82.2318C200.193 82.2318 200.813 82.3974 201.366 82.7285C201.918 83.0597 202.338 83.5222 202.626 84.1162C202.918 84.7068 203.063 85.3777 203.063 86.1287C203.063 86.89 202.911 87.5711 202.606 88.1719C202.301 88.7727 201.869 89.2285 201.31 89.5391C200.751 89.8464 200.148 90 199.5 90C198.799 90 198.172 89.8293 197.62 89.4879C197.068 89.1465 196.649 88.6806 196.364 88.09C196.08 87.4994 195.938 86.8746 195.938 86.2158ZM196.954 86.2311C196.954 87.1358 197.195 87.8493 197.676 88.3716C198.16 88.8905 198.767 89.15 199.495 89.15C200.237 89.15 200.847 88.8871 201.325 88.3614C201.806 87.8356 202.047 87.0897 202.047 86.1236C202.047 85.5125 201.944 84.9799 201.737 84.5259C201.534 84.0685 201.234 83.7151 200.837 83.4659C200.444 83.2133 200.002 83.087 199.511 83.087C198.813 83.087 198.211 83.3294 197.706 83.8141C197.205 84.2955 196.954 85.1011 196.954 86.2311Z" fill="white"/>
<path d="M214.621 87.4601L215.551 87.3782C215.595 87.7537 215.697 88.0627 215.856 88.305C216.019 88.544 216.27 88.7386 216.608 88.8888C216.947 89.0356 217.328 89.109 217.752 89.109C218.128 89.109 218.46 89.0527 218.748 88.94C219.036 88.8273 219.25 88.6737 219.389 88.4791C219.531 88.2811 219.602 88.0661 219.602 87.8339C219.602 87.5984 219.534 87.3935 219.399 87.2194C219.263 87.0419 219.04 86.8934 218.728 86.7739C218.528 86.6954 218.086 86.5742 217.401 86.4103C216.717 86.2431 216.237 86.086 215.963 85.9392C215.607 85.7515 215.341 85.5193 215.165 85.2428C214.992 84.9629 214.906 84.6505 214.906 84.3057C214.906 83.9268 215.012 83.5734 215.226 83.2457C215.439 82.9146 215.751 82.6637 216.161 82.493C216.571 82.3223 217.027 82.2369 217.528 82.2369C218.081 82.2369 218.567 82.3274 218.987 82.5083C219.411 82.6858 219.736 82.9487 219.963 83.2969C220.19 83.6451 220.312 84.0394 220.329 84.4798L219.383 84.5515C219.333 84.077 219.16 83.7185 218.865 83.4762C218.574 83.2338 218.142 83.1126 217.569 83.1126C216.973 83.1126 216.537 83.2235 216.263 83.4454C215.992 83.6639 215.856 83.9285 215.856 84.2391C215.856 84.5088 215.953 84.7307 216.146 84.9048C216.336 85.0789 216.83 85.2582 217.63 85.4425C218.433 85.6235 218.984 85.7822 219.282 85.9188C219.716 86.1202 220.036 86.3762 220.242 86.6869C220.449 86.9941 220.553 87.3492 220.553 87.752C220.553 88.1514 220.439 88.5286 220.212 88.8837C219.985 89.2353 219.658 89.5101 219.231 89.7081C218.807 89.9027 218.33 90 217.798 90C217.123 90 216.558 89.901 216.1 89.703C215.646 89.505 215.289 89.208 215.028 88.812C214.77 88.4126 214.635 87.9619 214.621 87.4601Z" fill="white"/>
<path d="M232.685 89.872V82.3649H233.671V89.872H232.685Z" fill="white"/>
<path d="M245.991 89.872V82.3649H248.786C249.355 82.3649 249.811 82.4418 250.153 82.5954C250.499 82.7456 250.768 82.9794 250.961 83.2969C251.158 83.611 251.256 83.9404 251.256 84.2852C251.256 84.6061 251.17 84.9083 250.997 85.1916C250.824 85.475 250.563 85.7037 250.214 85.8778C250.665 86.0109 251.011 86.238 251.251 86.5589C251.495 86.8798 251.617 87.2587 251.617 87.6957C251.617 88.0473 251.543 88.375 251.393 88.6788C251.248 88.9793 251.066 89.2114 250.85 89.3753C250.633 89.5391 250.36 89.6637 250.031 89.7491C249.706 89.831 249.306 89.872 248.832 89.872H245.991ZM246.977 85.5193H248.588C249.025 85.5193 249.338 85.4903 249.528 85.4323C249.779 85.3572 249.967 85.2326 250.092 85.0585C250.221 84.8844 250.285 84.6659 250.285 84.403C250.285 84.1538 250.226 83.9353 250.108 83.7476C249.989 83.5564 249.82 83.4267 249.599 83.3584C249.379 83.2867 249.001 83.2508 248.466 83.2508H246.977V85.5193ZM246.977 88.9861H248.832C249.15 88.9861 249.374 88.9741 249.503 88.9502C249.73 88.9093 249.92 88.841 250.072 88.7454C250.224 88.6498 250.35 88.5116 250.448 88.3306C250.546 88.1463 250.596 87.9346 250.596 87.6957C250.596 87.4157 250.524 87.1733 250.382 86.9685C250.24 86.7603 250.042 86.6152 249.787 86.5332C249.537 86.4479 249.174 86.4052 248.7 86.4052H246.977V88.9861Z" fill="white"/>
<path d="M263.759 89.872V82.3649H264.745V89.872H263.759Z" fill="white"/>
<path d="M277.121 89.872V82.3649H280.425C281.089 82.3649 281.594 82.4332 281.94 82.5698C282.285 82.7029 282.561 82.9402 282.768 83.2816C282.975 83.6229 283.078 84.0002 283.078 84.4133C283.078 84.9458 282.907 85.3947 282.565 85.76C282.223 86.1253 281.694 86.3574 280.979 86.4564C281.24 86.5827 281.438 86.7074 281.574 86.8303C281.862 87.0965 282.134 87.4294 282.392 87.8288L283.688 89.872H282.448L281.462 88.3102C281.174 87.8595 280.937 87.5147 280.75 87.2758C280.564 87.0368 280.396 86.8695 280.247 86.7739C280.101 86.6783 279.952 86.6118 279.8 86.5742C279.688 86.5503 279.505 86.5384 279.251 86.5384H278.107V89.872H277.121ZM278.107 85.6781H280.227C280.677 85.6781 281.03 85.632 281.284 85.5398C281.538 85.4442 281.731 85.294 281.863 85.0892C281.996 84.881 282.062 84.6556 282.062 84.4133C282.062 84.0582 281.933 83.7663 281.675 83.5376C281.421 83.3089 281.018 83.1945 280.466 83.1945H278.107V85.6781Z" fill="white"/>
<path d="M294.91 87.4601L295.84 87.3782C295.885 87.7537 295.986 88.0627 296.145 88.305C296.308 88.544 296.559 88.7386 296.898 88.8888C297.236 89.0356 297.618 89.109 298.041 89.109C298.417 89.109 298.749 89.0527 299.037 88.94C299.325 88.8273 299.539 88.6737 299.678 88.4791C299.82 88.2811 299.891 88.0661 299.891 87.8339C299.891 87.5984 299.824 87.3935 299.688 87.2194C299.552 87.0419 299.329 86.8934 299.017 86.7739C298.817 86.6954 298.375 86.5742 297.691 86.4103C297.006 86.2431 296.527 86.086 296.252 85.9392C295.896 85.7515 295.63 85.5193 295.454 85.2428C295.281 84.9629 295.195 84.6505 295.195 84.3057C295.195 83.9268 295.302 83.5734 295.515 83.2457C295.729 82.9146 296.04 82.6637 296.45 82.493C296.86 82.3223 297.316 82.2369 297.818 82.2369C298.37 82.2369 298.856 82.3274 299.276 82.5083C299.7 82.6858 300.025 82.9487 300.252 83.2969C300.479 83.6451 300.601 84.0394 300.618 84.4798L299.673 84.5515C299.622 84.077 299.449 83.7185 299.154 83.4762C298.863 83.2338 298.431 83.1126 297.858 83.1126C297.262 83.1126 296.826 83.2235 296.552 83.4454C296.281 83.6639 296.145 83.9285 296.145 84.2391C296.145 84.5088 296.242 84.7307 296.435 84.9048C296.625 85.0789 297.12 85.2582 297.919 85.4425C298.722 85.6235 299.273 85.7822 299.571 85.9188C300.005 86.1202 300.325 86.3762 300.532 86.6869C300.738 86.9941 300.842 87.3492 300.842 87.752C300.842 88.1514 300.728 88.5286 300.501 88.8837C300.274 89.2353 299.947 89.5101 299.52 89.7081C299.097 89.9027 298.619 90 298.087 90C297.413 90 296.847 89.901 296.389 89.703C295.935 89.505 295.578 89.208 295.317 88.812C295.059 88.4126 294.924 87.9619 294.91 87.4601Z" fill="white"/>
<path d="M312.765 89.872V82.3649H313.751V86.0877L317.452 82.3649H318.788L315.663 85.4067L318.926 89.872H317.624L314.971 86.0724L313.751 87.2706V89.872H312.765Z" fill="white"/>
</svg>
