<svg width="213" height="60" viewBox="0 0 213 60" fill="none" xmlns="http://www.w3.org/2000/svg">
<path d="M53.5636 0.000971048C53.8107 0.698184 54.0482 1.39928 54.3074 2.09212C54.8562 3.55646 55.418 5.01595 55.9716 6.47835C56.8221 8.72487 57.6716 10.9714 58.5191 13.2194C59.1842 14.9842 59.8445 16.7506 60.5091 18.5155C61.5092 21.1713 62.5122 23.8261 63.5123 26.4819C64.3531 28.7149 65.1886 30.9493 66.0308 33.1817C66.7418 35.067 67.4585 36.9503 68.1719 38.8347C69.1763 41.488 70.1803 44.1419 71.1818 46.7963C71.2542 46.9881 71.3083 47.1871 71.3831 47.4211H61.4991C60.1389 43.4374 58.7798 39.4571 57.4056 35.4316H56.8655C51.3805 35.4316 45.8955 35.4316 40.4105 35.4316C40.0466 35.4316 39.8077 35.5993 39.6938 35.9346C38.7116 38.8361 37.7308 41.7381 36.7471 44.6396C36.4575 45.4946 36.1617 46.3477 35.8667 47.2007C35.8412 47.2755 35.7997 47.3444 35.7596 47.4289H26.4413C26.6339 46.9099 26.8149 46.4156 27.0002 45.9233C27.6257 44.2643 28.2537 42.6057 28.8787 40.9462C29.9184 38.185 30.9547 35.4224 31.9963 32.6617C33.4245 28.8756 34.8575 25.0914 36.2862 21.3058C37.2766 18.6815 38.2617 16.0548 39.2531 13.4311C40.6886 9.63037 42.1274 5.83115 43.5643 2.03095C43.7641 1.50318 43.9649 0.975418 44.1502 0.442313C44.1975 0.305395 44.1864 0.148085 44.2019 0C47.3223 0 50.4427 0 53.5636 0V0.000971048ZM42.3967 27.972C43.0478 28.0832 54.4633 28.0463 54.8243 27.9244C52.7856 21.8879 50.7468 15.8514 48.6969 9.78137C48.4174 10.1635 42.8914 26.162 42.3967 27.972Z" fill="white"/>
<path d="M0.186308 11.2962C0.654009 9.12154 1.70863 7.30228 3.45249 5.91563C4.63164 4.97808 5.96428 4.34738 7.45667 4.13375C9.86951 3.78854 12.1689 4.09248 14.2289 5.51507C15.0273 6.06662 15.6938 6.75607 16.2614 7.59554C15.4761 8.29664 14.714 8.97686 13.922 9.68378C13.7052 9.42742 13.5194 9.21234 13.3389 8.99288C12.0304 7.40521 10.3416 6.76578 8.32836 7.02602C6.79977 7.22314 5.59793 8.01406 4.69825 9.26137C3.22854 11.2996 3.15228 14.6133 4.23537 16.5525C4.9473 17.8275 5.93194 18.765 7.31429 19.2569C8.91383 19.8259 10.4975 19.7453 12.069 19.1408C12.0989 19.1292 12.1308 19.1219 12.1597 19.1088C12.8186 18.8199 13.3041 18.4441 13.1618 17.5891C13.086 17.1332 13.1507 16.654 13.1468 16.1849C13.1458 16.0437 13.1289 15.9024 13.1154 15.696C12.0854 15.6742 11.0791 15.698 10.0394 15.6815V12.8397H16.3184C16.3333 12.9392 16.3628 13.0451 16.3628 13.1504C16.3657 15.3809 16.3618 17.6114 16.3695 19.8419C16.3705 20.09 16.3058 20.2755 16.1113 20.4294C14.8723 21.4121 13.5184 22.137 11.9483 22.4409C10.4642 22.7284 8.97899 22.8026 7.49046 22.5565C4.74024 22.102 2.5837 20.7387 1.16949 18.2795C0.77371 17.5915 0.489904 16.8574 0.30263 16.0854C0.281876 16.0301 0.261121 15.9742 0.240367 15.9189C0.223956 15.8087 0.208028 15.698 0.191618 15.5882C0.126941 15.245 0.0637116 14.8998 0 14.555C0 13.7141 0 12.8732 0 12.0323C0.0622636 11.7871 0.124045 11.5414 0.186308 11.2962Z" fill="white"/>
<path d="M213 46.9618C212.422 46.974 211.845 46.9905 211.268 46.9973C210.77 47.0031 210.272 46.9987 209.709 46.9987C209.667 46.4778 209.693 45.9665 209.688 45.4582C209.684 44.9411 209.687 44.4235 209.687 43.906V40.7534C209.687 40.2373 209.687 39.7217 209.687 39.1493C208.676 39.0624 207.686 39.1197 206.699 39.1095C205.686 39.0988 204.673 39.107 203.66 39.107H200.627V46.9667H197.19V28.6964C197.537 28.6037 199.953 28.5794 200.607 28.6678V35.9773H209.677V28.6241H213V46.9618H213Z" fill="white"/>
<path d="M0 14.555C0.0637116 14.9003 0.126941 15.245 0.190652 15.5897C0.126941 15.6004 0.0637116 15.6111 0 15.6222C0 15.2663 0 14.9109 0 14.555Z" fill="white"/>
<path d="M0.186308 11.2962C0.124045 11.5414 0.0622636 11.7871 0 12.0323C0 11.7735 0 11.5147 0 11.2559C0.0622636 11.2695 0.124045 11.2826 0.186308 11.2962Z" fill="white"/>
<path d="M116.027 47.4993C111.423 47.5318 107.8 44.675 106.63 40.7733C105.646 37.4951 106.147 34.412 108.274 31.7193C110.396 29.0324 113.241 27.9002 116.646 28.1832C118.516 28.3386 120.161 29.0586 121.612 30.2142C122.959 31.2862 123.932 32.6559 124.548 34.2766C125.326 36.3235 125.423 38.4166 124.823 40.5058C124.118 42.9563 122.68 44.8814 120.473 46.1967C118.985 47.0832 117.383 47.5236 116.028 47.4993H116.027ZM115.67 31.2906C114.553 31.2852 113.512 31.5435 112.565 32.1635C111.355 32.9559 110.565 34.0644 110.144 35.434C109.594 37.2285 109.658 39.0133 110.426 40.7321C111.282 42.6455 112.731 43.8385 114.824 44.1599C117.288 44.5381 119.618 43.3393 120.757 41.1093C121.641 39.3789 121.799 37.5553 121.297 35.6938C120.581 33.0356 118.436 31.2537 115.67 31.2911V31.2906Z" fill="white"/>
<path d="M80.8693 22.2258C80.7588 22.2428 80.6661 22.2691 80.573 22.2695C79.6723 22.2729 78.7717 22.2652 77.871 22.2758C77.6345 22.2788 77.4897 22.1914 77.3585 21.9957C76.2725 20.3765 75.1773 18.7631 74.0845 17.1487C73.0825 15.6683 72.0776 14.1899 71.0776 12.7081C70.4105 11.7196 69.7507 10.7262 69.0861 9.73622C68.9992 9.60658 68.9027 9.48326 68.7637 9.36673C68.6821 10.0727 68.7091 10.7728 68.7043 11.471C68.699 12.1823 68.7033 12.8936 68.7033 13.6054V22.1724C68.3336 22.2924 65.9628 22.3157 65.4222 22.2166C65.3261 21.8666 65.3025 4.66492 65.4024 4.0852C65.5197 4.07598 65.6437 4.05753 65.7682 4.05704C66.653 4.05461 67.5377 4.06918 68.4219 4.0483C68.7381 4.04102 68.9017 4.16094 69.0745 4.42021C70.2165 6.13751 71.3816 7.83976 72.5386 9.54686C73.8311 11.4545 75.1232 13.3626 76.4163 15.2702C76.7585 15.7752 77.1041 16.2782 77.4395 16.7705C77.4835 16.7652 77.4984 16.7661 77.511 16.7608C77.5255 16.7545 77.5409 16.7452 77.5496 16.7326C77.5578 16.721 77.5617 16.703 77.5617 16.688C77.5621 12.5018 77.5617 8.31557 77.5617 4.13715C77.9285 4.03811 80.2322 4.01577 80.8689 4.10171V22.2254L80.8693 22.2258Z" fill="white"/>
<path d="M84.7196 22.2715V4.09977C84.8219 4.08423 84.9136 4.05801 85.0053 4.05801C87.465 4.06092 89.9251 4.04781 92.3847 4.07986C93.8786 4.09928 95.3193 4.44594 96.6631 5.09897C98.4924 5.98845 99.7782 7.41104 100.454 9.3444C101.226 11.5521 101.314 13.8185 100.729 16.0709C100.047 18.6961 98.3905 20.5003 95.8638 21.4874C94.4201 22.0511 92.9166 22.2603 91.3808 22.2686C89.3551 22.2797 87.3293 22.2715 85.3031 22.2715H84.7186H84.7196ZM88.1556 7.16682V19.1724C88.341 19.1811 88.4974 19.1942 88.6542 19.1942C89.5061 19.1962 90.358 19.201 91.2095 19.1937C92.1777 19.185 93.1285 19.0724 94.0509 18.7451C95.6258 18.1858 96.7051 17.1395 97.1786 15.5203C97.639 13.9447 97.5999 12.3527 97.1245 10.7908C96.7567 9.58328 96.0631 8.5865 94.9462 7.94269C94.1093 7.46008 93.1932 7.21149 92.2375 7.17313C90.9855 7.12313 89.7315 7.12847 88.4785 7.11487C88.3714 7.1139 88.2638 7.14886 88.1561 7.16682H88.1556Z" fill="white"/>
<path d="M141.154 40.2024H137.953V37.3698C138.306 37.263 143.732 37.23 144.441 37.329C144.453 37.4261 144.476 37.5325 144.476 37.6388C144.478 39.9339 144.473 42.2294 144.483 44.5245C144.484 44.8149 144.381 44.9974 144.162 45.1756C142.442 46.5715 140.474 47.31 138.277 47.4231C137.089 47.4843 135.901 47.4804 134.728 47.2056C132.763 46.7448 131.084 45.8097 129.764 44.2555C128.905 43.2437 128.315 42.0872 127.977 40.8083C127.316 38.3001 127.465 35.8443 128.566 33.4803C129.468 31.5416 130.891 30.1035 132.797 29.1397C134.648 28.2041 136.603 28.0303 138.616 28.3148C140.957 28.6454 142.832 29.7864 144.258 31.6785C144.296 31.7295 144.326 31.7873 144.388 31.8887C143.593 32.5996 142.797 33.3113 141.967 34.0537C141.822 33.8721 141.704 33.725 141.586 33.5769C141.059 32.9161 140.452 32.3456 139.724 31.9135C138.775 31.3503 137.729 31.1944 136.658 31.2721C134.225 31.4489 132.625 32.7855 131.738 35.0165C131.117 36.5799 131.051 38.2015 131.483 39.8198C131.922 41.4672 132.882 42.7441 134.39 43.5661C135.1 43.954 135.856 44.2138 136.674 44.2599C137.774 44.3216 138.859 44.2856 139.899 43.8608C140.017 43.8122 140.141 43.7734 140.256 43.7166C141.155 43.2694 141.184 43.2199 141.184 42.209C141.184 41.708 141.186 41.2069 141.183 40.7059C141.182 40.5636 141.168 40.4218 141.155 40.2029L141.154 40.2024Z" fill="white"/>
<path d="M148.148 28.6192C148.353 28.6192 148.495 28.6192 148.638 28.6192C150.407 28.6192 152.176 28.6003 153.945 28.6284C154.664 28.6401 155.399 28.676 156.098 28.8343C158.925 29.4752 160.64 31.78 160.451 34.6125C160.364 35.9273 159.954 37.1047 159.061 38.0918C158.668 38.5263 158.197 38.8599 157.707 39.1697C157.628 39.2192 157.552 39.2721 157.432 39.3517C158.817 41.8784 160.193 44.3871 161.598 46.9507C161.426 46.973 161.308 47.0017 161.19 47.0021C160.161 47.0055 159.131 46.9958 158.102 47.0099C157.824 47.0138 157.679 46.9254 157.549 46.6662C156.485 44.5498 155.403 42.4431 154.325 40.3344C154.23 40.149 154.122 39.9708 154.016 39.7809H151.443C151.44 40.3898 151.435 40.9816 151.433 41.5735C151.431 42.1717 151.433 42.7698 151.433 43.368V46.9749H148.149V28.6197L148.148 28.6192ZM151.467 36.845C152.623 36.845 153.743 36.8785 154.861 36.8285C155.318 36.8081 155.756 36.5745 156.102 36.241C156.924 35.4491 157.145 34.4848 156.836 33.4055C156.545 32.3893 155.82 31.8101 154.81 31.6455C154.213 31.5484 153.596 31.5765 152.988 31.5625C152.494 31.5508 152 31.56 151.467 31.56V36.845Z" fill="white"/>
<path d="M84.1534 28.6416H87.5755C87.5904 28.7683 87.6146 28.8761 87.6146 28.9839C87.6165 32.8151 87.6431 36.6469 87.604 40.4777C87.5846 42.363 86.9895 44.0691 85.6241 45.4266C84.3889 46.655 82.8787 47.3012 81.1546 47.4503C80.1902 47.5338 79.2244 47.5343 78.2741 47.3308C75.2405 46.6817 73.1071 44.4837 72.7659 41.2812C72.7094 40.7525 72.6901 40.2174 72.6892 39.6853C72.6824 36.1934 72.6858 32.7015 72.6858 29.2101C72.6858 29.0358 72.6858 28.862 72.6858 28.6542H76.1277C76.1363 28.861 76.1508 29.0489 76.1513 29.2368C76.1528 32.5345 76.1417 35.8327 76.1605 39.1303C76.1648 39.8703 76.2261 40.617 76.3439 41.3472C76.4964 42.2887 76.9535 43.0713 77.7803 43.5991C78.9894 44.3711 81.6851 44.4352 82.9323 43.2947C83.4767 42.797 83.8117 42.1678 83.9367 41.4594C84.0627 40.7476 84.1384 40.0174 84.1433 39.2949C84.164 35.9327 84.1524 32.5699 84.1524 29.2077C84.1524 29.0334 84.1524 28.8591 84.1524 28.642L84.1534 28.6416Z" fill="white"/>
<path d="M19.9514 22.2584C19.8539 21.8845 19.8225 5.20191 19.9157 4.47896C20.0296 4.46634 20.1522 4.44109 20.2748 4.44109C22.204 4.4406 24.1337 4.43672 26.0629 4.4474C27.0186 4.45274 27.9443 4.61005 28.8189 5.03343C30.6757 5.93213 31.6927 7.41638 31.8476 9.46821C31.9596 10.9559 31.5768 12.3177 30.6125 13.4835C30.2495 13.9224 29.8064 14.2662 29.3242 14.5623C29.2031 14.6366 29.0824 14.7109 28.912 14.8153C30.2635 17.2842 31.6039 19.7332 32.9746 22.2375C32.8009 22.2608 32.6995 22.2856 32.5981 22.286C31.6014 22.289 30.6043 22.2797 29.6076 22.2928C29.3353 22.2962 29.1746 22.2239 29.0438 21.9617C28.3242 20.5202 27.5813 19.0903 26.8491 17.6551C26.505 16.9807 26.1599 16.3063 25.8312 15.6247C25.6874 15.3265 25.4929 15.2061 25.1526 15.2212C24.499 15.2498 23.8431 15.2294 23.1196 15.2294V22.2579H19.9514V22.2584ZM23.1452 12.4124C24.195 12.4124 25.2187 12.4299 26.2415 12.4013C26.5359 12.393 26.8506 12.2993 27.1156 12.1643C28.5582 11.4283 28.9188 9.34683 27.8275 8.14127C27.2985 7.5567 26.6228 7.30374 25.8534 7.29112C25.1154 7.27898 24.3769 7.2882 23.6385 7.2882C23.4821 7.2882 23.3262 7.2882 23.1452 7.2882V12.4124Z" fill="white"/>
<path d="M179.803 47.0046H178.235C177.624 47.0046 177.013 47.006 176.402 47.0041C175.968 47.0026 175.97 46.9997 175.832 46.5943C175.386 45.2819 174.938 43.9705 174.488 42.6591C174.457 42.5703 174.408 42.4877 174.365 42.3969H167.589C167.069 43.9176 166.553 45.4242 166.015 46.9978C164.848 47.0123 163.668 47.0016 162.41 47.0046C162.55 46.5972 162.661 46.252 162.788 45.9131C163.671 43.5588 164.557 41.2055 165.446 38.8531C166.317 36.5464 167.193 34.2416 168.066 31.9358C168.437 30.956 168.815 29.9787 169.169 28.9931C169.274 28.6998 169.436 28.6076 169.737 28.6134C170.654 28.6314 171.571 28.6178 172.487 28.6207C172.893 28.6221 172.892 28.6265 173.036 29.0106C174.532 32.9768 176.027 36.943 177.523 40.9093C178.24 42.8092 178.957 44.709 179.673 46.6093C179.712 46.7118 179.741 46.8172 179.802 47.0055L179.803 47.0046ZM173.381 39.4551C172.594 37.0887 171.825 34.8038 171.039 32.5248C171.003 32.5277 170.966 32.5306 170.93 32.534C170.149 34.8247 169.367 37.1154 168.568 39.4556H173.381V39.4551Z" fill="white"/>
<path d="M181.914 28.6411C182.017 28.6323 182.096 28.6202 182.175 28.6202C184.104 28.6216 186.033 28.6071 187.962 28.6338C188.926 28.6474 189.877 28.7615 190.777 29.1795C192.306 29.8903 193.373 30.9963 193.814 32.6515C194.181 34.0289 194.182 35.4054 193.628 36.7372C192.997 38.2535 191.866 39.2449 190.325 39.7751C189.497 40.0606 188.646 40.1941 187.768 40.1742C187.078 40.1587 186.386 40.1713 185.695 40.1713C185.538 40.1713 185.382 40.1713 185.189 40.1713V46.9725H181.941C181.838 46.6433 181.806 29.3111 181.914 28.6406L181.914 28.6411ZM185.213 37.1911C185.279 37.2135 185.323 37.2412 185.368 37.2412C186.251 37.2412 187.138 37.2815 188.017 37.2164C188.466 37.1834 188.952 37.0426 189.332 36.8061C190.823 35.8802 190.79 33.8784 190.085 32.82C189.525 31.9795 188.722 31.5727 187.725 31.5474C187.243 31.5353 186.76 31.5435 186.278 31.543C185.929 31.543 185.579 31.543 185.213 31.543V37.1911Z" fill="white"/>
<path d="M105.831 28.6542V31.6766H99.6556V46.9667H96.2099V31.68H90.0433V28.6542H105.831Z" fill="white"/>
<path d="M0.239401 15.9203C0.260156 15.9762 0.28091 16.0315 0.301665 16.0869C0.28091 16.031 0.260156 15.9757 0.239401 15.9203Z" fill="white"/>
<path d="M26.6204 59.9147V54.91H27.2788V56.9651H29.8648V54.91H30.5232V59.9147H29.8648V57.5557H27.2788V59.9147H26.6204Z" fill="white"/>
<path d="M38.5119 57.4772C38.5119 56.6465 38.7336 55.9967 39.1771 55.5279C39.6205 55.0568 40.1929 54.8212 40.8943 54.8212C41.3536 54.8212 41.7676 54.9316 42.1364 55.1523C42.5052 55.3731 42.7857 55.6815 42.9781 56.0775C43.1726 56.4712 43.2699 56.9184 43.2699 57.4191C43.2699 57.9267 43.1681 58.3807 42.9645 58.7813C42.7609 59.1818 42.4724 59.4856 42.0991 59.6928C41.7258 59.8976 41.323 60 40.8909 60C40.4226 60 40.004 59.8862 39.6352 59.6586C39.2664 59.431 38.987 59.1204 38.797 58.7266C38.6069 58.3329 38.5119 57.9164 38.5119 57.4772ZM39.1907 57.4874C39.1907 58.0905 39.3513 58.5662 39.6726 58.9144C39.9961 59.2603 40.4011 59.4333 40.8875 59.4333C41.383 59.4333 41.7903 59.2581 42.1093 58.9076C42.4305 58.5571 42.5912 58.0598 42.5912 57.4157C42.5912 57.0083 42.5222 56.6533 42.3842 56.3506C42.2484 56.0456 42.0482 55.8101 41.7835 55.6439C41.521 55.4755 41.2258 55.3913 40.8977 55.3913C40.4316 55.3913 40.03 55.5529 39.6929 55.8761C39.3581 56.197 39.1907 56.7341 39.1907 57.4874Z" fill="white"/>
<path d="M52.477 59.9147V55.5006H50.8378V54.91H54.7813V55.5006H53.1354V59.9147H52.477Z" fill="white"/>
<path d="M62.563 59.9147V54.91H66.1604V55.5006H63.2214V57.0334H65.9737V57.6206H63.2214V59.3241H66.2757V59.9147H62.563Z" fill="white"/>
<path d="M74.2475 59.9147V54.91H74.9059V59.3241H77.3561V59.9147H74.2475Z" fill="white"/>
<path d="M94.687 59.9147V54.91H95.3623L97.9755 58.8393V54.91H98.6067V59.9147H97.9314L95.3182 55.9819V59.9147H94.687Z" fill="white"/>
<path d="M106.606 57.4772C106.606 56.6465 106.827 55.9967 107.271 55.5279C107.714 55.0568 108.287 54.8212 108.988 54.8212C109.447 54.8212 109.861 54.9316 110.23 55.1523C110.599 55.3731 110.879 55.6815 111.072 56.0775C111.266 56.4712 111.364 56.9184 111.364 57.4191C111.364 57.9267 111.262 58.3807 111.058 58.7813C110.855 59.1818 110.566 59.4856 110.193 59.6928C109.819 59.8976 109.417 60 108.985 60C108.516 60 108.098 59.8862 107.729 59.6586C107.36 59.431 107.081 59.1204 106.891 58.7266C106.701 58.3329 106.606 57.9164 106.606 57.4772ZM107.284 57.4874C107.284 58.0905 107.445 58.5662 107.766 58.9144C108.09 59.2603 108.495 59.4333 108.981 59.4333C109.477 59.4333 109.884 59.2581 110.203 58.9076C110.524 58.5571 110.685 58.0598 110.685 57.4157C110.685 57.0083 110.616 56.6533 110.478 56.3506C110.342 56.0456 110.142 55.8101 109.877 55.6439C109.615 55.4755 109.319 55.3913 108.991 55.3913C108.525 55.3913 108.124 55.5529 107.787 55.8761C107.452 56.197 107.284 56.7341 107.284 57.4874Z" fill="white"/>
<path d="M120.727 59.9147L118.799 54.91H119.512L120.805 58.5457C120.909 58.837 120.996 59.1101 121.066 59.365C121.143 59.0919 121.232 58.8188 121.334 58.5457L122.678 54.91H123.35L121.402 59.9147H120.727Z" fill="white"/>
<path d="M130.83 57.4772C130.83 56.6465 131.051 55.9967 131.495 55.5279C131.938 55.0568 132.511 54.8212 133.212 54.8212C133.671 54.8212 134.085 54.9316 134.454 55.1523C134.823 55.3731 135.104 55.6815 135.296 56.0775C135.49 56.4712 135.588 56.9184 135.588 57.4191C135.588 57.9267 135.486 58.3807 135.282 58.7813C135.079 59.1818 134.79 59.4856 134.417 59.6928C134.044 59.8976 133.641 60 133.209 60C132.74 60 132.322 59.8862 131.953 59.6586C131.584 59.431 131.305 59.1204 131.115 58.7266C130.925 58.3329 130.83 57.9164 130.83 57.4772ZM131.509 57.4874C131.509 58.0905 131.669 58.5662 131.99 58.9144C132.314 59.2603 132.719 59.4333 133.205 59.4333C133.701 59.4333 134.108 59.2581 134.427 58.9076C134.748 58.5571 134.909 58.0598 134.909 57.4157C134.909 57.0083 134.84 56.6533 134.702 56.3506C134.566 56.0456 134.366 55.8101 134.101 55.6439C133.839 55.4755 133.544 55.3913 133.216 55.3913C132.749 55.3913 132.348 55.5529 132.011 55.8761C131.676 56.197 131.509 56.7341 131.509 57.4874Z" fill="white"/>
<path d="M143.305 58.3067L143.926 58.2521C143.955 58.5025 144.023 58.7084 144.13 58.87C144.238 59.0293 144.406 59.1591 144.632 59.2592C144.858 59.3571 145.113 59.406 145.396 59.406C145.647 59.406 145.868 59.3684 146.061 59.2933C146.253 59.2182 146.396 59.1158 146.488 58.9861C146.583 58.8541 146.631 58.7107 146.631 58.5559C146.631 58.3989 146.586 58.2624 146.495 58.1463C146.405 58.0279 146.255 57.9289 146.047 57.8493C145.914 57.7969 145.618 57.7161 145.161 57.6069C144.704 57.4954 144.384 57.3907 144.201 57.2928C143.963 57.1676 143.786 57.0129 143.668 56.8285C143.553 56.6419 143.495 56.4337 143.495 56.2038C143.495 55.9512 143.566 55.7156 143.709 55.4971C143.851 55.2764 144.06 55.1091 144.333 54.9953C144.607 54.8815 144.911 54.8246 145.246 54.8246C145.615 54.8246 145.94 54.8849 146.22 55.0056C146.503 55.1239 146.72 55.2991 146.872 55.5313C147.023 55.7634 147.105 56.0263 147.116 56.3199L146.485 56.3677C146.451 56.0513 146.336 55.8124 146.139 55.6508C145.944 55.4892 145.656 55.4084 145.273 55.4084C144.875 55.4084 144.584 55.4823 144.401 55.6303C144.22 55.7759 144.13 55.9523 144.13 56.1594C144.13 56.3392 144.194 56.4872 144.323 56.6032C144.45 56.7193 144.78 56.8388 145.314 56.9617C145.85 57.0823 146.218 57.1881 146.417 57.2792C146.707 57.4134 146.92 57.5841 147.058 57.7912C147.196 57.9961 147.265 58.2328 147.265 58.5013C147.265 58.7676 147.19 59.0191 147.038 59.2558C146.887 59.4902 146.668 59.6734 146.383 59.8054C146.1 59.9351 145.781 60 145.426 60C144.976 60 144.598 59.934 144.293 59.802C143.989 59.67 143.751 59.472 143.576 59.208C143.405 58.9417 143.314 58.6413 143.305 58.3067Z" fill="white"/>
<path d="M155.366 59.9147V54.91H156.025V59.9147H155.366Z" fill="white"/>
<path d="M164.251 59.9147V54.91H166.117C166.497 54.91 166.802 54.9612 167.03 55.0636C167.261 55.1637 167.441 55.3196 167.57 55.5313C167.701 55.7407 167.767 55.9603 167.767 56.1902C167.767 56.4041 167.709 56.6055 167.594 56.7944C167.478 56.9833 167.304 57.1358 167.071 57.2519C167.372 57.3406 167.603 57.492 167.763 57.7059C167.926 57.9198 168.008 58.1725 168.008 58.4638C168.008 58.6982 167.958 58.9167 167.858 59.1192C167.761 59.3195 167.64 59.4743 167.495 59.5835C167.35 59.6928 167.168 59.7758 166.949 59.8327C166.732 59.8873 166.465 59.9147 166.148 59.9147H164.251ZM164.909 57.0129H165.985C166.277 57.0129 166.486 56.9935 166.613 56.9549C166.78 56.9048 166.906 56.8217 166.99 56.7056C167.076 56.5896 167.119 56.4439 167.119 56.2687C167.119 56.1025 167.079 55.9569 167 55.8317C166.921 55.7043 166.807 55.6178 166.66 55.5722C166.513 55.5245 166.261 55.5006 165.904 55.5006H164.909V57.0129ZM164.909 59.3241H166.148C166.361 59.3241 166.51 59.3161 166.596 59.3002C166.747 59.2729 166.874 59.2273 166.976 59.1636C167.078 59.0999 167.161 59.0077 167.227 58.8871C167.293 58.7642 167.326 58.6231 167.326 58.4638C167.326 58.2771 167.278 58.1156 167.183 57.979C167.088 57.8402 166.956 57.7435 166.786 57.6888C166.618 57.6319 166.376 57.6035 166.06 57.6035H164.909V59.3241Z" fill="white"/>
<path d="M176.115 59.9147V54.91H176.774V59.9147H176.115Z" fill="white"/>
<path d="M185.037 59.9147V54.91H187.243C187.687 54.91 188.024 54.9555 188.254 55.0465C188.485 55.1353 188.67 55.2934 188.808 55.521C188.946 55.7486 189.015 56.0001 189.015 56.2755C189.015 56.6305 188.9 56.9298 188.672 57.1733C188.443 57.4169 188.09 57.5716 187.613 57.6376C187.787 57.7218 187.92 57.8049 188.01 57.8868C188.202 58.0644 188.384 58.2863 188.556 58.5525L189.422 59.9147H188.594L187.935 58.8734C187.743 58.573 187.585 58.3431 187.46 58.1838C187.336 58.0245 187.224 57.913 187.124 57.8493C187.027 57.7856 186.927 57.7412 186.826 57.7161C186.751 57.7002 186.629 57.6922 186.459 57.6922H185.696V59.9147H185.037ZM185.696 57.1187H187.111C187.412 57.1187 187.647 57.088 187.817 57.0265C187.986 56.9628 188.115 56.8627 188.203 56.7261C188.292 56.5873 188.336 56.4371 188.336 56.2755C188.336 56.0388 188.25 55.8442 188.078 55.6917C187.908 55.5392 187.639 55.463 187.27 55.463H185.696V57.1187Z" fill="white"/>
<path d="M196.915 58.3067L197.536 58.2521C197.566 58.5025 197.633 58.7084 197.74 58.87C197.848 59.0293 198.016 59.1591 198.242 59.2592C198.468 59.3571 198.723 59.406 199.006 59.406C199.257 59.406 199.478 59.3684 199.671 59.2933C199.863 59.2182 200.006 59.1158 200.098 58.9861C200.193 58.8541 200.241 58.7107 200.241 58.5559C200.241 58.3989 200.196 58.2624 200.105 58.1463C200.015 58.0279 199.865 57.9289 199.657 57.8493C199.524 57.7969 199.228 57.7161 198.771 57.6069C198.314 57.4954 197.994 57.3907 197.811 57.2928C197.573 57.1676 197.396 57.0129 197.278 56.8285C197.163 56.6419 197.105 56.4337 197.105 56.2038C197.105 55.9512 197.176 55.7156 197.319 55.4971C197.461 55.2764 197.67 55.1091 197.943 54.9953C198.217 54.8815 198.521 54.8246 198.856 54.8246C199.225 54.8246 199.55 54.8849 199.83 55.0056C200.113 55.1239 200.33 55.2991 200.482 55.5313C200.633 55.7634 200.715 56.0263 200.726 56.3199L200.095 56.3677C200.061 56.0513 199.946 55.8124 199.749 55.6508C199.554 55.4892 199.266 55.4084 198.883 55.4084C198.485 55.4084 198.194 55.4823 198.011 55.6303C197.83 55.7759 197.74 55.9523 197.74 56.1594C197.74 56.3392 197.804 56.4872 197.933 56.6032C198.06 56.7193 198.39 56.8388 198.924 56.9617C199.46 57.0823 199.828 57.1881 200.027 57.2792C200.317 57.4134 200.531 57.5841 200.669 57.7912C200.807 57.9961 200.876 58.2328 200.876 58.5013C200.876 58.7676 200.8 59.0191 200.648 59.2558C200.497 59.4902 200.278 59.6734 199.993 59.8054C199.71 59.9351 199.391 60 199.036 60C198.586 60 198.208 59.934 197.903 59.802C197.599 59.67 197.361 59.472 197.187 59.208C197.015 58.9417 196.924 58.6413 196.915 58.3067Z" fill="white"/>
<path d="M208.837 59.9147V54.91H209.495V57.3918L211.966 54.91H212.859L210.772 56.9378L212.95 59.9147H212.081L210.31 57.3816L209.495 58.1804V59.9147H208.837Z" fill="white"/>
</svg>
