<svg width="169" height="48" viewBox="0 0 169 48" fill="none" xmlns="http://www.w3.org/2000/svg">
<path d="M42.4988 0.000776839C42.6949 0.558547 42.8833 1.11942 43.089 1.6737C43.5244 2.84517 43.9702 4.01276 44.4094 5.18268C45.0842 6.9799 45.7582 8.77711 46.4307 10.5755C46.9584 11.9874 47.4823 13.4005 48.0096 14.8124C48.8031 16.937 49.5989 19.0609 50.3924 21.1856C51.0595 22.9719 51.7224 24.7594 52.3907 26.5454C52.9547 28.0536 53.5234 29.5603 54.0895 31.0677C54.8864 33.1904 55.6829 35.3135 56.4776 37.437C56.535 37.5904 56.5779 37.7497 56.6373 37.9369H48.7951C47.7159 34.7499 46.6375 31.5657 45.5472 28.3453H45.1186C40.7667 28.3453 36.4148 28.3453 32.0628 28.3453C31.7741 28.3453 31.5845 28.4794 31.4941 28.7477C30.7148 31.0689 29.9366 33.3905 29.1562 35.7117C28.9264 36.3957 28.6916 37.0781 28.4577 37.7606C28.4374 37.8204 28.4044 37.8755 28.3726 37.9431H20.9792C21.132 37.5279 21.2756 37.1325 21.4227 36.7386C21.919 35.4114 22.4172 34.0846 22.9132 32.757C23.7381 30.548 24.5603 28.3379 25.3867 26.1294C26.5199 23.1005 27.6569 20.0731 28.7904 17.0446C29.5763 14.9452 30.3579 12.8439 31.1445 10.7448C32.2834 7.7043 33.425 4.66492 34.5651 1.62476C34.7236 1.20255 34.8829 0.780334 35.03 0.35385C35.0675 0.244316 35.0587 0.118468 35.071 0C37.5468 0 40.0226 0.000776839 42.4988 0.000776839ZM33.6387 22.3776C34.1553 22.4666 43.2127 22.437 43.4991 22.3396C41.8815 17.5103 40.2639 12.6811 38.6375 7.8251C38.4157 8.13078 34.0312 20.9296 33.6387 22.3776Z" fill="white"/>
<path d="M0.147822 9.03696C0.518909 7.29723 1.35567 5.84183 2.7393 4.7325C3.67487 3.98246 4.73222 3.47791 5.91633 3.307C7.83074 3.03084 9.65515 3.27399 11.2896 4.41206C11.923 4.8533 12.4519 5.40486 12.9023 6.07643C12.2792 6.63731 11.6745 7.18148 11.0461 7.74702C10.8741 7.54194 10.7267 7.36987 10.5834 7.1943C9.54524 5.92417 8.20527 5.41262 6.60795 5.62082C5.39512 5.77851 4.44155 6.41125 3.72772 7.4091C2.56161 9.03968 2.5011 11.6906 3.36046 13.242C3.92533 14.262 4.70656 15.012 5.80335 15.4055C7.07248 15.8607 8.32897 15.7962 9.57588 15.3127C9.59962 15.3033 9.6249 15.2975 9.64787 15.287C10.1706 15.0559 10.5559 14.7553 10.4429 14.0713C10.3828 13.7065 10.4341 13.3232 10.431 12.948C10.4303 12.8349 10.4169 12.7219 10.4061 12.5568C9.5889 12.5393 8.79043 12.5584 7.96554 12.5452V10.2717H12.9474C12.9593 10.3514 12.9827 10.436 12.9827 10.5203C12.985 12.3047 12.9819 14.0891 12.988 15.8735C12.9888 16.072 12.9375 16.2204 12.7832 16.3435C11.8001 17.1297 10.7259 17.7096 9.48014 17.9527C8.30254 18.1827 7.12418 18.2421 5.94313 18.0452C3.76104 17.6816 2.04998 16.5909 0.927909 14.6236C0.613883 14.0732 0.388703 13.4859 0.240115 12.8683C0.223648 12.8241 0.207181 12.7794 0.190713 12.7351C0.177693 12.6469 0.165055 12.5584 0.152035 12.4706C0.100718 12.196 0.0505505 11.9198 0 11.644C0 10.9713 0 10.2986 0 9.62581C0.0494017 9.42966 0.0984204 9.23312 0.147822 9.03696Z" fill="white"/>
<path d="M169 37.5695C168.542 37.5792 168.084 37.5924 167.626 37.5978C167.231 37.6025 166.836 37.599 166.389 37.599C166.356 37.1822 166.376 36.7732 166.373 36.3665C166.369 35.9529 166.372 35.5388 166.372 35.1248V32.6028C166.372 32.1899 166.372 31.7774 166.372 31.3194C165.569 31.2499 164.784 31.2957 164.001 31.2876C163.197 31.279 162.393 31.2856 161.589 31.2856H159.183V37.5734H156.456V22.9571C156.732 22.8829 158.648 22.8635 159.167 22.9342V28.7819H166.364V22.8993H169L169 37.5695Z" fill="white"/>
<path d="M0 11.644C0.0505505 11.9202 0.100718 12.196 0.151269 12.4718C0.100718 12.4803 0.0505505 12.4888 0 12.4978C0 12.2131 0 11.9287 0 11.644Z" fill="white"/>
<path d="M0.147822 9.03696C0.0984204 9.23312 0.0494017 9.42966 0 9.62581C0 9.41878 0 9.21175 0 9.00473C0.0494017 9.0156 0.0984204 9.02609 0.147822 9.03696Z" fill="white"/>
<path d="M92.059 37.9995C88.406 38.0255 85.5315 35.74 84.6028 32.6187C83.8224 29.9961 84.2202 27.5296 85.9076 25.3754C87.591 23.2259 89.8486 22.3201 92.55 22.5466C94.0336 22.6709 95.3391 23.2469 96.4902 24.1713C97.5587 25.029 98.3311 26.1247 98.8198 27.4212C99.4367 29.0588 99.5141 30.7333 99.0377 32.4047C98.4786 34.365 97.3374 35.9051 95.5865 36.9573C94.4062 37.6666 93.1344 38.0189 92.059 37.9995ZM91.776 25.0325C90.8891 25.0282 90.0634 25.2348 89.3121 25.7308C88.3524 26.3647 87.7251 27.2515 87.3915 28.3472C86.9546 29.7828 87.0055 31.2107 87.6152 32.5857C88.2938 34.1164 89.4442 35.0708 91.1047 35.3279C93.0593 35.6305 94.9082 34.6715 95.812 32.8875C96.5132 31.5031 96.6388 30.0442 96.2406 28.555C95.6722 26.4284 93.97 25.0026 91.776 25.0325Z" fill="white"/>
<path d="M64.1639 17.7807C64.0762 17.7943 64.0027 17.8152 63.9288 17.8156C63.2142 17.8183 62.4996 17.8121 61.785 17.8207C61.5974 17.823 61.4825 17.7531 61.3783 17.5966C60.5166 16.3012 59.6477 15.0105 58.7807 13.719C57.9857 12.5347 57.1884 11.3519 56.3949 10.1665C55.8656 9.37567 55.3421 8.58096 54.8148 7.78897C54.7458 7.68526 54.6693 7.58661 54.559 7.49339C54.4942 8.05815 54.5157 8.61825 54.5119 9.1768C54.5076 9.74583 54.5111 10.3149 54.5111 10.8843V17.7379C54.2177 17.8339 52.3366 17.8525 51.9077 17.7733C51.8315 17.4932 51.8128 3.73193 51.892 3.26816C51.9851 3.26078 52.0835 3.24602 52.1823 3.24563C52.8843 3.24369 53.5862 3.25534 54.2878 3.23864C54.5387 3.23281 54.6685 3.32875 54.8056 3.53617C55.7117 4.91001 56.6361 6.27181 57.5541 7.63749C58.5796 9.16359 59.6048 10.6901 60.6308 12.2162C60.9023 12.6201 61.1765 13.0225 61.4426 13.4164C61.4775 13.4121 61.4894 13.4129 61.4993 13.4086C61.5108 13.4036 61.5231 13.3962 61.53 13.3861C61.5365 13.3768 61.5395 13.3624 61.5395 13.3504C61.5399 10.0014 61.5395 6.65246 61.5395 3.30972C61.8306 3.23048 63.6584 3.21262 64.1636 3.28137L64.1639 17.7807Z" fill="white"/>
<path d="M67.2188 17.8172V3.27981C67.3 3.26738 67.3728 3.24641 67.4455 3.24641C69.3971 3.24874 71.349 3.23825 73.3006 3.26389C74.4858 3.27942 75.629 3.55676 76.6951 4.07918C78.1465 4.79076 79.1667 5.92883 79.7029 7.47552C80.3156 9.24166 80.3857 11.0548 79.9212 12.8567C79.3797 14.9569 78.0657 16.4002 76.0609 17.1899C74.9155 17.6408 73.7226 17.8082 72.504 17.8149C70.8967 17.8238 69.2895 17.8172 67.6818 17.8172H67.2188ZM69.9451 5.73346V15.3379C70.0921 15.3449 70.2162 15.3554 70.3407 15.3554C71.0166 15.3569 71.6925 15.3608 72.3681 15.355C73.1363 15.348 73.8907 15.2579 74.6225 14.9961C75.8721 14.5486 76.7284 13.7116 77.1041 12.4162C77.4695 11.1558 77.4384 9.88216 77.0612 8.63262C76.7694 7.66662 76.2191 6.8692 75.3329 6.35415C74.6689 5.96806 73.942 5.76919 73.1838 5.73851C72.1904 5.6985 71.1954 5.70277 70.2013 5.6919C70.1163 5.69112 70.0305 5.71909 69.9451 5.73346Z" fill="white"/>
<path d="M111.995 32.1619H109.455V29.8959C109.736 29.8104 114.041 29.784 114.604 29.8632C114.613 29.9409 114.631 30.026 114.631 30.111C114.633 31.9471 114.629 33.7835 114.637 35.6196C114.638 35.8519 114.556 35.9979 114.382 36.1405C113.018 37.2572 111.456 37.848 109.713 37.9385C108.77 37.9874 107.827 37.9843 106.897 37.7645C105.338 37.3958 104.006 36.6478 102.958 35.4044C102.276 34.595 101.808 33.6697 101.541 32.6466C101.016 30.6401 101.134 28.6754 102.008 26.7842C102.724 25.2333 103.853 24.0828 105.365 23.3118C106.833 22.5633 108.384 22.4242 109.982 22.6518C111.839 22.9164 113.327 23.8291 114.458 25.3428C114.489 25.3836 114.512 25.4298 114.561 25.511C113.931 26.0796 113.299 26.6491 112.641 27.243C112.525 27.0977 112.432 26.98 112.338 26.8615C111.92 26.3329 111.439 25.8765 110.861 25.5308C110.108 25.0802 109.278 24.9556 108.428 25.0177C106.498 25.1591 105.229 26.2284 104.525 28.0132C104.031 29.2639 103.98 30.5612 104.322 31.8558C104.671 33.1737 105.432 34.1953 106.628 34.8529C107.192 35.1632 107.792 35.371 108.441 35.4079C109.314 35.4572 110.175 35.4285 110.999 35.0886C111.094 35.0498 111.192 35.0187 111.283 34.9733C111.996 34.6155 112.019 34.5759 112.019 33.7672C112.019 33.3664 112.021 32.9655 112.018 32.5647C112.018 32.4509 112.007 32.3375 111.997 32.1623L111.995 32.1619Z" fill="white"/>
<path d="M117.545 22.8954C117.707 22.8954 117.82 22.8954 117.934 22.8954C119.337 22.8954 120.741 22.8802 122.144 22.9028C122.715 22.9121 123.298 22.9408 123.852 23.0674C126.095 23.5802 127.456 25.424 127.307 27.69C127.237 28.7419 126.912 29.6838 126.203 30.4734C125.891 30.8211 125.518 31.0879 125.129 31.3357C125.067 31.3753 125.006 31.4177 124.911 31.4814C126.01 33.5027 127.101 35.5097 128.216 37.5605C128.08 37.5784 127.986 37.6013 127.892 37.6017C127.076 37.6044 126.259 37.5967 125.443 37.6079C125.222 37.611 125.107 37.5403 125.004 37.3329C124.16 35.6398 123.301 33.9544 122.445 32.2675C122.37 32.1192 122.284 31.9766 122.2 31.8247H120.159C120.157 32.3118 120.153 32.7853 120.151 33.2588C120.15 33.7373 120.151 34.2159 120.151 34.6944V37.58H117.545L117.545 22.8954ZM120.178 29.476C121.095 29.476 121.984 29.5028 122.871 29.4628C123.234 29.4465 123.581 29.2596 123.856 28.9928C124.507 28.3593 124.683 27.5879 124.438 26.7244C124.207 25.9115 123.632 25.4481 122.83 25.3164C122.357 25.2387 121.867 25.2612 121.384 25.25C120.993 25.2407 120.601 25.248 120.178 25.248V29.476Z" fill="white"/>
<path d="M66.7696 22.9132H69.4848C69.4966 23.0146 69.5158 23.1009 69.5158 23.1871C69.5173 26.2521 69.5384 29.3175 69.5074 32.3821C69.492 33.8904 69.0199 35.2553 67.9365 36.3413C66.9565 37.324 65.7582 37.841 64.3903 37.9602C63.6251 38.027 62.8588 38.0274 62.1048 37.8647C59.6979 37.3454 58.0052 35.587 57.7345 33.025C57.6896 32.602 57.6743 32.1739 57.6736 31.7482C57.6682 28.9547 57.6709 26.1612 57.6709 23.3681C57.6709 23.2286 57.6709 23.0896 57.6709 22.9233H60.4018C60.4086 23.0888 60.4201 23.2391 60.4205 23.3894C60.4217 26.0276 60.4129 28.6661 60.4278 31.3043C60.4312 31.8962 60.4799 32.4936 60.5733 33.0778C60.6943 33.8309 61.057 34.4571 61.713 34.8793C62.6723 35.4969 64.8111 35.5481 65.8007 34.6357C66.2327 34.2376 66.4985 33.7342 66.5976 33.1675C66.6976 32.5981 66.7577 32.0139 66.7616 31.4359C66.778 28.7461 66.7688 26.0559 66.7688 23.3661C66.7688 23.2267 66.7696 23.0869 66.7696 22.9132Z" fill="white"/>
<path d="M15.83 17.8067C15.7526 17.5076 15.7277 4.16152 15.8016 3.58317C15.892 3.57307 15.9893 3.55287 16.0866 3.55287C17.6172 3.55248 19.1483 3.54938 20.679 3.55792C21.4373 3.56219 22.1718 3.68804 22.8657 4.02674C24.3389 4.74571 25.1458 5.93311 25.2688 7.57457C25.3576 8.76468 25.0539 9.8542 24.2888 10.7868C24.0008 11.1379 23.6492 11.4129 23.2666 11.6499C23.1705 11.7093 23.0748 11.7687 22.9396 11.8522C24.0119 13.8273 25.0754 15.7865 26.163 17.79C26.0251 17.8086 25.9447 17.8284 25.8643 17.8288C25.0734 17.8312 24.2823 17.8238 23.4914 17.8343C23.2755 17.837 23.1479 17.7791 23.0441 17.5694C22.4732 16.4162 21.8838 15.2723 21.3028 14.1241C21.0298 13.5846 20.756 13.0451 20.4952 12.4997C20.3811 12.2612 20.2267 12.1649 19.9567 12.1769C19.4382 12.1999 18.9178 12.1835 18.3437 12.1835V17.8063L15.83 17.8067ZM18.364 9.92994C19.1969 9.92994 20.0092 9.94392 20.8207 9.92101C21.0543 9.9144 21.304 9.83944 21.5142 9.73146C22.6589 9.14261 22.945 7.47746 22.0791 6.51302C21.6594 6.04536 21.1232 5.84299 20.5128 5.83289C19.9273 5.82318 19.3413 5.83056 18.7554 5.83056C18.6313 5.83056 18.5076 5.83056 18.364 5.83056V9.92994Z" fill="white"/>
<path d="M142.66 37.6036H141.417C140.932 37.6036 140.447 37.6048 139.962 37.6033C139.618 37.6021 139.619 37.5998 139.51 37.2754C139.156 36.2255 138.8 35.1764 138.443 34.1273C138.419 34.0562 138.38 33.9902 138.346 33.9176H132.969C132.557 35.1341 132.148 36.3393 131.721 37.5982C130.795 37.6099 129.859 37.6013 128.86 37.6036C128.972 37.2778 129.059 37.0016 129.16 36.7305C129.861 34.847 130.564 32.9644 131.269 31.0825C131.96 29.2371 132.655 27.3933 133.348 25.5487C133.642 24.7648 133.942 23.9829 134.223 23.1945C134.307 22.9599 134.435 22.8861 134.674 22.8907C135.401 22.9051 136.129 22.8942 136.856 22.8965C137.178 22.8977 137.177 22.9012 137.292 23.2084C138.478 26.3814 139.665 29.5544 140.851 32.7274C141.42 34.2473 141.99 35.7672 142.557 37.2875C142.588 37.3694 142.612 37.4529 142.66 37.6036ZM137.565 31.5641C136.941 29.671 136.331 27.8431 135.707 26.0198C135.678 26.0222 135.649 26.0245 135.621 26.0272C135.001 27.8598 134.38 29.6923 133.747 31.5645L137.565 31.5641Z" fill="white"/>
<path d="M144.335 22.9129C144.417 22.9059 144.48 22.8962 144.542 22.8962C146.073 22.8973 147.604 22.8857 149.134 22.907C149.899 22.9179 150.654 23.0092 151.368 23.3436C152.581 23.9123 153.427 24.7971 153.777 26.1212C154.068 27.2231 154.07 28.3243 153.63 29.3897C153.129 30.6028 152.231 31.3959 151.009 31.8201C150.352 32.0485 149.677 32.1553 148.98 32.1394C148.432 32.1269 147.884 32.137 147.335 32.137C147.211 32.137 147.087 32.137 146.934 32.137V37.578H144.357C144.275 37.3147 144.249 23.4493 144.335 22.9129ZM146.953 29.7529C147.006 29.7708 147.04 29.7929 147.076 29.7929C147.777 29.7929 148.481 29.8252 149.178 29.7731C149.534 29.7467 149.919 29.6341 150.221 29.4449C151.404 28.7042 151.378 27.1027 150.819 26.256C150.374 25.5836 149.737 25.2581 148.946 25.2379C148.564 25.2282 148.181 25.2348 147.798 25.2344C147.521 25.2344 147.244 25.2344 146.953 25.2344V29.7529Z" fill="white"/>
<path d="M83.9694 22.9233V25.3413H79.0695V37.5734H76.3355V25.344H71.4428V22.9233H83.9694Z" fill="white"/>
<path d="M21.1214 47.9317V43.928H21.6437V45.5721H23.6956V43.928H24.2179V47.9317H23.6956V46.0446H21.6437V47.9317H21.1214Z" fill="white"/>
<path d="M30.5564 45.9817C30.5564 45.3172 30.7323 44.7974 31.0842 44.4223C31.436 44.0454 31.8902 43.857 32.4467 43.857C32.8111 43.857 33.1396 43.9453 33.4322 44.1219C33.7248 44.2985 33.9474 44.5452 34.1 44.862C34.2543 45.177 34.3315 45.5347 34.3315 45.9353C34.3315 46.3413 34.2507 46.7046 34.0892 47.025C33.9276 47.3455 33.6988 47.5885 33.4026 47.7542C33.1064 47.9181 32.7868 48 32.444 48C32.0724 48 31.7403 47.909 31.4477 47.7269C31.1551 47.5448 30.9334 47.2963 30.7826 46.9813C30.6318 46.6663 30.5564 46.3331 30.5564 45.9817ZM31.0949 45.9899C31.0949 46.4724 31.2224 46.8529 31.4773 47.1315C31.734 47.4083 32.0553 47.5466 32.4413 47.5466C32.8344 47.5466 33.1575 47.4064 33.4106 47.1261C33.6655 46.8457 33.793 46.4478 33.793 45.9326C33.793 45.6067 33.7382 45.3226 33.6287 45.0805C33.521 44.8365 33.3622 44.6481 33.1521 44.5152C32.9439 44.3804 32.7096 44.313 32.4493 44.313C32.0796 44.313 31.7609 44.4423 31.4934 44.7009C31.2278 44.9576 31.0949 45.3873 31.0949 45.9899Z" fill="white"/>
<path d="M41.6367 47.9317V44.4004H40.3361V43.928H43.465V44.4004H42.159V47.9317H41.6367Z" fill="white"/>
<path d="M49.6392 47.9317V43.928H52.4934V44.4004H50.1616V45.6267H52.3453V46.0964H50.1616V47.4592H52.585V47.9317H49.6392Z" fill="white"/>
<path d="M58.91 47.9317V43.928H59.4323V47.4592H61.3765V47.9317H58.91Z" fill="white"/>
<path d="M75.1272 47.9317V43.928H75.6631L77.7364 47.0714V43.928H78.2373V47.9317H77.7014L75.6281 44.7855V47.9317H75.1272Z" fill="white"/>
<path d="M84.5838 45.9817C84.5838 45.3172 84.7597 44.7974 85.1115 44.4223C85.4634 44.0454 85.9176 43.857 86.474 43.857C86.8385 43.857 87.167 43.9453 87.4596 44.1219C87.7522 44.2985 87.9748 44.5452 88.1273 44.862C88.2817 45.177 88.3589 45.5347 88.3589 45.9353C88.3589 46.3413 88.2781 46.7046 88.1166 47.025C87.955 47.3455 87.7261 47.5885 87.4299 47.7542C87.1338 47.9181 86.8142 48 86.4714 48C86.0998 48 85.7677 47.909 85.4751 47.7269C85.1825 47.5448 84.9608 47.2963 84.81 46.9813C84.6592 46.6663 84.5838 46.3331 84.5838 45.9817ZM85.1223 45.9899C85.1223 46.4724 85.2498 46.8529 85.5047 47.1315C85.7614 47.4083 86.0827 47.5466 86.4687 47.5466C86.8618 47.5466 87.1849 47.4064 87.438 47.1261C87.6929 46.8457 87.8204 46.4478 87.8204 45.9326C87.8204 45.6067 87.7656 45.3226 87.6561 45.0805C87.5484 44.8365 87.3896 44.6481 87.1795 44.5152C86.9713 44.3804 86.737 44.313 86.4767 44.313C86.1069 44.313 85.7883 44.4423 85.5208 44.7009C85.2552 44.9576 85.1223 45.3873 85.1223 45.9899Z" fill="white"/>
<path d="M95.7879 47.9317L94.2585 43.928H94.8239L95.8498 46.8366C95.9324 47.0696 96.0015 47.2881 96.0572 47.492C96.1182 47.2735 96.1891 47.055 96.2699 46.8366L97.3362 43.928H97.8693L96.3237 47.9317H95.7879Z" fill="white"/>
<path d="M103.804 45.9817C103.804 45.3172 103.98 44.7974 104.332 44.4223C104.684 44.0454 105.138 43.857 105.694 43.857C106.059 43.857 106.387 43.9453 106.68 44.1219C106.972 44.2985 107.195 44.5452 107.347 44.862C107.502 45.177 107.579 45.5347 107.579 45.9353C107.579 46.3413 107.498 46.7046 107.337 47.025C107.175 47.3455 106.946 47.5885 106.65 47.7542C106.354 47.9181 106.034 48 105.691 48C105.32 48 104.988 47.909 104.695 47.7269C104.403 47.5448 104.181 47.2963 104.03 46.9813C103.879 46.6663 103.804 46.3331 103.804 45.9817ZM104.342 45.9899C104.342 46.4724 104.47 46.8529 104.725 47.1315C104.982 47.4083 105.303 47.5466 105.689 47.5466C106.082 47.5466 106.405 47.4064 106.658 47.1261C106.913 46.8457 107.041 46.4478 107.041 45.9326C107.041 45.6067 106.986 45.3226 106.876 45.0805C106.769 44.8365 106.61 44.6481 106.4 44.5152C106.191 44.3804 105.957 44.313 105.697 44.313C105.327 44.313 105.008 44.4423 104.741 44.7009C104.475 44.9576 104.342 45.3873 104.342 45.9899Z" fill="white"/>
<path d="M113.702 46.6454L114.195 46.6017C114.218 46.802 114.272 46.9667 114.356 47.096C114.443 47.2235 114.575 47.3272 114.755 47.4074C114.934 47.4856 115.136 47.5248 115.361 47.5248C115.56 47.5248 115.736 47.4947 115.889 47.4347C116.041 47.3746 116.154 47.2927 116.228 47.1889C116.303 47.0833 116.341 46.9686 116.341 46.8448C116.341 46.7191 116.305 46.6099 116.233 46.517C116.161 46.4224 116.043 46.3431 115.878 46.2794C115.772 46.2375 115.538 46.1729 115.175 46.0855C114.812 45.9963 114.558 45.9125 114.413 45.8343C114.224 45.7341 114.084 45.6103 113.99 45.4628C113.899 45.3135 113.853 45.1469 113.853 44.963C113.853 44.7609 113.909 44.5725 114.023 44.3977C114.136 44.2211 114.301 44.0873 114.518 43.9962C114.735 43.9052 114.977 43.8597 115.242 43.8597C115.535 43.8597 115.792 43.9079 116.015 44.0044C116.239 44.0991 116.412 44.2393 116.532 44.425C116.652 44.6107 116.717 44.821 116.726 45.0559L116.225 45.0941C116.198 44.8411 116.107 44.6499 115.95 44.5206C115.796 44.3913 115.567 44.3267 115.264 44.3267C114.948 44.3267 114.717 44.3859 114.572 44.5042C114.428 44.6208 114.356 44.7619 114.356 44.9275C114.356 45.0714 114.408 45.1897 114.51 45.2826C114.61 45.3754 114.872 45.471 115.296 45.5693C115.722 45.6658 116.013 45.7505 116.171 45.8233C116.401 45.9308 116.571 46.0673 116.68 46.233C116.79 46.3969 116.844 46.5862 116.844 46.8011C116.844 47.0141 116.784 47.2153 116.664 47.4046C116.544 47.5922 116.371 47.7387 116.144 47.8443C115.92 47.9481 115.667 48 115.385 48C115.028 48 114.728 47.9472 114.486 47.8416C114.245 47.736 114.056 47.5776 113.917 47.3664C113.781 47.1534 113.709 46.913 113.702 46.6454Z" fill="white"/>
<path d="M123.272 47.9317V43.928H123.794V47.9317H123.272Z" fill="white"/>
<path d="M130.321 47.9317V43.928H131.802C132.104 43.928 132.345 43.9689 132.526 44.0509C132.709 44.131 132.852 44.2557 132.954 44.425C133.059 44.5925 133.111 44.7682 133.111 44.9521C133.111 45.1233 133.065 45.2844 132.973 45.4355C132.882 45.5866 132.744 45.7086 132.559 45.8015C132.797 45.8725 132.981 45.9936 133.108 46.1647C133.237 46.3359 133.302 46.538 133.302 46.771C133.302 46.9585 133.262 47.1333 133.183 47.2954C133.106 47.4556 133.01 47.5794 132.895 47.6668C132.78 47.7542 132.636 47.8207 132.462 47.8662C132.289 47.9099 132.078 47.9317 131.826 47.9317H130.321ZM130.843 45.6103H131.697C131.929 45.6103 132.095 45.5948 132.195 45.5639C132.328 45.5238 132.428 45.4574 132.494 45.3645C132.562 45.2717 132.596 45.1551 132.596 45.0149C132.596 44.882 132.565 44.7655 132.502 44.6654C132.439 44.5634 132.35 44.4942 132.233 44.4578C132.116 44.4196 131.916 44.4004 131.632 44.4004H130.843V45.6103ZM130.843 47.4592H131.826C131.995 47.4592 132.113 47.4529 132.182 47.4401C132.302 47.4183 132.403 47.3819 132.483 47.3309C132.564 47.2799 132.63 47.2062 132.683 47.1097C132.735 47.0114 132.761 46.8985 132.761 46.771C132.761 46.6217 132.723 46.4924 132.648 46.3832C132.572 46.2721 132.467 46.1948 132.332 46.1511C132.2 46.1055 132.008 46.0828 131.756 46.0828H130.843V47.4592Z" fill="white"/>
<path d="M139.735 47.9317V43.928H140.257V47.9317H139.735Z" fill="white"/>
<path d="M146.814 47.9317V43.928H148.564C148.916 43.928 149.183 43.9644 149.366 44.0372C149.549 44.1082 149.696 44.2348 149.805 44.4168C149.915 44.5989 149.969 44.8001 149.969 45.0204C149.969 45.3044 149.879 45.5439 149.697 45.7387C149.516 45.9335 149.236 46.0573 148.857 46.1101C148.995 46.1775 149.1 46.2439 149.172 46.3095C149.325 46.4515 149.469 46.629 149.606 46.842L150.292 47.9317H149.635L149.113 47.0987C148.96 46.8584 148.835 46.6745 148.736 46.5471C148.637 46.4196 148.548 46.3304 148.469 46.2794C148.392 46.2284 148.313 46.1929 148.233 46.1729C148.173 46.1602 148.076 46.1538 147.942 46.1538H147.336V47.9317H146.814ZM147.336 45.695H148.459C148.697 45.695 148.884 45.6704 149.019 45.6212C149.153 45.5703 149.256 45.4901 149.326 45.3809C149.396 45.2698 149.431 45.1497 149.431 45.0204C149.431 44.831 149.363 44.6754 149.226 44.5534C149.092 44.4314 148.878 44.3704 148.585 44.3704H147.336V45.695Z" fill="white"/>
<path d="M156.238 46.6454L156.731 46.6017C156.754 46.802 156.808 46.9667 156.892 47.096C156.978 47.2235 157.111 47.3272 157.291 47.4074C157.47 47.4856 157.672 47.5248 157.896 47.5248C158.096 47.5248 158.272 47.4947 158.424 47.4347C158.577 47.3746 158.69 47.2927 158.764 47.1889C158.839 47.0833 158.877 46.9686 158.877 46.8448C158.877 46.7191 158.841 46.6099 158.769 46.517C158.697 46.4224 158.579 46.3431 158.413 46.2794C158.308 46.2375 158.073 46.1729 157.711 46.0855C157.348 45.9963 157.094 45.9125 156.949 45.8343C156.76 45.7341 156.619 45.6103 156.526 45.4628C156.434 45.3135 156.389 45.1469 156.389 44.963C156.389 44.7609 156.445 44.5725 156.558 44.3977C156.671 44.2211 156.836 44.0873 157.054 43.9962C157.271 43.9052 157.512 43.8597 157.778 43.8597C158.071 43.8597 158.328 43.9079 158.551 44.0044C158.775 44.0991 158.948 44.2393 159.068 44.425C159.188 44.6107 159.253 44.821 159.262 45.0559L158.761 45.0941C158.734 44.8411 158.642 44.6499 158.486 44.5206C158.332 44.3913 158.103 44.3267 157.8 44.3267C157.484 44.3267 157.253 44.3859 157.107 44.5042C156.964 44.6208 156.892 44.7619 156.892 44.9275C156.892 45.0714 156.943 45.1897 157.046 45.2826C157.146 45.3754 157.408 45.471 157.832 45.5693C158.257 45.6658 158.549 45.7505 158.707 45.8233C158.937 45.9308 159.106 46.0673 159.216 46.233C159.325 46.3969 159.38 46.5862 159.38 46.8011C159.38 47.0141 159.32 47.2153 159.2 47.4046C159.079 47.5922 158.906 47.7387 158.68 47.8443C158.456 47.9481 158.203 48 157.921 48C157.563 48 157.264 47.9472 157.021 47.8416C156.781 47.736 156.591 47.5776 156.453 47.3664C156.317 47.1534 156.245 46.913 156.238 46.6454Z" fill="white"/>
<path d="M165.697 47.9317V43.928H166.219V45.9135L168.18 43.928H168.888L167.232 45.5502L168.961 47.9317H168.271L166.866 45.9053L166.219 46.5443V47.9317H165.697Z" fill="white"/>
</svg>
