<svg width="60" height="60" viewBox="0 0 60 60" fill="none" xmlns="http://www.w3.org/2000/svg">
<g clip-path="url(#clip0_400_6730)">
<path fill-rule="evenodd" clip-rule="evenodd" d="M0 30C0 13.4315 13.4315 0 30 0C46.5685 0 60 13.4315 60 30C60 46.5685 46.5685 60 30 60C13.4315 60 0 46.5685 0 30ZM29.9796 30.4816C34.4035 30.4816 37.9995 27.0099 37.9995 22.742C37.9995 18.4726 34.4035 15 29.9796 15C25.5567 15 21.9598 18.4726 21.9598 22.742C21.9598 27.0099 25.5567 30.4816 29.9796 30.4816ZM33.245 36.8004C34.8775 36.4414 36.4519 35.8179 37.902 34.9388C38.9994 34.2709 39.33 32.8705 38.6386 31.8112C37.9476 30.7495 36.4979 30.43 35.3986 31.0979C32.1135 33.092 27.884 33.0915 24.6007 31.0979C23.5014 30.43 22.0512 30.7495 21.3617 31.8112C20.6702 32.8715 20.9999 34.2709 22.0974 34.9388C23.5475 35.817 25.1219 36.4414 26.7544 36.8004L22.2705 41.1285C21.354 42.0143 21.354 43.4501 22.2715 44.3358C22.7307 44.7781 23.3315 44.9995 23.9322 44.9995C24.534 44.9995 25.1357 44.7781 25.595 44.3358L29.9991 40.0826L34.4071 44.3358C35.3237 45.2214 36.8107 45.2214 37.7282 44.3358C38.6468 43.4501 38.6468 42.0133 37.7282 41.1285L33.245 36.8004Z" fill="white"/>
<path fill-rule="evenodd" clip-rule="evenodd" d="M27.9801 18.2349C29.6892 18.2349 31.0794 19.5763 31.0794 21.2261C31.0794 22.8745 29.6892 24.2168 27.9801 24.2168C26.2723 24.2168 24.8809 22.8745 24.8809 21.2261C24.8809 19.5763 26.2723 18.2349 27.9801 18.2349Z" fill="white"/>
</g>
<defs>
<clipPath id="clip0_400_6730">
<rect width="60" height="60" fill="white"/>
</clipPath>
</defs>
</svg>
