<svg width="24" height="24" viewBox="0 0 24 24" fill="none" xmlns="http://www.w3.org/2000/svg">
<path d="M11 9L10.7351 8.20527C10.3735 7.12036 11.199 6 12.3426 6V6C13.2509 6 14 6.73636 14 7.6447V7.72225C14 8.50534 13.5576 9.22122 12.8571 9.57143V9.57143C12.3318 9.83409 12 10.371 12 10.9583V11.5L21.3488 16.6419C21.7505 16.8628 22 17.2848 22 17.7431V17.7431C22 18.4373 21.4373 19 20.7431 19H3.27231C2.56963 19 2 18.4304 2 17.7277V17.7277C2 17.2768 2.23861 16.8596 2.62722 16.631L10.5 12" stroke="#9C163A" stroke-linecap="round" stroke-linejoin="round"/>
</svg>
