<svg width="118" height="118" viewBox="0 0 118 118" fill="none" xmlns="http://www.w3.org/2000/svg">
<path d="M71.6004 62C68.51 60.3478 65.5938 58.7592 62.6339 57.1917C61.5893 56.641 60.5446 55.7302 59.4782 55.7302C58.4771 55.7302 57.4542 56.6834 56.4314 57.2129C53.798 58.6321 51.1429 60.0513 48.5095 61.4705C48.2266 61.6187 47.9219 61.767 47.4648 62C47.7913 59.9877 48.096 58.1449 48.4007 56.2809C48.8142 53.8027 49.2712 51.3456 49.6194 48.8462C49.6629 48.4861 49.4235 47.9777 49.1406 47.6812C46.3767 44.864 43.5692 42.0892 40.7617 39.2932C40.5441 39.0814 40.3482 38.8696 40 38.5095C41.5452 38.2765 42.9598 38.0435 44.3744 37.8317C47.1602 37.408 49.9459 37.0268 52.7098 36.5608C53.1233 36.4972 53.6021 36.0948 53.798 35.7347C55.6914 31.9008 57.5413 28.0457 59.5 24C59.7394 24.4448 59.9135 24.7202 60.0441 25.0379C61.7416 28.5541 63.4609 32.0702 65.1367 35.6076C65.4414 36.2642 65.8331 36.5396 66.5513 36.6455C70.6429 37.2174 74.7344 37.8317 79 38.4671C78.7388 38.7637 78.5865 38.9755 78.3906 39.1661C75.5831 41.9833 72.7539 44.8004 69.9247 47.5964C69.4894 48.0201 69.2935 48.4013 69.4241 49.058C70.1641 53.1249 70.817 57.1917 71.4916 61.2586C71.5134 61.4281 71.5134 61.5764 71.5569 61.9576L71.6004 62Z" fill="#9C163A"/>
<path d="M41.9689 68C43.318 70.9926 44.6049 73.7268 45.8087 76.5041C46.1408 77.2576 46.5145 77.6021 47.3447 77.7313C50.1675 78.1188 52.9696 78.614 55.7717 79.0661C55.8547 79.1737 55.917 79.2814 56 79.389C55.4188 79.9057 54.7754 80.3794 54.2357 80.9391C52.6375 82.5969 51.0393 84.2762 49.5033 85.9985C49.2335 86.2999 49.0675 86.8812 49.109 87.2903C49.5241 90.2183 50.0015 93.1247 50.4581 96.0312C50.4996 96.2895 50.4789 96.5479 50.4996 96.9569C49.4203 96.3541 48.4655 95.7944 47.5107 95.2561C45.9333 94.3519 44.3351 93.4692 42.7576 92.5219C42.1972 92.1774 41.7613 92.1559 41.1594 92.5219C38.98 93.8352 36.7591 95.0839 34.5589 96.3326C34.2268 96.5264 33.874 96.6986 33.3343 97C33.5834 95.3422 33.791 93.8783 34.0193 92.4143C34.2891 90.6919 34.6004 88.9696 34.808 87.2472C34.8495 86.8597 34.7042 86.3215 34.4344 86.0416C32.5871 84.0178 30.6983 82.0371 28.8095 80.0349C28.5604 79.7765 28.3321 79.4967 28 79.1091C30.2001 78.7431 32.2758 78.4202 34.3306 78.0757C34.5589 78.0327 34.7872 77.9681 34.9948 77.9681C37.1534 78.0973 38.129 76.827 38.8554 74.8894C39.7065 72.6073 40.8273 70.4543 41.9274 68H41.9689Z" fill="#9C163A"/>
<path d="M85.3857 96.9352C85.0186 96.7407 84.6731 96.5894 84.3708 96.4165C82.0171 95.12 79.6634 93.8234 77.3098 92.4836C76.7483 92.1595 76.3165 92.1811 75.7334 92.4836C73.3582 93.845 70.9829 95.1416 68.586 96.4598C68.3053 96.611 68.0246 96.7623 67.5495 97C67.8734 94.9039 68.1757 93.0022 68.478 91.1222C68.6724 89.8688 68.8451 88.5939 69.1042 87.3405C69.2338 86.7355 69.1042 86.3465 68.6724 85.9143C66.7506 83.9911 64.8503 82.0246 62.9501 80.0581C62.6694 79.7772 62.4103 79.4747 62 79.0425C64.2457 78.6967 66.3619 78.351 68.4564 78.0268C68.7803 77.9836 69.1258 77.854 69.4497 77.8756C71.4579 77.9836 72.4512 76.9247 73.1422 75.1311C74.0707 72.7541 75.28 70.4851 76.446 68C76.6404 68.3674 76.7915 68.5835 76.9211 68.8212C78.1519 71.4359 79.4043 74.0507 80.592 76.687C80.8511 77.2705 81.1966 77.5298 81.8444 77.6379C84.8459 78.0484 87.8258 78.5455 91 79.0425C90.6545 79.4098 90.417 79.6908 90.1794 79.9285C88.236 81.9382 86.2926 83.9478 84.306 85.9143C83.8742 86.3465 83.7662 86.7355 83.8742 87.3405C84.3924 90.2578 84.8459 93.1751 85.3209 96.114C85.3641 96.3301 85.3209 96.5678 85.3209 96.9136L85.3857 96.9352Z" fill="#9C163A"/>
<path d="M42 49.0239C39.6947 51.4063 37.5401 53.637 35.364 55.8245C34.89 56.301 34.7392 56.7341 34.8685 57.4272C35.3856 60.286 35.8165 63.1449 36.2689 66.0254C36.312 66.2853 36.312 66.5452 36.3336 66.9567C35.9242 66.7401 35.5795 66.6102 35.2779 66.4369C32.9079 65.1158 30.5379 63.7513 28.1248 62.4951C27.7585 62.3002 27.1337 62.3002 26.7675 62.4951C24.3544 63.773 22.0059 65.1158 19.6144 66.4369C19.2912 66.6102 18.9681 66.7618 18.4941 67C18.8172 64.9425 19.1189 63.0366 19.4205 61.1524C19.6144 59.9178 19.7652 58.6833 20.0453 57.4705C20.2177 56.7341 20.0022 56.2793 19.5067 55.8028C17.6107 53.8969 15.7363 51.9477 13.8618 50.0202C13.6033 49.7603 13.3663 49.4787 13 49.0889C15.2838 48.7423 17.4168 48.3958 19.5498 48.0709C19.8514 48.0276 20.153 47.9193 20.4547 47.941C22.4584 48.0493 23.4495 46.9881 24.1389 45.1688C24.9361 43.068 26.0134 41.0538 26.9614 39.0179C27.0906 38.7364 27.263 38.4548 27.5 38C28.1679 39.4294 28.7496 40.6856 29.3529 41.9634C30.107 43.5878 30.8826 45.1904 31.6152 46.8148C31.8737 47.3779 32.2184 47.5945 32.8217 47.6811C35.8165 48.0926 38.7897 48.5907 42 49.0889V49.0239Z" fill="#9C163A"/>
<path d="M99.3857 66.9568C96.6649 65.4441 94.0521 64.0395 91.5041 62.57C90.8131 62.1811 90.2949 62.1379 89.5823 62.57C87.2934 63.9098 84.9397 65.1632 82.6076 66.4598C82.3269 66.611 82.0246 66.7623 81.5495 67C81.895 64.839 82.1973 62.8942 82.5212 60.9493C82.6292 60.2578 82.6292 59.5231 82.8883 58.8532C83.5577 57.0596 82.8235 55.8711 81.5279 54.6826C79.6493 52.9538 77.9434 51.0522 76 49.0857C77.8138 48.8048 79.4549 48.5238 81.0745 48.2861C82.478 48.07 83.8816 47.9188 85.2636 47.6162C85.6739 47.5298 86.1489 47.1624 86.3433 46.7951C87.5957 44.2668 88.7617 41.6952 89.971 39.1237C90.1221 38.7996 90.2949 38.497 90.554 38C91.1154 39.1669 91.5905 40.1826 92.0655 41.2198C92.9509 43.0999 93.8146 45.0015 94.7431 46.8815C94.9159 47.2273 95.3909 47.5514 95.758 47.6162C98.5436 48.0917 101.351 48.4806 104.136 48.9128C104.395 48.956 104.633 49.0425 105 49.1505C102.949 51.2466 101.027 53.3428 98.9754 55.266C97.9821 56.1952 97.8094 57.1028 98.0469 58.3562C98.5651 60.9709 98.9322 63.6073 99.3641 66.2221C99.3857 66.4165 99.3641 66.611 99.3641 67L99.3857 66.9568Z" fill="#9C163A"/>
</svg>
