<svg width="118" height="118" viewBox="0 0 118 118" fill="none" xmlns="http://www.w3.org/2000/svg">
<path d="M19 58.4542C19.6229 57.1063 20.6938 56.7167 22.1417 56.7188C46.7271 56.7479 71.3125 56.7396 95.8979 56.7396C98.0333 56.7396 98.9375 57.5854 98.8167 59.7167C98.6979 61.8313 98.4083 63.9354 98.1917 66.0604H19.7667C19.5104 64.4646 19.2562 62.8646 19 61.2625C19 60.3271 19 59.3917 19 58.4563V58.4542Z" fill="#9C163A"/>
<path d="M21.2686 70.7958H96.4998C96.0102 71.7917 95.5998 72.7313 95.104 73.6229C91.779 79.6104 87.004 84.0354 80.7456 86.8354C80.2644 87.05 80.0998 87.3 80.1165 87.8208C80.1581 89.0938 80.1373 90.3667 80.1269 91.6396C80.1144 93.2 79.1561 94.1625 77.5894 94.1625C65.1415 94.1667 52.6936 94.1667 40.2456 94.1625C38.6831 94.1625 37.7269 93.1938 37.7165 91.6313C37.7081 90.3583 37.6852 89.0833 37.729 87.8125C37.7456 87.2875 37.5727 87.0396 37.0956 86.8271C31.3769 84.2854 26.8644 80.3375 23.5665 75.0271C22.7519 73.7125 22.0852 72.3063 21.2706 70.7958H21.2686Z" fill="#9C163A"/>
<path d="M44.9483 23.9896C45.8191 24.0479 46.567 24.4416 46.9837 25.3291C47.4295 26.2771 47.2691 27.1708 46.5795 27.925C45.7337 28.8521 45.2628 29.8958 45.3045 31.1625C45.342 32.3416 45.8503 33.2875 46.6399 34.1396C49.5024 37.2271 49.9712 41.5812 47.8149 45.0604C47.4753 45.6083 47.0691 46.125 46.6233 46.5937C45.667 47.6 44.2316 47.6396 43.2774 46.7375C42.3462 45.8583 42.2733 44.4604 43.1941 43.4479C44.3837 42.1396 44.8045 40.6541 44.2253 38.9958C43.9878 38.3146 43.5024 37.6791 43.0087 37.1312C39.8691 33.6375 39.8191 28.4479 42.9212 24.9958C43.4483 24.4104 44.0566 24.0166 44.9441 23.9896H44.9483Z" fill="#9C163A"/>
<path d="M63.1768 40.3604C63.1705 42.6958 62.3684 44.725 60.8059 46.45C59.7913 47.5687 58.3705 47.6896 57.3518 46.7708C56.3601 45.8771 56.3372 44.475 57.2934 43.3604C58.9976 41.3708 58.9455 39.1708 57.1476 37.2146C53.8434 33.625 53.8434 28.1583 57.1434 24.8083C57.7913 24.1521 58.5518 23.8417 59.4705 24.0708C60.3788 24.2979 60.958 24.8875 61.1893 25.7958C61.3976 26.6187 61.1393 27.325 60.608 27.9583C58.8226 30.0917 58.8747 32.1479 60.7559 34.2146C62.3413 35.9562 63.1747 37.9958 63.1809 40.3625L63.1768 40.3604Z" fill="#9C163A"/>
<path d="M73.0296 23.9896C73.9087 24.0541 74.6525 24.4541 75.0629 25.3458C75.5004 26.2979 75.3296 27.1854 74.64 27.9416C73.8337 28.8229 73.3671 29.8187 73.3712 31.0271C73.3754 32.2958 73.9275 33.2958 74.7733 34.2125C78.0108 37.7229 78.0275 43 74.8525 46.4458C74.19 47.1646 73.4067 47.55 72.4212 47.3062C70.6233 46.8604 70.0442 44.8166 71.3275 43.3729C72.5067 42.0479 72.8712 40.55 72.2692 38.9041C72.0296 38.2479 71.5483 37.6479 71.0712 37.1166C67.9379 33.6291 67.9004 28.4229 71.0087 24.9812C71.5379 24.3958 72.1504 24.0104 73.0317 23.9896H73.0296Z" fill="#9C163A"/>
</svg>
