<svg width="118" height="118" viewBox="0 0 118 118" fill="none" xmlns="http://www.w3.org/2000/svg">
<path d="M93.8497 93.9771H23.9893V93.1541C23.9893 86.0875 23.9893 79.0187 23.9893 71.9521C23.9893 69.9021 25.1976 68.8333 27.2309 69.1C29.6413 69.4146 31.5934 70.525 33.0455 72.4937C34.558 74.5437 36.9288 74.5396 38.4538 72.4937C41.8434 67.9416 48.1684 67.9375 51.5643 72.4854C53.0997 74.5416 55.4601 74.5458 56.9726 72.4979C60.4163 67.8333 66.8538 67.9062 70.1768 72.6458C71.4976 74.5312 74.1247 74.5146 75.4455 72.6146C78.683 67.9562 85.2018 67.8416 88.5642 72.3979C89.308 73.4041 90.2434 73.9708 91.4997 74.0604C92.8205 74.1562 93.833 75.1458 93.8372 76.4354C93.8622 82.2541 93.8476 88.0729 93.8476 93.9771H93.8497Z" fill="#9C163A"/>
<path d="M51.4376 41.5958H68.9042C68.9042 41.3125 68.9042 41.0417 68.9042 40.7688C68.9042 37.6771 68.8751 34.5833 68.9168 31.4917C68.9688 27.6875 71.8897 24.5604 75.6834 24.1729C79.3334 23.8 82.7709 26.2417 83.6501 29.8604C83.7897 30.4354 83.8584 31.0417 83.8626 31.6333C83.8688 32.9896 82.798 34.075 81.473 34.1229C80.1501 34.1708 79.0251 33.1604 78.8897 31.8167C78.8563 31.4833 78.8376 31.1375 78.7334 30.825C78.3501 29.6854 77.2105 28.9917 76.048 29.1563C74.8792 29.3229 73.9813 30.2938 73.9043 31.4875C73.8876 31.7458 73.898 32.0063 73.898 32.2667C73.898 43.4667 73.8834 54.6667 73.9251 65.8688C73.9293 66.8521 73.6397 67.4938 72.9022 67.9042C71.6418 67.0479 70.3959 66.2188 69.1793 65.3521C69.0188 65.2375 68.9272 64.9313 68.9209 64.7104C68.8938 63.7 68.9084 62.6896 68.9084 61.6271H51.4688V65.6083C49.823 65.0625 48.2168 64.5292 46.4897 63.9542C46.4855 63.9042 46.4543 63.6813 46.4543 63.4583C46.4522 52.8813 46.4397 42.3042 46.4584 31.7292C46.4668 27.325 49.9688 23.9833 54.3188 24.1604C58.1792 24.3167 61.3834 27.6208 61.4168 31.4792C61.4293 32.9417 60.4022 34.075 59.0188 34.125C57.6334 34.175 56.5355 33.1313 56.4313 31.6646C56.3209 30.125 55.2459 29.0833 53.8272 29.1417C52.4438 29.1979 51.448 30.2938 51.4438 31.8C51.4355 34.8667 51.4418 37.9333 51.4418 41C51.4418 41.175 51.4418 41.3521 51.4418 41.5979L51.4376 41.5958ZM51.4813 46.6396V56.5313H68.8438V46.6396H51.4813Z" fill="#9C163A"/>
</svg>
