<svg width="118" height="118" viewBox="0 0 118 118" fill="none" xmlns="http://www.w3.org/2000/svg">
<path d="M9 82.6923H109V87H9V82.6923Z" fill="#9C163A"/>
<path d="M13.2553 78.3846H104.745V82.6923H13.2553V78.3846Z" fill="#9C163A"/>
<path d="M28.1489 56.8462V76.2308H23.8936L23.8936 56.8462H28.1489Z" fill="#9C163A"/>
<path d="M36.6596 56.8462V76.2308H32.4043V56.8462H36.6596Z" fill="#9C163A"/>
<path d="M45.1702 56.8462V76.2308H40.9149V56.8462H45.1702Z" fill="#9C163A"/>
<path d="M53.6808 56.8462V76.2308H49.4255V56.8462H53.6808Z" fill="#9C163A"/>
<path d="M62.1915 56.8462V76.2308H57.9362V56.8462H62.1915Z" fill="#9C163A"/>
<path d="M70.7021 56.8462V76.2308H66.4468V56.8462H70.7021Z" fill="#9C163A"/>
<path d="M79.2128 56.8462V76.2308H74.9574V56.8462H79.2128Z" fill="#9C163A"/>
<path d="M87.7234 56.8462V76.2308H83.4681V56.8462H87.7234Z" fill="#9C163A"/>
<path d="M96.234 56.8462V76.2308H91.9787V56.8462H96.234Z" fill="#9C163A"/>
<path d="M18.6129 54.6923H101.515L104.745 48.2308H15.383L18.6129 54.6923Z" fill="#9C163A"/>
<path d="M58.4817 31.0181C44.3846 31.0181 39.4783 41.0573 38.7872 46.0769H79.2128C75.0666 29.8597 60.5548 31.0181 58.4817 31.0181Z" fill="#9C163A"/>
<path d="M40.9149 37.4615C38.3617 39.1846 37.0142 43.9231 36.6596 46.0769H30.2766V33.1538H40.9149V37.4615Z" fill="#9C163A"/>
<path d="M77.0851 37.4615C79.6383 39.1846 80.9858 43.9231 81.3404 46.0769H87.7234V33.1538H77.0851V37.4615Z" fill="#9C163A"/>
</svg>
