<svg width="118" height="118" viewBox="0 0 118 118" fill="none" xmlns="http://www.w3.org/2000/svg">
<path d="M19 96.3549C19.3792 95.7142 19.9399 95.5232 20.6778 95.5232C45.908 95.5355 71.1362 95.5334 96.3665 95.5355C96.5974 95.5355 96.8365 95.5293 97.057 95.5807C97.6589 95.7203 97.9783 96.1372 97.9989 96.7349C98.0196 97.3346 97.7392 97.7802 97.1188 97.9158C96.822 97.9815 96.5067 97.9897 96.2016 97.9897C71.0744 97.9938 45.9472 97.9897 20.82 98C20.0945 98 19.4493 97.9117 19 97.275V96.3529V96.3549Z" fill="#9C163A"/>
<path d="M82.2169 59.8636C82.2169 61.3526 82.2313 62.7081 82.2107 64.0615C82.2004 64.7085 81.9118 65.2034 81.2193 65.3431C80.5989 65.4684 80.1558 65.1685 79.8981 64.651C79.7683 64.3922 79.7621 64.0574 79.758 63.7555C79.7435 62.5048 79.7518 61.254 79.7518 59.9335H37.2616C37.2616 61.0589 37.2616 62.1536 37.2616 63.2503C37.2616 63.5583 37.274 63.8664 37.2492 64.1724C37.1936 64.8851 36.7422 65.3472 36.0929 65.38C35.421 65.4129 34.8666 64.9508 34.8192 64.2114C34.7635 63.3448 34.7965 62.4719 34.7924 61.6011C34.7903 61.0671 34.7924 60.5311 34.7924 59.8657C34.2668 59.8657 33.7927 59.8739 33.3166 59.8657C31.5461 59.8328 30.6083 58.8963 30.5959 57.1424C30.5877 56.0662 30.5856 54.99 30.5959 53.9159C30.6145 52.2873 31.6059 51.2727 33.2383 51.2625C35.9878 51.244 38.7394 51.2563 41.489 51.2563C55.4222 51.2563 69.3554 51.2563 83.2866 51.2563C85.558 51.2563 86.4175 52.1066 86.4175 54.3513C86.4175 55.2981 86.4278 56.2469 86.4154 57.1937C86.3948 58.8203 85.4034 59.8164 83.7689 59.8636C83.2866 59.878 82.8043 59.8657 82.2169 59.8657V59.8636Z" fill="#9C163A"/>
<path d="M40.0194 48.7343C40.4935 46.3129 41.4333 44.1236 42.7669 42.0985C44.4302 39.5724 46.5841 37.5597 49.2038 36.0276C49.8778 35.6333 50.426 35.6723 51.0423 36.118C53.3528 37.7836 55.6922 39.4122 57.9924 41.0902C58.4603 41.4311 58.7612 41.468 59.2477 41.1107C61.5046 39.4595 63.8089 37.8698 66.07 36.2227C66.8161 35.6805 67.4633 35.6497 68.2486 36.155C72.6429 38.9891 75.5904 42.8708 76.9425 47.9271C77.0063 48.1695 77.0393 48.42 77.1012 48.7343H40.0194Z" fill="#9C163A"/>
<path d="M58.5077 35.9742C54.1258 35.9742 50.494 32.3719 50.4837 28.0179C50.4714 23.5962 54.0887 19.9877 58.518 20C62.9659 20.0124 66.5502 23.6106 66.5296 28.0385C66.509 32.4397 62.9371 35.9742 58.5077 35.9742Z" fill="#9C163A"/>
<path d="M44.0303 93.0319H21.5929C21.5929 91.2328 21.4095 89.4543 21.6382 87.7291C21.9289 85.5316 23.8869 83.9153 26.1047 83.8865C30.5485 83.827 34.9944 83.8208 39.4382 83.8886C41.9074 83.9276 43.9067 85.9629 44.0159 88.4192C44.0839 89.9225 44.0283 91.4321 44.0283 93.0319H44.0303Z" fill="#9C163A"/>
<path d="M95.5421 93.0751H94.6331C87.7469 93.0751 80.8607 93.0627 73.9744 93.0915C73.2201 93.0956 73.0036 92.88 73.0469 92.1468C73.1088 91.0747 73.0469 89.9965 73.0675 88.9224C73.1252 85.9177 75.1719 83.8742 78.1894 83.8557C82.2746 83.8311 86.3597 83.8311 90.4449 83.8557C93.4871 83.8742 95.5276 85.969 95.54 89.0189C95.5441 90.3436 95.54 91.6662 95.54 93.073L95.5421 93.0751Z" fill="#9C163A"/>
<path d="M69.7285 93.036H47.2498C47.3735 91.0562 46.9571 89.0826 47.559 87.1664C48.1608 85.2502 49.9272 83.9009 51.9533 83.8783C56.3477 83.829 60.744 83.8187 65.1404 83.8783C67.5561 83.9112 69.508 85.8355 69.7079 88.3494C69.8295 89.8733 69.7306 91.4156 69.7306 93.034L69.7285 93.036Z" fill="#9C163A"/>
<path d="M84.3089 70.2002C87.7819 70.2002 90.4676 72.8783 90.4655 76.3369C90.4655 79.779 87.749 82.492 84.3069 82.4941C80.8875 82.4941 78.1255 79.7441 78.1297 76.3348C78.1317 72.905 80.8586 70.2002 84.311 70.2002H84.3089Z" fill="#9C163A"/>
<path d="M26.5458 76.2814C26.5664 72.8352 29.2768 70.1817 32.7601 70.2023C36.2042 70.2228 38.9187 72.9687 38.8837 76.3923C38.8466 79.8098 36.0682 82.531 32.6509 82.4941C29.2046 82.4571 26.5272 79.7318 26.5479 76.2814H26.5458Z" fill="#9C163A"/>
<path d="M58.5448 70.2023C61.9951 70.2146 64.6911 72.9256 64.6767 76.3697C64.6622 79.7872 61.9065 82.5126 58.4809 82.4941C55.0491 82.4776 52.3243 79.74 52.3346 76.3184C52.3449 72.9297 55.1254 70.19 58.5448 70.2023Z" fill="#9C163A"/>
</svg>
