<svg width="118" height="118" viewBox="0 0 118 118" fill="none" xmlns="http://www.w3.org/2000/svg">
<g clip-path="url(#clip0_121_262)">
<path d="M97.9996 67.2313C97.7241 67.2414 97.4511 67.2591 97.1756 67.2591C77.7702 67.2591 58.3648 67.2591 38.9593 67.2591H38.0166V61.9768H97.9996V67.2313Z" fill="#9C163A"/>
<path d="M64.9669 32.1737C63.3696 29.1484 63.5313 27.225 65.4749 25.7515C67.1102 24.5131 69.4126 24.6597 70.9038 26.0953C72.5239 27.6547 72.5618 29.7853 70.9493 32.1408C71.3562 32.2242 71.7277 32.3152 72.1043 32.3759C77.2198 33.2226 81.6175 35.5149 85.3176 39.1064C89.4398 43.1098 92.0178 47.9851 92.9302 53.6617C93.2537 55.671 93.1955 57.7435 93.327 59.7856C93.3623 60.3341 93.1071 60.4427 92.6142 60.4427C78.9334 60.4276 65.2525 60.4276 51.5717 60.42C51.4023 60.42 51.2305 60.3897 51.0384 60.3694C51.5287 49.3904 55.5043 40.2993 65.1413 34.2007L64.9391 34.0541C64.8229 34.0743 64.7015 34.0793 64.5929 34.1173C59.3662 36.0204 55.0544 39.1165 52.0241 43.8478C49.6382 47.5732 48.3517 51.6979 47.7249 56.045C47.5202 57.4528 47.366 58.8682 47.1815 60.3467H42.6676C42.2834 53.462 43.9995 47.2294 48.2633 41.7804C52.5194 36.3388 58.1126 33.1493 64.9694 32.1712L64.9669 32.1737Z" fill="#9C163A"/>
<path d="M47.5503 75.5895C51.0128 75.8043 54.4779 75.9787 57.9354 76.2617C59.1991 76.3654 60.3365 76.1404 61.4915 75.6804C65.5025 74.0831 69.5312 72.5262 73.5523 70.9567C75.2355 70.2996 76.6155 71.0376 76.752 72.6754C76.8076 73.3451 76.6205 73.9188 76.0291 74.2954C70.9137 77.5659 65.7957 80.8262 60.6827 84.0992C59.5732 84.8094 58.3297 84.903 57.0786 84.8979C51.4779 84.8726 45.8746 84.8751 40.2764 84.7462C38.5755 84.7083 37.4053 85.3554 36.4474 86.6342C36.1795 86.9906 35.904 87.3419 35.5224 87.8347C34.7262 82.7951 33.9528 77.9046 33.1719 72.9609C33.4448 72.8497 33.69 72.7436 33.9427 72.6526C36.2199 71.8337 38.487 70.9744 40.787 70.2187C41.7196 69.9129 42.7204 69.7107 43.6985 69.6652C48.0457 69.463 52.3928 69.3265 56.7425 69.185C57.9354 69.1471 58.7139 69.9533 58.7063 71.1437C58.6987 72.0789 58.2286 72.6248 57.0988 72.923C55.1426 73.4386 53.1814 73.9264 51.2251 74.437C49.9968 74.7579 48.7761 75.1042 47.5528 75.4378C47.5528 75.4884 47.5528 75.5389 47.5554 75.5895H47.5503Z" fill="#9C163A"/>
<path d="M34.84 91.3833C30.2705 92.2401 25.7641 93.0817 21.2021 93.936V74.5331C24.5661 73.9417 27.9478 73.3452 31.4154 72.7361C32.5603 78.9712 33.6951 85.1406 34.84 91.3833Z" fill="#9C163A"/>
</g>
<defs>
<clipPath id="clip0_121_262">
<rect width="77" height="77" fill="white" transform="translate(21 21)"/>
</clipPath>
</defs>
</svg>
