<svg width="28" height="28" viewBox="0 0 28 28" fill="none" xmlns="http://www.w3.org/2000/svg">
<path d="M20.7894 16.6615C15.7345 16.6862 14.9168 19.7313 14.6443 22.306L14.5204 23.4448H13.5044L13.3805 22.306C13.108 19.7313 12.2655 16.6862 7.38406 16.6615C6.56637 14.9779 6.21947 13.6163 6.21947 12.0814C6.21947 8.24414 9.3664 4.65429 14.0247 4.65429C18.6831 4.65429 21.7805 8.21925 21.7805 12.1063C21.7805 13.6163 21.6318 14.9779 20.7894 16.6615ZM13.9753 0C6.29388 0 0 6.2883 0 13.9876C0 21.7118 6.29388 28 13.9753 28C21.7309 28 28 21.7118 28 13.9876C28 6.28832 21.7309 0 13.9753 0Z" fill="#29B24A"/>
</svg>
