<svg width="28" height="28" viewBox="0 0 28 28" fill="none" xmlns="http://www.w3.org/2000/svg">
<g clip-path="url(#clip0_736_10811)">
<path d="M0 14C0 21.732 6.26801 28 14 28C21.732 28 28 21.732 28 14C28 6.26801 21.732 0 14 0C6.26801 0 0 6.26801 0 14Z" fill="#4389C8"/>
<path d="M14.8359 16.4777H19.7186V13.5089H14.8359V11.1155H21.1532V8.05469H10.471C8.20028 8.05469 6.13672 9.48921 6.13672 12.0361C6.13672 14.1035 7.46384 15.5111 9.21672 15.9906L10.0452 13.1446C9.61946 12.9604 9.27042 12.5846 9.27042 12.0667C9.27042 11.3648 9.8611 11.0235 10.4134 11.0235H11.5795V20.6892H14.8321V16.4777" fill="white"/>
</g>
<defs>
<clipPath id="clip0_736_10811">
<rect width="28" height="28" fill="white"/>
</clipPath>
</defs>
</svg>
