<svg width="30" height="30" viewBox="0 0 30 30" fill="none" xmlns="http://www.w3.org/2000/svg">
<path d="M15 0C8.3724 0 3 5.3724 3 12C3 15.3126 4.3422 18.312 6.513 20.4834C8.6844 22.656 13.8 25.8 14.1 29.1C14.145 29.5948 14.5032 30 15 30C15.4968 30 15.855 29.5948 15.9 29.1C16.2 25.8 21.3156 22.656 23.487 20.4834C25.6578 18.312 27 15.3126 27 12C27 5.3724 21.6276 0 15 0Z" fill="#FF4433"/>
<path d="M15 17.0625C17.1746 17.0625 18.9375 15.2996 18.9375 13.125C18.9375 10.9504 17.1746 9.1875 15 9.1875C12.8254 9.1875 11.0625 10.9504 11.0625 13.125C11.0625 15.2996 12.8254 17.0625 15 17.0625Z" fill="white"/>
</svg>
