<svg width="30" height="31" viewBox="0 0 30 31" fill="none" xmlns="http://www.w3.org/2000/svg">
<circle cx="15" cy="15.5" r="13" fill="white"/>
<path d="M22.2743 18.3516C16.8584 18.3781 15.9823 21.6407 15.6903 24.3993L15.5576 25.6194H14.469L14.3363 24.3993C14.0443 21.6407 13.1416 18.3781 7.91149 18.3516C7.0354 16.5478 6.66372 15.0889 6.66372 13.4443C6.66372 9.33301 10.0354 5.48674 15.0265 5.48674C20.0177 5.48674 23.3362 9.30634 23.3362 13.471C23.3363 15.0889 23.177 16.5478 22.2743 18.3516ZM14.9735 0.5C6.74344 0.5 0 7.23746 0 15.4867C0 23.7627 6.74344 30.5 14.9735 30.5C23.2831 30.5 30 23.7627 30 15.4867C30 7.23748 23.2831 0.5 14.9735 0.5Z" fill="#9C163A"/>
</svg>
