<svg width="26" height="33" viewBox="0 0 26 33" fill="none" xmlns="http://www.w3.org/2000/svg">
<g clip-path="url(#clip0_887_20721)">
<path d="M13 0.5C5.8201 0.5 0 6.23056 0 13.3C0 16.8334 1.45405 20.0328 3.80575 22.349C6.1581 24.6664 11.7 28.02 12.025 31.54C12.0737 32.0678 12.4618 32.5 13 32.5C13.5382 32.5 13.9263 32.0678 13.975 31.54C14.3 28.02 19.8419 24.6664 22.1943 22.349C24.5459 20.0328 26 16.8334 26 13.3C26 6.23056 20.1799 0.5 13 0.5Z" fill="#9C163A"/>
<path d="M12.9336 17.4332C15.2894 17.4332 17.1992 15.5528 17.1992 13.2332C17.1992 10.9136 15.2894 9.0332 12.9336 9.0332C10.5778 9.0332 8.66797 10.9136 8.66797 13.2332C8.66797 15.5528 10.5778 17.4332 12.9336 17.4332Z" fill="white"/>
</g>
<defs>
<clipPath id="clip0_887_20721">
<rect width="26" height="32" fill="white" transform="translate(0 0.5)"/>
</clipPath>
</defs>
</svg>
