<svg width="67" height="61" viewBox="0 0 67 61" fill="none" xmlns="http://www.w3.org/2000/svg">
<path d="M0 8.85625H6.30577V47.2769H4.53206V10.6574H0.000968182V8.85625H0ZM0 0H66.9991V2.21603H32.6965V47.2769H30.5142V2.21603H0V0ZM40.4071 47.2769V9.51889H51.0474L51.0232 11.2404H42.294V26.8686H50.3454V28.8172H42.294V45.403H51.3127L51.3882 47.2759H40.408L40.4071 47.2769ZM57.9815 47.2769V17.1472L65.4442 47.2769H66.9991V9.46875H65.1538V38.1198L58.0802 9.46875L56.0935 9.51889V47.2769H57.9815ZM14.0841 27.5627V22.5585L14.1093 13.8585C14.1093 12.8597 14.2691 12.0574 14.5886 11.4596C14.9071 10.853 15.3621 10.5542 15.9595 10.5542H19.3569C20.3066 10.5542 20.9205 10.8363 21.1809 11.4075C21.4413 11.9719 21.575 12.8075 21.575 13.9097V42.1704C21.5082 43.2371 21.3407 44.0581 21.0792 44.6204C20.8198 45.1926 20.2137 45.4748 19.2552 45.4748H16.8425C15.6652 45.4748 14.9081 45.1759 14.5808 44.5782C14.2526 43.9715 14.0851 43.1437 14.0851 42.076V27.5627H14.0841ZM23.2993 20.9628V12.5608C23.3322 11.6219 23.1308 10.7763 22.7097 10.0075C22.2817 9.2387 21.4743 8.82086 20.2892 8.75302H15.4638C14.3029 8.82086 13.4616 9.25639 12.9659 10.0586C12.4615 10.853 12.2088 11.7919 12.2088 12.8587V43.1772C12.2088 44.176 12.444 45.0884 12.9155 45.9261C13.387 46.7549 14.2013 47.2061 15.3621 47.2749H19.5999C20.6513 47.2061 21.5256 46.7883 22.2149 46.0273C22.9033 45.2605 23.2489 44.3039 23.2489 43.1762L23.2993 20.9608V20.9628Z" fill="white"/>
<path d="M0.0773539 51.7525H2.72049V52.1811H1.57513V60.8781H1.15397V52.1811H0.0773539V51.7525ZM52.5789 60.8722V51.7456H54.0012C54.2674 51.7662 54.4872 51.8665 54.6625 52.0513C54.8377 52.2352 54.9742 52.5183 55.072 52.9008C55.1708 53.2822 55.2182 53.6844 55.2182 54.1042C55.2182 54.4876 55.1766 54.8523 55.0904 55.1974C55.0042 55.5425 54.8726 55.8198 54.6934 56.0282C54.9268 56.1865 55.103 56.4598 55.223 56.8501C55.3431 57.2375 55.4002 57.6976 55.4002 58.2265C55.4002 58.6552 55.3644 59.0524 55.2908 59.4201C55.2172 59.7848 55.1253 60.0699 55.0149 60.2656C54.9045 60.4642 54.767 60.6136 54.6024 60.7169C54.4359 60.8211 54.2345 60.8712 53.9973 60.8712H52.5809L52.5789 60.8722ZM52.9885 55.8866H53.8492C54.0835 55.8866 54.252 55.8365 54.3585 55.7323C54.494 55.6045 54.5957 55.399 54.6615 55.1089C54.7273 54.8209 54.7622 54.4571 54.7622 54.0216C54.7622 53.5988 54.7302 53.2429 54.6663 52.9588C54.6015 52.6727 54.5143 52.4702 54.4049 52.3532C54.2975 52.2332 54.0893 52.1457 53.7843 52.0907H52.9885V55.8866ZM52.9759 60.5389L53.9654 60.5517C54.1813 60.4947 54.3546 60.361 54.4863 60.1476C54.6199 59.9323 54.7215 59.6855 54.797 59.4034C54.8716 59.1241 54.9074 58.7791 54.9074 58.371C54.9074 57.9188 54.8697 57.5196 54.7922 57.1736C54.7147 56.8255 54.6063 56.5847 54.4688 56.4441C54.3333 56.3064 54.1435 56.2386 53.9005 56.2386H52.9759V60.5389ZM59.6108 53.5752L58.6398 60.8722H58.1431L59.5063 51.7328H60.0136L61.4833 60.8722H60.9382L59.7338 52.6422L59.6108 53.5752ZM64.1216 60.8722V51.7279H65.5652C65.8595 51.7279 66.0802 51.8115 66.2313 51.9756C66.3813 52.1388 66.5033 52.4289 66.5924 52.8447C66.6834 53.2606 66.7299 53.7207 66.7299 54.2241C66.7299 54.873 66.6553 55.4186 66.5072 55.863C66.3542 56.3064 66.1248 56.5886 65.812 56.7066C65.9253 56.8609 66.0125 57.0143 66.0696 57.1647C66.1954 57.4892 66.3136 57.8923 66.4268 58.3779L67 60.8722H66.4568L66.0231 58.9659C65.8934 58.4133 65.7898 57.9945 65.7075 57.7015C65.6252 57.4105 65.5526 57.207 65.4887 57.0939C65.4257 56.9779 65.3589 56.8973 65.2931 56.8511C65.2447 56.8216 65.1653 56.8078 65.053 56.8078H64.5505V60.8732H64.1226L64.1216 60.8722ZM64.5553 56.451H65.356C65.6223 56.4047 65.8033 56.2887 65.905 56.1068C66.0076 55.9259 66.0928 55.6743 66.1625 55.3587C66.2332 55.0421 66.2806 54.6528 66.3048 54.1877C66.3048 53.5516 66.2458 53.0404 66.1354 52.655C66.0212 52.2725 65.7452 52.0553 65.3086 52.0081H64.5553V56.4519V56.451ZM5.55242 60.8781V51.7633H8.12101L8.1152 52.1801H6.00843V55.9515H7.95061V56.4224H6.00843V60.4258H8.18491L8.20233 60.8781H5.55242ZM11.011 51.7328H12.4556C12.7489 51.7328 12.9706 51.8154 13.1197 51.9805C13.2698 52.1447 13.3928 52.4348 13.4828 52.8506C13.5738 53.2655 13.6203 53.7266 13.6203 54.23C13.6203 54.8789 13.5467 55.4245 13.3957 55.8679C13.2446 56.3123 13.0152 56.5945 12.7015 56.7125C12.8157 56.8668 12.9009 57.0212 12.958 57.1706C13.0849 57.4951 13.203 57.8991 13.3163 58.3838L13.8894 60.8781H13.3453L12.9125 58.9718C12.7818 58.4192 12.6782 58.0004 12.5969 57.7084C12.5156 57.4164 12.442 57.2129 12.3771 57.0998C12.3142 56.9848 12.2484 56.9042 12.1816 56.857C12.1332 56.8285 12.0538 56.8147 11.9424 56.8147H11.439V60.8791H11.011V51.7328ZM11.4448 56.4569H12.2455C12.5107 56.4097 12.6918 56.2946 12.7944 56.1127C12.8961 55.9328 12.9822 55.6802 13.0529 55.3636C13.1226 55.048 13.1701 54.6587 13.1952 54.1936C13.1952 53.5575 13.1362 53.0463 13.0248 52.6609C12.9116 52.2775 12.6356 52.0602 12.198 52.013H11.4457V56.4569H11.4448ZM16.4803 60.8781V51.7328H17.9248C18.2182 51.7328 18.4399 51.8154 18.59 51.9805C18.7391 52.1447 18.862 52.4348 18.9521 52.8506C19.044 53.2655 19.0895 53.7266 19.0895 54.23C19.0895 54.8789 19.016 55.4245 18.8659 55.8679C18.7139 56.3123 18.4854 56.5945 18.1717 56.7125C18.285 56.8668 18.3711 57.0212 18.4283 57.1706C18.5541 57.4951 18.6722 57.8991 18.7865 58.3838L19.3597 60.8781H18.8155L18.3828 58.9718C18.253 58.4192 18.1494 58.0004 18.0671 57.7084C17.9848 57.4164 17.9113 57.2129 17.8474 57.0998C17.7835 56.9848 17.7176 56.9042 17.6518 56.857C17.6034 56.8285 17.524 56.8147 17.4126 56.8147H16.9092V60.8791H16.4813L16.4803 60.8781ZM16.914 56.4569H17.7147C17.9819 56.4097 18.162 56.2946 18.2646 56.1127C18.3653 55.9328 18.4525 55.6802 18.5222 55.3636C18.5919 55.048 18.6403 54.6587 18.6635 54.1936C18.6635 53.5575 18.6054 53.0463 18.4941 52.6609C18.3799 52.2775 18.1049 52.0602 17.6673 52.013H16.914V56.4569ZM22.423 60.8781H21.9263L23.2895 51.7397H23.7978L25.2675 60.8781H24.7224L23.518 52.6471L22.423 60.8781ZM28.3666 56.1953V55.0067L28.3725 52.9401C28.3725 52.7032 28.4112 52.5124 28.4867 52.3709C28.5622 52.2273 28.6707 52.1556 28.812 52.1556H29.6185C29.8441 52.1556 29.9903 52.2214 30.0523 52.3581C30.1142 52.4918 30.1452 52.6914 30.1452 52.9519V54.6282H30.5547V52.6324C30.5625 52.4092 30.4928 52.2086 30.3427 52.0258C30.1946 51.8429 30.0029 51.7436 29.7695 51.7279H28.6929C28.417 51.7436 28.2176 51.8478 28.1004 52.0386C27.9794 52.2263 27.9194 52.4505 27.9194 52.7032V59.9048C27.9194 60.1417 27.9765 60.359 28.0878 60.5576C28.1992 60.7552 28.3928 60.8624 28.6687 60.8781H29.817C30.0513 60.8624 30.2304 60.7631 30.3543 60.5822C30.4802 60.4003 30.5383 60.1968 30.5305 59.9756V57.9778H30.121V59.6521C30.121 59.9146 30.089 60.1132 30.0271 60.2469C29.9651 60.3826 29.8209 60.4494 29.5933 60.4494H29.0202C28.7404 60.4494 28.5603 60.3796 28.4828 60.2371C28.4054 60.0935 28.3647 59.8959 28.3647 59.6423V56.1953H28.3666ZM33.376 60.8781V51.7633H35.9436L35.9378 52.1801H33.8311V55.9515H35.7742V56.4224H33.8311V60.4258H36.0075L36.025 60.8781H33.3751H33.376ZM46.5946 60.8781L46.0224 59.8232C45.7358 60.2587 45.4609 60.5635 45.1917 60.7375C44.9216 60.9125 44.6118 61 44.2603 61C43.7849 61 43.4112 60.8034 43.1382 60.4121C42.8671 60.0198 42.7296 59.4702 42.7296 58.7643C42.7296 58.4035 42.7732 58.082 42.8594 57.7998C42.9455 57.5157 43.0714 57.2532 43.2389 57.0143C43.4074 56.7744 43.6649 56.5031 44.0105 56.1973C43.723 55.6595 43.5352 55.2181 43.447 54.875C43.3589 54.5308 43.3154 54.1484 43.3154 53.7256C43.3154 53.2036 43.418 52.7966 43.6194 52.5036C43.8237 52.2136 44.0986 52.0681 44.4501 52.0681C44.8054 52.0681 45.0833 52.2185 45.2856 52.5164C45.487 52.8162 45.5896 53.239 45.5896 53.7856C45.5896 54.3313 45.5161 54.7983 45.367 55.1817C45.2198 55.5661 44.9739 55.9338 44.6302 56.2809L46.0108 58.7889C46.2315 58.3209 46.3438 57.7409 46.3438 57.0467H46.8938C46.8938 57.4203 46.8376 57.8234 46.7234 58.259C46.6091 58.6955 46.4755 59.0543 46.3206 59.3355L47.2326 60.8771H46.5956L46.5946 60.8781ZM43.2892 58.7771C43.2892 59.31 43.3831 59.7219 43.5681 60.009C43.752 60.2951 43.9999 60.4386 44.3078 60.4386C44.5876 60.4386 44.8432 60.3472 45.0717 60.1653C45.3031 59.9844 45.5238 59.7022 45.7339 59.3227L44.2497 56.6171C43.8779 56.9661 43.6262 57.2994 43.4906 57.613C43.357 57.9276 43.2883 58.315 43.2883 58.7751L43.2892 58.7771ZM45.0387 53.7856C45.0387 52.9971 44.8325 52.6029 44.423 52.6029C44.2458 52.6029 44.1054 52.7051 44.0096 52.9057C43.9108 53.1082 43.8614 53.4002 43.8614 53.7856C43.8614 54.1307 43.9098 54.4935 44.0057 54.872C44.1015 55.2535 44.2245 55.572 44.3775 55.8306C44.6311 55.5681 44.8035 55.2653 44.8964 54.9261C44.9903 54.5869 45.0387 54.2054 45.0387 53.7856Z" fill="white"/>
</svg>
