<svg width="33" height="33" viewBox="0 0 33 33" fill="none" xmlns="http://www.w3.org/2000/svg">
<g clip-path="url(#clip0_887_20733)">
<path fill-rule="evenodd" clip-rule="evenodd" d="M33 16.5C33 25.6127 25.6127 33 16.5 33C7.38733 33 0 25.6127 0 16.5C0 7.38733 7.38733 0 16.5 0C25.6127 0 33 7.38733 33 16.5ZM11.0492 14.9885C9.39627 15.7102 7.69801 16.4517 6.14505 17.3071C5.33415 17.9009 6.41189 18.3208 7.42301 18.7148C7.58374 18.7774 7.74276 18.8394 7.89229 18.9012C8.01673 18.9395 8.14323 18.9798 8.27145 19.0207C9.39599 19.3789 10.6499 19.7784 11.7416 19.1775C13.535 18.1473 15.2274 16.9562 16.9186 15.7661C17.4727 15.3761 18.0266 14.9863 18.5839 14.6023C18.61 14.5856 18.6394 14.5665 18.6717 14.5456C19.1464 14.2379 20.2141 13.5457 19.8192 14.4994C18.8853 15.5208 17.8849 16.4249 16.8792 17.3339C16.2013 17.9466 15.5209 18.5615 14.8568 19.216C14.2784 19.6859 13.6777 20.6311 14.3254 21.2892C15.8172 22.3335 17.3324 23.3525 18.8466 24.371C19.3393 24.7024 19.832 25.0337 20.3237 25.3659C21.1571 26.0313 22.4596 25.493 22.6428 24.4533C22.7243 23.975 22.8061 23.4968 22.8879 23.0185C23.34 20.3753 23.7922 17.7311 24.1917 15.0793C24.2461 14.6633 24.3076 14.2473 24.3692 13.8312C24.5184 12.8226 24.6679 11.8127 24.7146 10.7986C24.5943 9.78663 23.3672 10.0092 22.6844 10.2367C19.1746 11.5723 15.6998 13.0068 12.2388 14.4667C11.8467 14.6403 11.4493 14.8138 11.0492 14.9885Z" fill="#393335"/>
</g>
<defs>
<clipPath id="clip0_887_20733">
<rect width="33" height="33" fill="white"/>
</clipPath>
</defs>
</svg>
