<svg width="100" height="36" viewBox="0 0 100 36" fill="none" xmlns="http://www.w3.org/2000/svg">
<path fill-rule="evenodd" clip-rule="evenodd" d="M58.7149 5.41726C59.4009 5.41237 60.3301 5.35513 61.0167 5.35513C61.15 5.35513 61.26 5.46329 61.26 5.59935C61.26 5.73397 61.15 5.84242 61.0167 5.84242C60.3301 5.84242 59.4009 5.78517 58.7149 5.78028V14.4808C58.7149 14.8398 58.7733 15.2414 58.999 15.5345C59.1827 15.7767 59.4282 15.8886 59.7317 15.8886C60.0823 15.8886 60.3857 15.7738 60.6103 15.5009C61.0726 14.9399 60.9231 14.4737 60.9231 13.823C60.9231 13.6893 60.9943 13.531 61.2151 13.531C61.4344 13.531 61.5067 13.6893 61.5067 13.823C61.5067 14.6281 61.22 15.5742 60.5538 16.1104C59.9637 16.5842 59.1438 16.7076 58.4095 16.7076C57.5856 16.7076 56.7289 16.5329 56.1189 15.9407C55.5173 15.3562 55.3342 14.5295 55.3342 13.7154V5.78H53.4814V5.41698C54.9548 5.41698 58.3352 4.68176 58.3516 0.679962V0.604004L58.7149 1.28717V5.41726ZM60.8411 26.3919C61.2683 26.3919 61.6371 26.5441 61.9396 26.9094C62.2134 27.2735 62.3686 27.8218 62.3686 28.5806C62.3686 29.1301 62.3055 29.6771 62.1829 30.1946C62.032 30.7092 61.849 31.1683 61.6037 31.5325C61.3299 31.9274 61.0242 32.2318 60.6275 32.4757C60.2308 32.6891 59.8022 32.8117 59.284 32.8117C58.9795 32.8117 58.674 32.7794 58.3974 32.6891C58.0917 32.6279 57.758 32.5065 57.3907 32.3523L57.3599 32.262C57.4506 31.5906 57.5415 30.9253 57.6365 30.2559C57.7272 29.5845 57.8179 28.9152 57.8809 28.247C57.9716 27.6084 58.0623 26.9387 58.1254 26.2397C58.216 25.5701 58.2747 24.8714 58.3683 24.1402L57.0248 23.9587L57.0556 23.6857C57.3311 23.6244 57.5752 23.5626 57.8179 23.5321C58.0917 23.5013 58.3361 23.4737 58.5526 23.4737C58.674 23.4737 58.765 23.5016 58.8263 23.5933C58.8865 23.6552 58.9182 23.7455 58.9182 23.8352C58.9182 23.866 58.9181 23.9886 58.8865 24.2037C58.8865 24.4448 58.8586 24.6902 58.8263 24.9916C58.7967 25.2959 58.765 25.6308 58.7017 25.9964C58.674 26.3306 58.6415 26.6962 58.5802 27.0313C58.5526 27.365 58.4912 27.6673 58.4587 27.9743C58.4279 28.2475 58.3977 28.461 58.3683 28.6146H58.3974C58.5802 28.1569 58.7967 27.7913 58.9795 27.5178C59.1919 27.2134 59.4067 27.0003 59.6208 26.8162C59.8342 26.6654 60.0463 26.5443 60.2308 26.4842C60.443 26.4229 60.6595 26.3922 60.8411 26.3922V26.3919ZM60.7179 26.8786C60.5365 26.8786 60.352 26.9387 60.1399 27.0308C59.9245 27.1539 59.7127 27.3365 59.4993 27.5779C59.284 27.8218 59.0413 28.1874 58.8263 28.5806C58.6127 29.0058 58.3974 29.5264 58.1855 30.1653L57.9106 31.9884C58.2163 32.1098 58.4915 32.2019 58.7345 32.2312C58.9798 32.2925 59.1922 32.2925 59.3456 32.2925C59.8344 32.2925 60.2311 32.1711 60.5368 31.9269C60.8719 31.6826 61.1146 31.3493 61.2974 30.9851C61.4802 30.6198 61.6037 30.2234 61.6967 29.7965C61.7585 29.3708 61.7865 28.9764 61.7865 28.6137C61.7865 28.0347 61.6967 27.5773 61.5139 27.3037C61.2974 27.0302 61.055 26.878 60.7182 26.878L60.7179 26.8786ZM66.2781 26.4227C66.5193 26.4227 66.7329 26.4506 67.0096 26.5133C67.2523 26.5444 67.4969 26.6347 67.7704 26.7267L68.1084 26.3922L68.2912 26.423C68.231 26.9097 68.136 27.426 68.0761 27.9743C67.9866 28.5211 67.9253 29.0397 67.8315 29.5546C67.7701 30.0738 67.7114 30.5594 67.6501 31.0139C67.5888 31.4715 67.558 31.8665 67.5257 32.2027C67.7114 32.2027 67.925 32.1426 68.136 32.0494C68.3525 31.9588 68.5341 31.8667 68.7181 31.7465C68.7794 31.7759 68.8091 31.8066 68.8091 31.8667L68.9009 31.9588C68.7794 32.0816 68.6568 32.203 68.5045 32.2936C68.3816 32.4133 68.2601 32.507 68.1357 32.5979C67.9863 32.69 67.8637 32.7481 67.7408 32.8125C67.6501 32.839 67.5254 32.8727 67.467 32.8727C67.3147 32.8727 67.1933 32.839 67.1308 32.7803C67.0398 32.7176 67.009 32.6287 66.9768 32.5381C66.948 32.4472 66.948 32.3247 66.948 32.2033C66.948 32.0819 66.9768 31.9591 66.9768 31.8671C67.009 31.6844 67.0398 31.4721 67.0689 31.2308C67.0968 31.0145 67.1308 30.8022 67.1933 30.6506H67.1308C66.948 31.0757 66.7632 31.4413 66.5496 31.716C66.3363 32.0204 66.1227 32.2323 65.9091 32.4133C65.6937 32.5695 65.5109 32.69 65.2988 32.7481C65.0834 32.8123 64.9007 32.8387 64.7178 32.8387C64.259 32.8387 63.894 32.6561 63.6165 32.3241C63.3444 31.9585 63.1921 31.4102 63.1921 30.6836C63.1921 30.1046 63.2535 29.5546 63.3735 29.0397C63.4967 28.5211 63.7103 28.0646 63.9544 27.7024C64.2276 27.3046 64.5351 27.0003 64.9332 26.7578C65.2991 26.5444 65.7551 26.423 66.2778 26.423L66.2781 26.4227ZM64.8396 32.3526C65.0242 32.3526 65.2069 32.2931 65.422 32.1717C65.6327 32.0811 65.8492 31.8981 66.0616 31.6568C66.2781 31.3792 66.49 31.0469 66.7329 30.6203C66.9483 30.1946 67.1619 29.6775 67.3755 29.0673C67.4063 28.765 67.4676 28.4607 67.4969 28.1569C67.5583 27.8511 67.6181 27.5474 67.6504 27.2433C67.3429 27.1234 67.0695 27.031 66.8236 27.0006C66.5807 26.9393 66.3671 26.91 66.1843 26.91C65.7245 26.91 65.3281 27.0621 64.9934 27.3049C64.6888 27.5477 64.445 27.8514 64.259 28.2478C64.0771 28.6149 63.9219 29.0066 63.8623 29.4335C63.8004 29.8592 63.7391 30.2571 63.7391 30.5902C63.7391 31.198 63.8623 31.6251 64.0454 31.928C64.2279 32.2027 64.5043 32.3532 64.8396 32.3532V32.3526ZM71.0392 26.36C71.1915 26.36 71.285 26.3922 71.3435 26.423C71.4373 26.4509 71.4681 26.5443 71.4681 26.635C71.4681 26.8165 71.4373 27.0313 71.3743 27.3371C71.3435 27.6409 71.2853 27.9743 71.224 28.3997H71.2528C71.4376 27.9438 71.5879 27.6089 71.7727 27.3371C71.9555 27.0621 72.1383 26.8472 72.2906 26.727C72.4734 26.5751 72.6561 26.4845 72.8084 26.423C72.9941 26.3922 73.1464 26.36 73.2679 26.36C73.5123 26.36 73.6939 26.423 73.8183 26.5133C73.9087 26.6347 73.9717 26.7883 73.9717 26.939L73.7869 27.1234C73.6338 27.0311 73.512 27.0003 73.4216 27.0003C73.3001 26.9712 73.2077 26.9712 73.1156 26.9712C72.7177 26.9712 72.3519 27.2134 71.9845 27.7303C71.6495 28.2167 71.3161 29.0061 71.0087 30.1046L70.6416 32.7478H70.1528C70.2481 31.8063 70.3667 30.8634 70.4908 29.9202C70.6123 28.9773 70.7338 28.0355 70.8567 27.0313L69.6977 26.8472L69.7271 26.5754C69.9715 26.5138 70.2144 26.4512 70.3972 26.4233C70.6123 26.3925 70.8244 26.3603 71.0395 26.3603L71.0392 26.36ZM52.3233 31.3493L52.2007 31.4399C52.076 31.5319 51.8319 31.7454 51.4678 31.9283C51.131 32.111 50.673 32.2617 50.1568 32.2617C49.668 32.2617 49.2682 32.1113 49.0241 31.8671C48.7506 31.5906 48.5969 31.2299 48.5969 30.7705C48.5969 30.3157 48.7506 29.89 49.0563 29.4939C49.3609 29.1301 49.8169 28.7952 50.3992 28.5205L50.5207 28.4604L50.5837 28.551L52.353 31.137L52.414 31.2584L52.3233 31.349V31.3493ZM50.7651 27.6078C50.673 27.4556 50.6117 27.336 50.5207 27.2134C50.2783 26.7877 50.124 26.513 50.124 25.9647C50.124 25.5114 50.278 25.1139 50.5512 24.842C50.8572 24.5363 51.2539 24.3553 51.6811 24.3553C52.0176 24.3553 52.2922 24.475 52.505 24.6899C52.7197 24.9019 52.8412 25.1754 52.8412 25.5396C52.8412 26.026 52.6276 26.4224 52.2925 26.7572C51.9871 27.092 51.5277 27.3639 50.9787 27.6665L50.8575 27.76L50.7651 27.6078ZM52.8093 31.8667L53.3286 32.6563V32.688H53.3608H53.3899L53.9081 32.3532V32.3224L53.2684 31.3795L53.2071 31.2581L53.2992 31.1968C53.4207 31.0141 53.6052 30.8007 53.788 30.4981C53.9708 30.1938 54.183 29.796 54.3675 29.3095L54.3995 29.1602C54.4611 28.9756 54.489 28.9146 54.5209 28.8855H53.8801C53.8493 28.8855 53.8493 28.8562 53.8493 28.8562V28.8855C53.8493 28.9146 53.8185 28.9759 53.8185 29.0389C53.7877 29.1295 53.7572 29.2198 53.7264 29.3412V29.3705C53.6648 29.5532 53.5727 29.7959 53.4512 30.0402C53.3283 30.255 53.2068 30.4656 53.0545 30.6819L52.9345 30.8326L52.8087 30.6483L51.224 28.274L51.0996 28.1555L51.2824 28.0634C52.0752 27.6656 52.5962 27.2721 52.9342 26.8455C53.3893 26.3295 53.5122 25.8134 53.5122 25.4493C53.5122 25.0253 53.3599 24.5984 53.0234 24.322C52.7485 24.0797 52.3521 23.8968 51.802 23.8968C51.0993 23.8968 50.4893 24.139 50.0918 24.5046C49.6674 24.8702 49.4216 25.4173 49.4216 26.0576C49.4216 26.6948 49.6352 27.0604 49.9714 27.5764C50.0348 27.6656 50.0607 27.7591 50.1563 27.8825L50.2159 28.0033L50.092 28.0939C49.4832 28.4595 48.9331 28.7636 48.5364 29.1887C48.14 29.6144 47.9258 30.1334 47.9258 30.8919C47.9258 31.5003 48.1075 31.9565 48.4455 32.2928C48.8113 32.6259 49.36 32.7798 50.0019 32.7798C50.6416 32.7798 51.1932 32.6259 51.5881 32.4449C51.9863 32.2606 52.2917 32.0485 52.4748 31.8967L52.5962 31.8046L52.7192 31.714L52.8087 31.8662L52.8093 31.8667ZM41.513 29.6458C42.6408 29.5845 43.5272 29.403 44.1084 29.13C44.7187 28.8565 45.023 28.4296 45.023 27.8831C45.023 27.577 44.9337 27.336 44.78 27.1533C44.6277 26.9384 44.3528 26.8461 43.9858 26.8461C43.2848 26.8461 42.7024 27.0918 42.3086 27.6078C41.8797 28.0948 41.6356 28.7644 41.513 29.6461V29.6458ZM42.9189 32.8393C42.5208 32.8393 42.1863 32.7809 41.9413 32.627C41.6664 32.5056 41.4517 32.3227 41.3302 32.1112C41.1779 31.8978 41.0858 31.6565 41.0239 31.3496C40.9657 31.0472 40.9335 30.7412 40.9335 30.4389C40.9335 30.1653 40.9335 29.8906 40.9655 29.5851C41.0236 29.2828 41.0858 28.9767 41.1779 28.6744C41.2686 28.3689 41.3898 28.0954 41.5438 27.791C41.6961 27.5181 41.88 27.2732 42.1244 27.0618C42.338 26.8467 42.6132 26.6669 42.9497 26.5441C43.2555 26.4227 43.6199 26.36 44.0471 26.36C44.324 26.36 44.5681 26.3919 44.78 26.4857C44.9645 26.5749 45.1168 26.6669 45.238 26.8162C45.3612 26.9393 45.4519 27.1234 45.5132 27.2735C45.5731 27.4562 45.5731 27.6409 45.5731 27.8218C45.5731 28.2475 45.4839 28.6143 45.238 28.9157C44.9953 29.1904 44.6908 29.4332 44.324 29.5854C43.9256 29.7681 43.4987 29.8909 43.0085 29.9818C42.5211 30.0738 42.0035 30.1351 41.4825 30.1659C41.4517 30.226 41.4517 30.2861 41.4517 30.3474V30.53C41.4517 30.7417 41.4825 30.9569 41.513 31.1686C41.574 31.3809 41.6356 31.565 41.7582 31.7477C41.8489 31.9292 42.0032 32.0813 42.2148 32.2027C42.3976 32.3235 42.6728 32.3543 42.98 32.3543C43.3133 32.3543 43.6196 32.3235 43.9558 32.2335C44.2616 32.1734 44.5676 32.0508 44.9012 31.8987L45.0546 32.2626C44.841 32.3857 44.5353 32.539 44.1407 32.6575C43.7748 32.7818 43.3458 32.8401 42.9186 32.8401L42.9189 32.8393ZM40.8733 23.3488C41.0236 23.3488 41.1779 23.381 41.3607 23.381C41.5435 23.4101 41.7263 23.4423 41.8797 23.5021L41.789 23.9584C41.6356 23.9276 41.4822 23.8971 41.2994 23.8663H40.9012C40.6586 23.8663 40.4461 23.8971 40.2633 23.9584C40.0791 24.049 39.9268 24.1718 39.8039 24.3548C39.681 24.565 39.5595 24.8081 39.4674 25.1748C39.3753 25.5111 39.3151 25.9354 39.2857 26.4848H41.0239L40.9657 26.8783H39.1928C39.1001 27.6075 39.0405 28.3068 38.9495 29.0391C38.8588 29.7364 38.7667 30.4662 38.6757 31.1675C38.6147 31.6838 38.5531 32.1722 38.4901 32.688C38.3997 33.2057 38.309 33.6605 38.1553 34.0563C38.0033 34.4821 37.7897 34.8155 37.5159 35.0916C37.2105 35.3329 36.8429 35.4555 36.3852 35.4555C36.2311 35.4555 36.048 35.4555 35.8963 35.4247C35.7118 35.3956 35.529 35.3634 35.3459 35.3019C35.3767 35.2406 35.4073 35.1819 35.4073 35.1192C35.4381 35.0608 35.4686 34.9978 35.4686 34.9086C35.6825 34.9699 35.833 34.9978 35.9574 34.9978H36.3244C36.7807 34.9978 37.148 34.8152 37.3927 34.4217C37.6662 34.0561 37.849 33.4494 37.9707 32.6264C38.0643 31.8665 38.155 31.1384 38.2474 30.4659C38.3378 29.7669 38.3997 29.1602 38.461 28.6134C38.5206 28.0945 38.5824 27.6659 38.6144 27.3357C38.6438 27.0302 38.6754 26.878 38.6754 26.878H37.6371L37.6662 26.6338C37.849 26.6045 38.0335 26.5432 38.1872 26.5124C38.3689 26.4845 38.5531 26.4494 38.7054 26.391L38.7362 26.1488C38.7975 25.7525 38.8588 25.3563 38.9495 25.0255C39.0405 24.6893 39.162 24.3824 39.3462 24.1393C39.4985 23.8971 39.7138 23.6862 39.9579 23.5634C40.1994 23.4101 40.5066 23.3485 40.8739 23.3485L40.8733 23.3488ZM32.9005 32.3532C33.085 32.3532 33.2678 32.2936 33.4843 32.1722C33.6961 32.0802 33.9115 31.8975 34.1556 31.6562C34.3663 31.3798 34.5848 31.0467 34.7952 30.6198C35.0088 30.1941 35.2239 29.6766 35.4375 29.067C35.4991 28.7644 35.5282 28.4601 35.5898 28.156C35.6206 27.8506 35.6822 27.5462 35.7435 27.2422C35.4375 27.1225 35.1611 27.0305 34.9182 27C34.6738 26.9387 34.4602 26.9108 34.2774 26.9108C33.7889 26.9108 33.3925 27.0613 33.085 27.3043C32.779 27.5465 32.5055 27.8508 32.3227 28.2472C32.1399 28.614 32.0167 29.0072 31.9569 29.4329C31.865 29.8598 31.8336 30.2562 31.8336 30.591C31.8336 31.1994 31.926 31.626 32.1396 31.9289C32.3224 32.2024 32.5683 32.354 32.9005 32.354V32.3532ZM34.3666 26.4218C34.5848 26.4218 34.8261 26.4497 35.0705 26.5124C35.3149 26.5432 35.5898 26.6338 35.8652 26.7259L36.2018 26.391L36.3846 26.4218C36.2939 26.9102 36.2306 27.4246 36.1402 27.9731C36.0475 28.5202 35.9862 29.0391 35.9266 29.5549C35.833 30.0727 35.7743 30.5579 35.7438 31.0142C35.6825 31.4704 35.6206 31.8668 35.6206 32.2016C35.8051 32.2016 35.9862 32.1415 36.2015 32.0494C36.4151 31.9571 36.6284 31.8667 36.8115 31.7465C36.8423 31.7744 36.8717 31.8066 36.9022 31.8667C36.9022 31.8975 36.9341 31.928 36.9649 31.9574C36.842 32.0805 36.7205 32.2019 36.5979 32.2939C36.4752 32.4139 36.3244 32.5056 36.2015 32.5983C36.0771 32.6886 35.9571 32.747 35.8327 32.8117C35.7112 32.8396 35.6203 32.8712 35.5281 32.8712C35.3759 32.8712 35.2838 32.8396 35.1945 32.7809C35.1315 32.7176 35.0702 32.627 35.0394 32.5381C35.0394 32.4461 35.0086 32.323 35.0394 32.2019C35.0394 32.0805 35.0394 31.9574 35.0702 31.8671C35.0702 31.6844 35.101 31.4707 35.1315 31.2299C35.1609 31.0147 35.2236 30.8013 35.2544 30.6509H35.1945C35.0394 31.076 34.8258 31.4416 34.6122 31.7152C34.4294 32.0195 34.2169 32.2329 34.0022 32.4141C33.7886 32.5692 33.5732 32.6889 33.3608 32.7472C33.1797 32.812 32.9644 32.8399 32.7787 32.8399C32.3544 32.8399 31.9856 32.6572 31.6828 32.3232C31.409 31.9579 31.2539 31.41 31.2539 30.6831C31.2539 30.104 31.314 29.5558 31.4663 29.0397C31.5892 28.5208 31.7738 28.0643 32.0472 27.7018C32.2928 27.3043 32.6296 27 32.9937 26.7572C33.3919 26.5438 33.8499 26.4224 34.366 26.4224L34.3666 26.4218ZM28.2931 32.3532C28.5991 32.3532 28.9337 32.3224 29.2708 32.2614C29.5762 32.1722 29.8807 32.0802 30.1865 31.928L30.3692 32.2614C30.0926 32.4136 29.7883 32.5378 29.421 32.6563C29.054 32.7806 28.6892 32.839 28.2931 32.839C27.9261 32.839 27.6201 32.7806 27.3449 32.6563C27.1005 32.5683 26.8886 32.3845 26.7058 32.2016C26.5518 31.9893 26.4289 31.7465 26.3687 31.4704C26.2769 31.1985 26.2461 30.862 26.2461 30.5289C26.2461 30.3154 26.2769 30.0727 26.3071 29.7672C26.3397 29.4936 26.3684 29.1896 26.4606 28.8565C26.5512 28.551 26.673 28.2467 26.7945 27.9426C26.9496 27.6403 27.1324 27.3975 27.3754 27.1533C27.6198 26.9108 27.895 26.7264 28.2025 26.5743C28.5361 26.4221 28.9337 26.3594 29.3931 26.3594C29.668 26.3594 29.9113 26.3913 30.1249 26.45C30.3385 26.4851 30.5201 26.5435 30.643 26.605C30.7645 26.6344 30.8272 26.6956 30.8874 26.7572C30.9487 26.8156 30.981 26.9108 30.9487 27.0615C30.9487 27.0923 30.9179 27.1536 30.9179 27.2425C30.8871 27.3363 30.8595 27.4559 30.7965 27.5773C30.7645 27.7018 30.7366 27.8509 30.675 27.9737C30.643 28.1258 30.5828 28.2472 30.5538 28.3379H30.2463L30.3385 27.0308C30.2155 26.9706 30.0327 26.9387 29.8496 26.9108C29.668 26.8786 29.4515 26.8464 29.2704 26.8464C28.8412 26.8464 28.4745 26.9706 28.1714 27.1536C27.8642 27.3639 27.6198 27.6406 27.4062 27.9737C27.1926 28.3378 27.0403 28.7035 26.9174 29.1611C26.8267 29.6156 26.7651 30.104 26.7651 30.591C26.7651 30.8338 26.7945 31.0763 26.8264 31.2883C26.8883 31.5032 26.9787 31.6847 27.0694 31.8673C27.1923 32.0195 27.3443 32.142 27.5608 32.2329C27.7424 32.3233 27.9851 32.3538 28.2926 32.3538L28.2931 32.3532ZM92.2958 10.6922V11.1806C92.2958 13.6337 92.3056 16.1857 95.6279 16.178C96.047 16.1768 96.4699 16.1495 96.8643 16.0011C97.3608 15.8138 97.3482 15.5322 96.8991 15.3153C96.8553 15.2929 96.8104 15.2742 96.7678 15.2506L96.7652 15.248C96.1702 14.9201 95.796 14.3019 95.796 13.6199C95.796 12.5956 96.6282 11.8138 97.6522 11.8138C98.6767 11.8138 99.5072 12.5953 99.5072 13.6199C99.5072 13.6734 99.506 13.7283 99.5011 13.7821L99.4971 13.8207L99.4931 13.8555C99.3961 14.6523 98.7898 15.5449 98.0713 15.9062C97.531 16.178 96.9624 16.3874 96.372 16.5186C95.7868 16.6469 95.192 16.7093 94.5944 16.7067C91.1688 16.6918 88.8572 14.6273 88.852 10.8041C88.8505 10.0125 88.9766 9.22978 89.2674 8.49167C89.5368 7.81253 89.9301 7.21135 90.454 6.70307C90.9854 6.18817 91.6104 5.81049 92.3041 5.55362C93.0765 5.26539 93.8975 5.14947 94.7182 5.14947C95.6276 5.14947 96.5473 5.29789 97.3629 5.71584C98.0751 6.08058 98.6441 6.60324 99.0345 7.30281C99.4502 8.04552 99.61 9.66617 99.6134 10.5104V10.5426C99.6134 10.6376 99.5596 10.6885 99.4637 10.6925H92.2952L92.2958 10.6922ZM92.3211 10.3292H95.8976C96.0346 10.3292 96.2235 10.3131 96.3205 10.2009C96.4276 10.0778 96.4402 9.81919 96.4391 9.66472C96.435 9.06525 96.3766 7.65663 96.1944 7.08421C96.0599 6.65791 95.8513 6.23306 95.5193 5.92124C95.2349 5.65315 94.9044 5.51134 94.5115 5.51134C94.2032 5.51278 93.9326 5.61488 93.6879 5.80186C93.4009 6.02248 93.1801 6.32049 93.0094 6.6372C92.7912 7.04595 92.6401 7.49468 92.5341 7.94485C92.4118 8.46982 92.3482 9.78986 92.3211 10.3295V10.3292ZM83.1576 7.32843C83.316 6.99303 83.5278 6.68985 83.7849 6.41716C84.1329 6.0458 84.546 5.75784 85.0075 5.5444C85.4902 5.32291 86.0044 5.21045 86.5361 5.21217C86.9126 5.21217 87.2808 5.27833 87.6202 5.44257C87.9285 5.58956 88.1818 5.80301 88.3663 6.09066C88.5598 6.39125 88.641 6.73126 88.641 7.08651C88.641 7.42335 88.5612 7.74352 88.3877 8.03404C88.2227 8.3145 87.9947 8.53397 87.7114 8.69362C87.4121 8.86045 87.085 8.94042 86.7433 8.94042C86.4126 8.94042 86.091 8.8757 85.7968 8.72095C85.5282 8.58029 85.3141 8.37834 85.1592 8.11772C84.998 7.84101 84.928 7.52805 84.928 7.21019C84.928 6.90586 84.9891 6.61073 85.1267 6.33747C85.2579 6.08059 85.4448 5.87377 85.6831 5.71326C85.6992 5.70175 85.7151 5.69197 85.7315 5.68219C85.5757 5.72332 85.422 5.77682 85.2726 5.84298C84.8733 6.01615 84.5141 6.25288 84.1997 6.55492C83.8926 6.84775 83.6407 7.18402 83.4573 7.56717C83.2877 7.92616 83.1893 8.30501 83.1844 8.70168V9.04166V14.7323C83.1844 15.0515 83.2351 15.4071 83.4349 15.6671C83.5992 15.8817 83.8166 15.9815 84.0849 15.9815C85.0777 15.983 85.2925 14.8882 85.2925 14.1952C85.2925 14.0753 85.3898 13.978 85.5092 13.978C85.6281 13.978 85.7254 14.0753 85.7254 14.1952C85.6831 14.7547 85.4036 15.7045 84.8117 16.1797C84.2893 16.6 83.5632 16.707 82.9121 16.707C82.1823 16.707 81.017 16.5537 80.4778 16.029C79.9427 15.5092 79.7815 14.7774 79.7815 14.0557V9.04166V8.99306V8.89239V8.79112V8.68988V8.59035V8.48824V8.38841V8.28745V7.12303V7.10808C79.7792 6.79282 79.7259 6.44388 79.5299 6.18816C79.365 5.97358 79.1479 5.87405 78.8785 5.87405C77.887 5.87261 77.6723 6.96743 77.6723 7.66153C77.6723 7.78004 77.575 7.87699 77.4567 7.87699C77.3366 7.87699 77.2393 7.78004 77.2393 7.66153C77.2805 7.10205 77.5612 6.15165 78.1513 5.67674C78.6741 5.25677 79.4001 5.14947 80.0524 5.14947C80.7821 5.14947 81.9463 5.30194 82.4878 5.82748C82.9043 6.23278 83.0943 6.7701 83.1579 7.32843H83.1576ZM71.5044 14.6034C71.3322 14.9471 71.104 15.2555 70.8282 15.5296C70.4588 15.8987 70.0236 16.1791 69.542 16.3799C69.0097 16.6031 68.4455 16.7055 67.8692 16.7064C67.1978 16.7087 66.5118 16.6017 65.9105 16.291C65.3814 16.0192 64.9709 15.6191 64.6917 15.0956C64.3862 14.5197 64.276 13.8664 64.276 13.2212V7.12275C64.276 6.80374 64.2236 6.44821 64.0252 6.18788C63.8609 5.97329 63.6424 5.87377 63.3741 5.87377C62.3821 5.87233 62.1676 6.96715 62.1676 7.66125C62.1676 7.77976 62.0706 7.87668 61.9508 7.87668C61.8311 7.87668 61.7349 7.77976 61.7349 7.66125C61.7764 7.10004 62.0559 6.15137 62.6461 5.67646C63.1685 5.25649 63.8957 5.14919 64.5472 5.14919C65.2781 5.14919 66.4422 5.30249 66.9822 5.82717C67.5165 6.34695 67.6786 7.07875 67.6786 7.79931V13.819C67.6786 14.2901 67.7546 14.8286 68.0692 15.2003C68.3672 15.5544 68.805 15.6648 69.2532 15.6622C69.5463 15.6599 69.8206 15.5938 70.0855 15.4692C70.3509 15.3447 70.5904 15.175 70.7977 14.9653C71.0035 14.7561 71.167 14.518 71.2876 14.2513C71.4028 14.0016 71.4687 13.735 71.4713 13.46V13.4462V7.12218C71.4713 6.80318 71.4186 6.44764 71.2191 6.18732C71.0556 5.97273 70.8374 5.87321 70.5679 5.87321C69.5759 5.87177 69.3603 6.96656 69.3603 7.66066C69.3603 7.77917 69.2642 7.87612 69.1447 7.87612C69.0261 7.87612 68.93 7.77917 68.93 7.66066C68.9697 7.09945 69.2492 6.15078 69.8405 5.67587C70.3633 5.2559 71.0904 5.1486 71.7404 5.1486C72.4702 5.1486 73.6355 5.30193 74.177 5.8266C74.7095 6.34639 74.8719 7.07816 74.8719 7.79873V14.7325C74.8719 15.0504 74.9243 15.4068 75.1223 15.6674C75.2867 15.8803 75.5055 15.9801 75.7746 15.9801C76.7663 15.9815 76.7851 15.0326 76.7851 14.3385C76.7851 14.2185 76.8827 14.1227 77.0013 14.1227C77.1207 14.1227 77.2169 14.2188 77.2169 14.3385C77.1769 14.898 77.0919 15.7034 76.5021 16.1783C75.979 16.5985 75.2522 16.7056 74.6004 16.7056C73.8695 16.7056 72.7059 16.5522 72.1653 16.0276C71.7675 15.6398 71.5764 15.1338 71.5041 14.6028L71.5044 14.6034ZM33.0251 10.6922V11.1806C33.0251 13.6337 33.0349 16.1857 36.3561 16.178C36.7752 16.1768 37.197 16.1495 37.5939 16.0011C38.0888 15.8138 38.0749 15.5322 37.6284 15.3153C37.585 15.2929 37.5401 15.2742 37.4952 15.2506L37.4937 15.248C36.8999 14.9201 36.5245 14.3019 36.5245 13.6199C36.5245 12.5956 37.3567 11.8138 38.381 11.8138C39.4061 11.8138 40.2371 12.5953 40.2371 13.6199C40.2371 13.6734 40.2357 13.7283 40.2296 13.7821L40.2256 13.8207L40.2222 13.8555C40.1243 14.6523 39.5183 15.5449 38.7995 15.9062C38.2606 16.178 37.6918 16.3874 37.1002 16.5186C36.5153 16.6469 35.9211 16.7093 35.3235 16.7067C31.8978 16.6918 29.5863 14.6273 29.5828 10.8041C29.5814 10.0125 29.7049 9.22978 29.9979 8.49167C30.2673 7.81253 30.6583 7.21135 31.1833 6.70307C31.7148 6.18817 32.3409 5.81049 33.0332 5.55362C33.8055 5.26539 34.6251 5.14947 35.4473 5.14947C36.3541 5.14947 37.2761 5.29789 38.0908 5.71584C38.803 6.08058 39.3709 6.60324 39.7624 7.30281C40.1793 8.04552 40.3387 9.66617 40.3413 10.5104V10.5426C40.3413 10.6376 40.2889 10.6885 40.1928 10.6925H33.0246L33.0251 10.6922ZM33.0499 10.3292H36.6258C36.7643 10.3292 36.9523 10.3131 37.0487 10.2009C37.1558 10.0778 37.1696 9.81919 37.1687 9.66472C37.1633 9.06525 37.1051 7.65663 36.9238 7.08421C36.7867 6.65791 36.5786 6.23306 36.2478 5.92124C35.9646 5.65315 35.6341 5.51134 35.2412 5.51134C34.9331 5.51278 34.6623 5.61488 34.4164 5.80186C34.1297 6.02248 33.91 6.32049 33.7393 6.6372C33.5197 7.04595 33.3697 7.49468 33.2641 7.94485C33.1417 8.46982 33.0767 9.78986 33.0505 10.3295L33.0499 10.3292ZM8.51678 0.944606C9.51972 0.944606 10.5166 1.10022 11.4548 1.45547C12.3178 1.78224 13.1051 2.27124 13.7701 2.92018C14.4339 3.56855 14.9391 4.5969 15.2872 5.46589C15.6677 6.42348 15.8301 7.35202 15.8301 8.38411C15.8301 9.57959 15.6666 10.6916 15.24 11.8083C14.868 12.7757 14.3269 13.9038 13.5856 14.623C12.8645 15.3214 12.0187 15.8411 11.0794 16.1814C10.0626 16.5502 8.99321 16.7076 7.91802 16.7076C7.14365 16.7076 6.37502 16.6063 5.6303 16.3972C4.91782 16.1978 4.24161 15.8926 3.62269 15.4848C3.01269 15.0818 2.47122 14.5709 2.02962 13.9801C1.5604 13.3556 1.21353 12.3945 0.980642 11.6449C0.713787 10.7946 0.603516 9.99236 0.603516 9.09978C0.603516 7.99751 0.774221 7.00423 1.16371 5.97703C1.52527 5.02318 2.05698 3.91775 2.76313 3.19345C3.47273 2.4631 4.32223 1.91312 5.2604 1.53803C6.29471 1.12266 7.40359 0.944606 8.51678 0.944606ZM8.2882 1.31479C7.50347 1.31479 6.83993 1.62488 6.28751 2.18119C5.6113 2.86034 5.19822 4.08459 4.93626 5.00219C4.55455 6.33977 4.43969 7.71359 4.43969 9.09978C4.43969 10.0847 4.51193 10.9896 4.70653 11.953C4.86112 12.7184 5.09948 13.7482 5.46767 14.4386C5.75842 14.986 6.14359 15.4919 6.64909 15.8472C7.10795 16.1711 7.62583 16.3371 8.18573 16.3371C8.74478 16.3371 9.25401 16.1662 9.70798 15.8409C10.2293 15.4681 10.6211 14.9195 10.9141 14.3485C11.3071 13.5819 11.5518 12.4535 11.7104 11.6087C11.9211 10.4753 11.9934 9.38974 11.9934 8.2354C11.9934 7.0077 11.8938 5.80329 11.5452 4.62249C11.2996 3.78629 10.909 2.68804 10.2714 2.09116C9.71375 1.56764 9.0502 1.31451 8.28792 1.31451L8.2882 1.31479ZM24.9337 12.1733L26.9298 7.77687C27.0046 7.61348 27.0821 7.44148 27.1281 7.26831C27.1681 7.12075 27.1917 6.97029 27.1917 6.81726C27.1917 6.51292 27.1057 6.23218 26.8572 6.0429C26.5766 5.82745 26.1649 5.78 25.8218 5.78H24.9596V5.41698H29.8473V5.78H29.3151C29.0603 5.78 28.813 5.82977 28.5963 5.96697C28.3467 6.12518 28.1394 6.38176 27.9785 6.62627C27.7128 7.03099 27.4811 7.46506 27.2775 7.90258L23.5787 16.438H23.2727L18.9938 7.26427C18.8464 6.96655 18.6866 6.6375 18.4964 6.36337C18.3688 6.17582 18.2091 6.00926 18.0032 5.9106C17.7876 5.80704 17.5216 5.77972 17.287 5.77972H16.8981V5.4167H23.7707V5.77972H23.1768C22.9822 5.77972 22.7663 5.81682 22.6152 5.95029C22.4793 6.0688 22.4255 6.22558 22.4281 6.40278C22.4295 6.53884 22.4756 6.68811 22.5228 6.81439C22.5976 7.01373 22.6826 7.21078 22.7724 7.40523L24.9331 12.1733H24.9337ZM47.064 7.32843C47.2214 6.99303 47.4333 6.68985 47.6904 6.41716C48.0384 6.0458 48.4512 5.75784 48.9129 5.5444C49.396 5.32291 49.9098 5.21045 50.4415 5.21217C50.8192 5.21217 51.1863 5.27833 51.5268 5.44257C51.8337 5.58956 52.0867 5.80301 52.2715 6.09066C52.465 6.39125 52.5473 6.73126 52.5459 7.08651C52.5459 7.42335 52.4664 7.74352 52.2925 8.03404C52.1282 8.3145 51.8996 8.53397 51.6166 8.69362C51.3172 8.86045 50.9916 8.94042 50.6485 8.94042C50.3177 8.94042 49.9962 8.8757 49.7017 8.72095C49.4334 8.58029 49.2201 8.37834 49.0655 8.11772C48.9032 7.84101 48.8344 7.52805 48.8344 7.21019C48.8344 6.90586 48.8945 6.61073 49.0319 6.33747C49.1625 6.08059 49.3496 5.87377 49.588 5.71326C49.6044 5.70175 49.6217 5.69197 49.6381 5.68219C49.4812 5.72332 49.3278 5.77682 49.1775 5.84298C48.7782 6.01615 48.419 6.25288 48.1046 6.55492C47.798 6.84775 47.5473 7.18402 47.3625 7.56717C47.1932 7.92616 47.0942 8.30501 47.0893 8.70168V9.04166V14.7323C47.0893 15.0515 47.1417 15.4071 47.3412 15.6671C47.505 15.8817 47.7217 15.9815 47.9912 15.9815C48.9832 15.983 49.1988 14.8882 49.1988 14.1952C49.1988 14.0753 49.295 13.978 49.4147 13.978C49.5333 13.978 49.6303 14.0753 49.6303 14.1952C49.588 14.7547 49.3096 15.7045 48.7183 16.1797C48.1959 16.6 47.4684 16.707 46.8173 16.707C46.0875 16.707 44.9236 16.5537 44.3833 16.029C43.8485 15.5092 43.6873 14.7774 43.6873 14.0557V9.04166V8.99306V8.89239V8.79112V8.68988V8.59035V8.48824V8.38841V8.28745V7.12303V7.10808C43.685 6.79282 43.6311 6.44388 43.4351 6.18816C43.2718 5.97358 43.0534 5.87405 42.7839 5.87405C41.7922 5.87261 41.5775 6.96743 41.5775 7.66153C41.5775 7.78004 41.4804 7.87699 41.3618 7.87699C41.2421 7.87699 41.1459 7.78004 41.1459 7.66153C41.1874 7.10205 41.4669 6.15165 42.0571 5.67674C42.5798 5.25677 43.307 5.14947 43.9581 5.14947C44.6879 5.14947 45.852 5.30194 46.3932 5.82748C46.8115 6.23278 47.0009 6.7701 47.0645 7.32843H47.064Z" fill="#F9F9F9"/>
</svg>
