<svg width="34" height="33" viewBox="0 0 34 33" fill="none" xmlns="http://www.w3.org/2000/svg">
<g clip-path="url(#clip0_887_20735)">
<path fill-rule="evenodd" clip-rule="evenodd" d="M0 16.5C0 7.38733 7.61118 0 17 0C26.3888 0 34 7.38733 34 16.5C34 25.6127 26.3888 33 17 33C7.61118 33 0 25.6127 0 16.5ZM17.8893 21.9148C17.8893 21.9148 18.2166 21.8802 18.3842 21.7086C18.5376 21.5515 18.5323 21.2549 18.5323 21.2549C18.5323 21.2549 18.5119 19.87 19.1868 19.6655C19.852 19.4644 20.7061 21.0048 21.6125 21.5971C22.2972 22.045 22.8169 21.9469 22.8169 21.9469L25.239 21.9148C25.239 21.9148 26.5055 21.8404 25.9051 20.8915C25.8554 20.8138 25.5548 20.1894 24.1047 18.9067C22.5854 17.564 22.7894 17.7812 24.6182 15.4584C25.7322 14.0438 26.1774 13.1803 26.0381 12.8111C25.906 12.4578 25.0865 12.5516 25.0865 12.5516L22.3602 12.5677C22.3602 12.5677 22.1579 12.5415 22.0081 12.6268C21.8617 12.7105 21.7668 12.9057 21.7668 12.9057C21.7668 12.9057 21.3358 13.9999 20.7602 14.9311C19.546 16.8948 19.0609 16.9987 18.8622 16.8771C18.4002 16.5923 18.5154 15.7347 18.5154 15.1254C18.5154 13.2217 18.8188 12.4283 17.9256 12.2229C17.6294 12.1545 17.4113 12.1097 16.6529 12.1021C15.68 12.0928 14.8569 12.1055 14.3904 12.3227C14.08 12.4671 13.8406 12.7899 13.9869 12.8085C14.167 12.8313 14.575 12.9133 14.7913 13.1938C15.0707 13.5563 15.0609 14.3692 15.0609 14.3692C15.0609 14.3692 15.2215 16.6101 14.6858 16.888C14.3186 17.079 13.8148 16.6895 12.7319 14.9074C12.1777 13.9949 11.759 12.986 11.759 12.986C11.759 12.986 11.6783 12.7975 11.5337 12.6961C11.359 12.5736 11.1151 12.5356 11.1151 12.5356L8.52451 12.5516C8.52451 12.5516 8.13514 12.5618 7.99234 12.7231C7.86555 12.8659 7.98256 13.1625 7.98256 13.1625C7.98256 13.1625 10.0109 17.684 12.308 19.9629C14.4144 22.0517 16.8055 21.9148 16.8055 21.9148H17.8893Z" fill="#393335"/>
</g>
<defs>
<clipPath id="clip0_887_20735">
<rect width="34" height="33" fill="white"/>
</clipPath>
</defs>
</svg>
