<svg width="62" height="60" viewBox="0 0 62 60" fill="none" xmlns="http://www.w3.org/2000/svg">
<g clip-path="url(#clip0_400_6728)">
<path fill-rule="evenodd" clip-rule="evenodd" d="M0 30C0 13.4315 13.9112 0 31.0714 0C48.2317 0 62.1429 13.4315 62.1429 30C62.1429 46.5685 48.2317 60 31.0714 60C13.9112 60 0 46.5685 0 30ZM32.6969 39.8451C32.6969 39.8451 33.295 39.7821 33.6013 39.4702C33.8817 39.1845 33.872 38.6453 33.872 38.6453C33.872 38.6453 33.8347 36.1273 35.0684 35.7554C36.2842 35.3897 37.8451 38.1905 39.5019 39.2675C40.7533 40.0817 41.7032 39.9035 41.7032 39.9035L46.1302 39.8451C46.1302 39.8451 48.445 39.7099 47.3475 37.9846C47.2568 37.8433 46.7072 36.708 44.057 34.3758C41.2801 31.9346 41.6529 32.3294 44.9954 28.1061C47.0315 25.5343 47.8452 23.9641 47.5907 23.2929C47.3492 22.6506 45.8513 22.8211 45.8513 22.8211L40.8684 22.8504C40.8684 22.8504 40.4988 22.8028 40.2248 22.9579C39.9573 23.11 39.7839 23.4649 39.7839 23.4649C39.7839 23.4649 38.9961 25.4544 37.944 27.1474C35.7249 30.7179 34.8382 30.9067 34.475 30.6856C33.6305 30.1679 33.8412 28.6085 33.8412 27.5008C33.8412 24.0395 34.3957 22.5969 32.7633 22.2235C32.2218 22.0991 31.8231 22.0176 30.4371 22.0039C28.6589 21.987 27.1545 22.01 26.3018 22.4049C25.7345 22.6675 25.2968 23.2544 25.5643 23.2882C25.8934 23.3296 26.6391 23.4788 27.0346 23.9888C27.5452 24.6479 27.5273 26.1258 27.5273 26.1258C27.5273 26.1258 27.8208 30.2001 26.8417 30.7055C26.1706 31.0527 25.2498 30.3445 23.2706 27.1044C22.2575 25.4452 21.4924 23.6109 21.4924 23.6109C21.4924 23.6109 21.3448 23.2682 21.0805 23.0839C20.7613 22.8611 20.3154 22.792 20.3154 22.792L15.5805 22.8211C15.5805 22.8211 14.8688 22.8396 14.6078 23.133C14.3761 23.3926 14.59 23.9319 14.59 23.9319C14.59 23.9319 18.2973 32.1528 22.4957 36.2962C26.3456 40.094 30.7159 39.8451 30.7159 39.8451H32.6969Z" fill="white"/>
</g>
<defs>
<clipPath id="clip0_400_6728">
<rect width="62" height="60" fill="white"/>
</clipPath>
</defs>
</svg>
