<svg width="33" height="33" viewBox="0 0 33 33" fill="none" xmlns="http://www.w3.org/2000/svg">
<g clip-path="url(#clip0_887_20737)">
<path fill-rule="evenodd" clip-rule="evenodd" d="M16.5 33C7.38733 33 0 25.6127 0 16.5C0 7.38733 7.38733 0 16.5 0C25.6127 0 33 7.38733 33 16.5C33 25.6127 25.6127 33 16.5 33ZM17.0439 25.6798C22.4534 25.6776 26.8531 21.277 26.8552 15.8685C26.8563 13.247 25.8367 10.7819 23.9843 8.92746C22.1319 7.07293 19.6684 6.05113 17.0437 6.05C11.6358 6.05 7.23443 10.4512 7.23222 15.8608C7.23154 17.59 7.68329 19.2778 8.54191 20.7658L7.15 25.85L12.3511 24.4857C13.7842 25.2673 15.3977 25.6793 17.0398 25.6798H17.0439Z" fill="#393335"/>
<path fill-rule="evenodd" clip-rule="evenodd" d="M12.594 22.7093L9.50752 23.519L10.3314 20.5097L10.1375 20.2011C9.32114 18.9028 8.89001 17.4022 8.89063 15.8613C8.89241 11.365 12.5507 7.70703 17.0489 7.70703C19.227 7.70779 21.2746 8.55713 22.8142 10.0986C24.3539 11.64 25.2013 13.6888 25.2005 15.8679C25.1986 20.3645 21.5404 24.0228 17.0457 24.0228H17.0424C15.579 24.0222 14.1438 23.6291 12.8917 22.8861L12.594 22.7093ZM21.9886 18.2015C21.9273 18.0993 21.7639 18.038 21.5188 17.9152C21.2736 17.7924 20.0683 17.1995 19.8436 17.1176C19.6189 17.0358 19.4554 16.995 19.292 17.2403C19.1286 17.4857 18.6588 18.038 18.5158 18.2015C18.3728 18.3651 18.2297 18.3856 17.9847 18.2629C17.7395 18.1402 16.9496 17.8813 16.0132 17.0461C15.2844 16.396 14.7923 15.5933 14.6493 15.3478C14.5063 15.1024 14.6341 14.9697 14.7569 14.8475C14.8671 14.7376 15.002 14.5611 15.1246 14.418C15.2472 14.2749 15.288 14.1726 15.3697 14.0091C15.4514 13.8454 15.4106 13.7022 15.3493 13.5795C15.288 13.4568 14.7977 12.2501 14.5934 11.7592C14.3944 11.2812 14.1924 11.346 14.0419 11.3384C13.899 11.3313 13.7354 11.3297 13.572 11.3297C13.4086 11.3297 13.143 11.3911 12.9183 11.6365C12.6935 11.8819 12.0602 12.4751 12.0602 13.6817C12.0602 14.8884 12.9387 16.0541 13.0613 16.2177C13.1839 16.3814 14.7899 18.8575 17.2492 19.9194C17.8341 20.172 18.2907 20.3229 18.6468 20.4358C19.2341 20.6225 19.7685 20.5961 20.1909 20.533C20.6619 20.4626 21.6413 19.94 21.8457 19.3674C22.0499 18.7946 22.0499 18.3037 21.9886 18.2015Z" fill="#393335"/>
</g>
<defs>
<clipPath id="clip0_887_20737">
<rect width="33" height="33" fill="white"/>
</clipPath>
</defs>
</svg>
